<svg version="1.1" xmlns="http://www.w3.org/2000/svg" xmlns:xlink="http://www.w3.org/1999/xlink" width="520" height="260"><defs/><g transform="scale(1,1)"><g id="background-43d8dff2"><rect fill="white" stroke="none" x="0" y="0" width="520" height="260" class="dcg-svg-background"/></g><g id="background-images-43d8dff2"/><g id="graphpaper-43d8dff2"><g id="grid-43d8dff2"><g><path fill="none" stroke="rgb(0,0,0)" class="dcg-svg-minor-gridline" paint-order="fill stroke markers" d=" M 26.5 0 L 26.5 260" stroke-opacity="0.12" stroke-miterlimit="10" stroke-dasharray=""/><path fill="none" stroke="rgb(0,0,0)" class="dcg-svg-minor-gridline" paint-order="fill stroke markers" d=" M 52.5 0 L 52.5 260" stroke-opacity="0.12" stroke-miterlimit="10" stroke-dasharray=""/><path fill="none" stroke="rgb(0,0,0)" class="dcg-svg-minor-gridline" paint-order="fill stroke markers" d=" M 78.5 0 L 78.5 260" stroke-opacity="0.12" stroke-miterlimit="10" stroke-dasharray=""/><path fill="none" stroke="rgb(0,0,0)" class="dcg-svg-minor-gridline" paint-order="fill stroke markers" d=" M 104.5 0 L 104.5 260" stroke-opacity="0.12" stroke-miterlimit="10" stroke-dasharray=""/><path fill="none" stroke="rgb(0,0,0)" class="dcg-svg-minor-gridline" paint-order="fill stroke markers" d=" M 130.5 0 L 130.5 260" stroke-opacity="0.12" stroke-miterlimit="10" stroke-dasharray=""/><path fill="none" stroke="rgb(0,0,0)" class="dcg-svg-minor-gridline" paint-order="fill stroke markers" d=" M 156.5 0 L 156.5 260" stroke-opacity="0.12" stroke-miterlimit="10" stroke-dasharray=""/><path fill="none" stroke="rgb(0,0,0)" class="dcg-svg-minor-gridline" paint-order="fill stroke markers" d=" M 182.5 0 L 182.5 260" stroke-opacity="0.12" stroke-miterlimit="10" stroke-dasharray=""/><path fill="none" stroke="rgb(0,0,0)" class="dcg-svg-minor-gridline" paint-order="fill stroke markers" d=" M 208.5 0 L 208.5 260" stroke-opacity="0.12" stroke-miterlimit="10" stroke-dasharray=""/><path fill="none" stroke="rgb(0,0,0)" class="dcg-svg-minor-gridline" paint-order="fill stroke markers" d=" M 234.5 0 L 234.5 260" stroke-opacity="0.12" stroke-miterlimit="10" stroke-dasharray=""/><path fill="none" stroke="rgb(0,0,0)" class="dcg-svg-minor-gridline" paint-order="fill stroke markers" d=" M 286.5 0 L 286.5 260" stroke-opacity="0.12" stroke-miterlimit="10" stroke-dasharray=""/><path fill="none" stroke="rgb(0,0,0)" class="dcg-svg-minor-gridline" paint-order="fill stroke markers" d=" M 312.5 0 L 312.5 260" stroke-opacity="0.12" stroke-miterlimit="10" stroke-dasharray=""/><path fill="none" stroke="rgb(0,0,0)" class="dcg-svg-minor-gridline" paint-order="fill stroke markers" d=" M 338.5 0 L 338.5 260" stroke-opacity="0.12" stroke-miterlimit="10" stroke-dasharray=""/><path fill="none" stroke="rgb(0,0,0)" class="dcg-svg-minor-gridline" paint-order="fill stroke markers" d=" M 364.5 0 L 364.5 260" stroke-opacity="0.12" stroke-miterlimit="10" stroke-dasharray=""/><path fill="none" stroke="rgb(0,0,0)" class="dcg-svg-minor-gridline" paint-order="fill stroke markers" d=" M 390.5 0 L 390.5 260" stroke-opacity="0.12" stroke-miterlimit="10" stroke-dasharray=""/><path fill="none" stroke="rgb(0,0,0)" class="dcg-svg-minor-gridline" paint-order="fill stroke markers" d=" M 416.5 0 L 416.5 260" stroke-opacity="0.12" stroke-miterlimit="10" stroke-dasharray=""/><path fill="none" stroke="rgb(0,0,0)" class="dcg-svg-minor-gridline" paint-order="fill stroke markers" d=" M 442.5 0 L 442.5 260" stroke-opacity="0.12" stroke-miterlimit="10" stroke-dasharray=""/><path fill="none" stroke="rgb(0,0,0)" class="dcg-svg-minor-gridline" paint-order="fill stroke markers" d=" M 468.5 0 L 468.5 260" stroke-opacity="0.12" stroke-miterlimit="10" stroke-dasharray=""/><path fill="none" stroke="rgb(0,0,0)" class="dcg-svg-minor-gridline" paint-order="fill stroke markers" d=" M 494.5 0 L 494.5 260" stroke-opacity="0.12" stroke-miterlimit="10" stroke-dasharray=""/><path fill="none" stroke="rgb(0,0,0)" class="dcg-svg-minor-gridline" paint-order="fill stroke markers" d=" M 0 208.5 L 520 208.5" stroke-opacity="0.12" stroke-miterlimit="10" stroke-dasharray=""/><path fill="none" stroke="rgb(0,0,0)" class="dcg-svg-minor-gridline" paint-order="fill stroke markers" d=" M 0 182.5 L 520 182.5" stroke-opacity="0.12" stroke-miterlimit="10" stroke-dasharray=""/><path fill="none" stroke="rgb(0,0,0)" class="dcg-svg-minor-gridline" paint-order="fill stroke markers" d=" M 0 156.5 L 520 156.5" stroke-opacity="0.12" stroke-miterlimit="10" stroke-dasharray=""/><path fill="none" stroke="rgb(0,0,0)" class="dcg-svg-minor-gridline" paint-order="fill stroke markers" d=" M 0 130.5 L 520 130.5" stroke-opacity="0.12" stroke-miterlimit="10" stroke-dasharray=""/><path fill="none" stroke="rgb(0,0,0)" class="dcg-svg-minor-gridline" paint-order="fill stroke markers" d=" M 0 104.5 L 520 104.5" stroke-opacity="0.12" stroke-miterlimit="10" stroke-dasharray=""/><path fill="none" stroke="rgb(0,0,0)" class="dcg-svg-minor-gridline" paint-order="fill stroke markers" d=" M 0 78.5 L 520 78.5" stroke-opacity="0.12" stroke-miterlimit="10" stroke-dasharray=""/><path fill="none" stroke="rgb(0,0,0)" class="dcg-svg-minor-gridline" paint-order="fill stroke markers" d=" M 0 52.5 L 520 52.5" stroke-opacity="0.12" stroke-miterlimit="10" stroke-dasharray=""/><path fill="none" stroke="rgb(0,0,0)" class="dcg-svg-minor-gridline" paint-order="fill stroke markers" d=" M 0 26.5 L 520 26.5" stroke-opacity="0.12" stroke-miterlimit="10" stroke-dasharray=""/><path fill="none" stroke="rgb(0,0,0)" class="dcg-svg-major-gridline" paint-order="fill stroke markers" d=" M 130.5 0 L 130.5 260" stroke-opacity="0.31818181818181823" stroke-miterlimit="10" stroke-dasharray=""/><path fill="none" stroke="rgb(0,0,0)" class="dcg-svg-major-gridline" paint-order="fill stroke markers" d=" M 390.5 0 L 390.5 260" stroke-opacity="0.31818181818181823" stroke-miterlimit="10" stroke-dasharray=""/><path fill="none" stroke="rgb(0,0,0)" class="dcg-svg-major-gridline" paint-order="fill stroke markers" d=" M 0 104.5 L 520 104.5" stroke-opacity="0.31818181818181823" stroke-miterlimit="10" stroke-dasharray=""/></g></g><g id="axis-43d8dff2"><g id="yaxis-43d8dff2"><title>Y axis</title><g><path fill="none" stroke="rgb(0,0,0)" class="dcg-svg-axis-line" paint-order="fill stroke markers" d=" M 259.75 0 L 259.75 260" stroke-opacity="0.9" stroke-miterlimit="10" stroke-width="1.5" stroke-dasharray=""/></g></g><g id="xaxis-43d8dff2"><title>X axis</title><g><path fill="none" stroke="rgb(0,0,0)" class="dcg-svg-axis-line" paint-order="fill stroke markers" d=" M 0 233.75 L 520 233.75" stroke-opacity="0.9" stroke-miterlimit="10" stroke-width="1.5" stroke-dasharray=""/></g></g><g><g class="dcg-svg-axis-value"><text fill="none" stroke="#ffffff" font-family="Arial" font-size="14px" font-style="normal" font-weight="normal" text-decoration="normal" x="251.10693359375" y="249.808" text-anchor="middle" stroke-miterlimit="2" stroke-width="3" stroke-dasharray="">0</text><text fill="#000000" stroke="none" font-family="Arial" font-size="14px" font-style="normal" font-weight="normal" text-decoration="normal" x="251.10693359375" y="249.808" text-anchor="middle">0</text></g><g class="dcg-svg-axis-value dcg-svg-offcenter-axis-value"><text fill="none" stroke="#ffffff" font-family="Arial" font-size="14px" font-style="normal" font-weight="normal" text-decoration="normal" x="13.1171875" y="249.808" text-anchor="middle" stroke-miterlimit="2" stroke-width="3" stroke-dasharray="">-10</text><text fill="#000000" stroke="none" font-family="Arial" font-size="14px" font-style="normal" font-weight="normal" text-decoration="normal" x="13.1171875" y="249.808" text-anchor="middle">-10</text></g><g class="dcg-svg-axis-value"><text fill="none" stroke="#ffffff" font-family="Arial" font-size="14px" font-style="normal" font-weight="normal" text-decoration="normal" x="127.6689453125" y="249.808" text-anchor="middle" stroke-miterlimit="2" stroke-width="3" stroke-dasharray="">-5</text><text fill="#000000" stroke="none" font-family="Arial" font-size="14px" font-style="normal" font-weight="normal" text-decoration="normal" x="127.6689453125" y="249.808" text-anchor="middle">-5</text></g><g class="dcg-svg-axis-value"><text fill="none" stroke="#ffffff" font-family="Arial" font-size="14px" font-style="normal" font-weight="normal" text-decoration="normal" x="390" y="249.808" text-anchor="middle" stroke-miterlimit="2" stroke-width="3" stroke-dasharray="">5</text><text fill="#000000" stroke="none" font-family="Arial" font-size="14px" font-style="normal" font-weight="normal" text-decoration="normal" x="390" y="249.808" text-anchor="middle">5</text></g><g class="dcg-svg-axis-value dcg-svg-offcenter-axis-value"><text fill="none" stroke="#ffffff" font-family="Arial" font-size="14px" font-style="normal" font-weight="normal" text-decoration="normal" x="509.2138671875" y="249.808" text-anchor="middle" stroke-miterlimit="2" stroke-width="3" stroke-dasharray="">10</text><text fill="#000000" stroke="none" font-family="Arial" font-size="14px" font-style="normal" font-weight="normal" text-decoration="normal" x="509.2138671875" y="249.808" text-anchor="middle">10</text></g><g class="dcg-svg-axis-value"><text fill="none" stroke="#ffffff" font-family="Arial" font-size="14px" font-style="normal" font-weight="normal" text-decoration="normal" x="251.10693359375" y="107.808" text-anchor="middle" stroke-miterlimit="2" stroke-width="3" stroke-dasharray="">5</text><text fill="#000000" stroke="none" font-family="Arial" font-size="14px" font-style="normal" font-weight="normal" text-decoration="normal" x="251.10693359375" y="107.808" text-anchor="middle">5</text></g></g></g></g><g id="expressions-43d8dff2"><g id="sketch-43d8dff2"><title>Expression 1</title><path fill="#0000ff" stroke="none" paint-order="stroke fill markers" d="" fill-opacity="0.4"/><g><path fill="none" stroke="#0000ff" class="dcg-svg-curve" paint-order="fill stroke markers" d=" M 181.1188375101461 -5.5 L 181.1188375101461 -5.5 L 184.08203125 12.325462341308594 L 188.525390625 37.51462364196777 L 192.841796875 60.529836654663086 L 197.03125 81.49755859375 L 201.09375 100.54052734375 L 205.029296875 117.77776145935059 L 208.837890625 133.32456016540527 L 212.51953125 147.2925033569336 L 216.07421875 159.7894515991211 L 219.501953125 170.91954612731934 L 222.802734375 180.7832088470459 L 225.9765625 189.47714233398438 L 229.0234375 197.09432983398438 L 231.943359375 203.72403526306152 L 234.736328125 209.45180320739746 L 237.40234375 214.35945892333984 L 239.94140625 218.52510833740234 L 242.353515625 222.02313804626465 L 244.765625 225.0736083984375 L 247.05078125 227.5506820678711 L 249.208984375 229.52130699157715 L 251.3671875 231.13363647460938 L 253.3984375 232.32382202148438 L 255.302734375 233.1513729095459 L 256.953125 233.6429443359375 L 258.4765625 233.91073608398438 L 260 234 L 261.5234375 233.91073608398438 L 263.046875 233.6429443359375 L 264.5703125 233.19662475585938 L 266.220703125 232.5116481781006 L 267.998046875 231.53966331481934 L 270.029296875 230.1312770843506 L 272.1875 228.287109375 L 274.345703125 226.0846462249756 L 276.630859375 223.36209678649902 L 278.916015625 220.23785972595215 L 281.328125 216.5042724609375 L 283.8671875 212.09066772460938 L 286.533203125 206.9226589202881 L 289.326171875 200.92214012145996 L 292.119140625 194.32156944274902 L 295.0390625 186.77938842773438 L 298.0859375 178.21005249023438 L 301.259765625 168.5242977142334 L 304.560546875 157.62914085388184 L 307.98828125 145.4278793334961 L 311.54296875 131.8200912475586 L 315.224609375 116.70163536071777 L 319.033203125 99.96465110778809 L 322.96875 81.49755859375 L 327.03125 61.18505859375 L 331.220703125 38.908132553100586 L 335.537109375 14.544042587280273 L 338.88814604591835 -5.5" stroke-linecap="round" stroke-linejoin="round" stroke-miterlimit="10" stroke-width="2.5" stroke-dasharray=""/></g></g><g id="sketch-43d8dff2"><title>Expression 2</title><path fill="#00ff00" stroke="none" paint-order="stroke fill markers" d="" fill-opacity="0.4"/><g><path fill="none" stroke="#00ff00" class="dcg-svg-curve" paint-order="fill stroke markers" d=" M 185.52401687661498 -5.5 L 185.52401687661498 -5.5 L 188.525390625 11.514623641967773 L 192.841796875 34.529836654663086 L 197.03125 55.49755859375 L 201.09375 74.54052734375 L 205.029296875 91.77776145935059 L 208.837890625 107.32456016540527 L 212.51953125 121.2925033569336 L 216.07421875 133.7894515991211 L 219.501953125 144.91954612731934 L 222.802734375 154.7832088470459 L 225.9765625 163.47714233398438 L 229.0234375 171.09432983398438 L 231.943359375 177.72403526306152 L 234.736328125 183.45180320739746 L 237.40234375 188.35945892333984 L 239.94140625 192.52510833740234 L 242.353515625 196.02313804626465 L 244.765625 199.0736083984375 L 247.05078125 201.5506820678711 L 249.208984375 203.52130699157715 L 251.3671875 205.13363647460938 L 253.3984375 206.32382202148438 L 255.302734375 207.1513729095459 L 256.953125 207.6429443359375 L 258.4765625 207.91073608398438 L 260 208 L 261.5234375 207.91073608398438 L 263.046875 207.6429443359375 L 264.5703125 207.19662475585938 L 266.220703125 206.5116481781006 L 267.998046875 205.53966331481934 L 270.029296875 204.1312770843506 L 272.1875 202.287109375 L 274.345703125 200.0846462249756 L 276.630859375 197.36209678649902 L 278.916015625 194.23785972595215 L 281.328125 190.5042724609375 L 283.8671875 186.09066772460938 L 286.533203125 180.9226589202881 L 289.326171875 174.92214012145996 L 292.119140625 168.32156944274902 L 295.0390625 160.77938842773438 L 298.0859375 152.21005249023438 L 301.259765625 142.5242977142334 L 304.560546875 131.62914085388184 L 307.98828125 119.4278793334961 L 311.54296875 105.8200912475586 L 315.224609375 90.70163536071777 L 319.033203125 73.96465110778809 L 322.96875 55.49755859375 L 327.03125 35.18505859375 L 331.220703125 12.908132553100586 L 334.4819362970372 -5.5" stroke-linecap="round" stroke-linejoin="round" stroke-miterlimit="10" stroke-width="2.5" stroke-dasharray=""/></g></g><g id="sketch-43d8dff2"><title>Expression 3</title><path fill="#ffa500" stroke="none" paint-order="stroke fill markers" d="" fill-opacity="0.4"/><g><path fill="none" stroke="#ffa500" class="dcg-svg-curve" paint-order="fill stroke markers" d=" M 155.09450388301389 -5.5 L 155.09450388301389 -5.5 L 159.453125 20.2601318359375 L 163.76953125 44.295433044433594 L 168.0859375 66.89755249023438 L 172.1484375 86.86093139648438 L 176.2109375 105.55477905273438 L 180.01953125 121.9272689819336 L 183.828125 137.1839599609375 L 187.509765625 150.8714656829834 L 191.064453125 163.09764671325684 L 194.4921875 173.96664428710938 L 197.79296875 183.5788803100586 L 200.966796875 192.0310573577881 L 204.013671875 199.41615867614746 L 206.93359375 205.82344818115234 L 209.7265625 211.33847045898438 L 212.392578125 216.0430507659912 L 214.931640625 220.01529502868652 L 217.34375 223.32958984375 L 219.62890625 226.05660247802734 L 221.9140625 228.38192749023438 L 224.072265625 230.2092342376709 L 226.23046875 231.6782455444336 L 228.26171875 232.7335433959961 L 230.0390625 233.39657592773438 L 231.689453125 233.79466819763184 L 233.212890625 233.97617149353027 L 234.736328125 233.97914695739746 L 236.259765625 233.8035945892334 L 237.783203125 233.4495143890381 L 239.43359375 232.86446380615234 L 241.2109375 232.00009155273438 L 243.115234375 230.8043270111084 L 245.2734375 229.11190795898438 L 247.431640625 227.06119346618652 L 249.58984375 224.65218353271484 L 251.875 221.7109375 L 254.287109375 218.17050743103027 L 256.69921875 214.1825180053711 L 259.23828125 209.5011215209961 L 261.904296875 204.0519313812256 L 264.697265625 197.7568416595459 L 267.6171875 190.53402709960938 L 270.6640625 182.29794311523438 L 273.837890625 172.95932579040527 L 277.138671875 162.42519187927246 L 280.56640625 150.59883880615234 L 284.12109375 137.37984466552734 L 287.802734375 122.6640682220459 L 291.611328125 106.34364891052246 L 295.419921875 88.90743064880371 L 299.35546875 69.7177963256836 L 303.41796875 48.659446716308594 L 307.607421875 25.61336326599121 L 311.923828125 0.45680809020996094 L 312.8900520255821 -5.5" stroke-linecap="round" stroke-linejoin="round" stroke-miterlimit="10" stroke-width="2.5" stroke-dasharray=""/></g></g><g id="sketch-43d8dff2"><title>Expression 4</title><path fill="#ff0000" stroke="none" paint-order="stroke fill markers" d="" fill-opacity="0.4"/><g><path fill="none" stroke="#ff0000" class="dcg-svg-curve" paint-order="fill stroke markers" d=" M 159.49620199052964 -5.5 L 159.49620199052964 -5.5 L 163.76953125 18.295433044433594 L 168.0859375 40.897552490234375 L 172.1484375 60.860931396484375 L 176.2109375 79.55477905273438 L 180.01953125 95.9272689819336 L 183.828125 111.1839599609375 L 187.509765625 124.8714656829834 L 191.064453125 137.09764671325684 L 194.4921875 147.96664428710938 L 197.79296875 157.5788803100586 L 200.966796875 166.0310573577881 L 204.013671875 173.41615867614746 L 206.93359375 179.82344818115234 L 209.7265625 185.33847045898438 L 212.392578125 190.0430507659912 L 214.931640625 194.01529502868652 L 217.34375 197.32958984375 L 219.62890625 200.05660247802734 L 221.9140625 202.38192749023438 L 224.072265625 204.2092342376709 L 226.23046875 205.6782455444336 L 228.26171875 206.7335433959961 L 230.0390625 207.39657592773438 L 231.689453125 207.79466819763184 L 233.212890625 207.97617149353027 L 234.736328125 207.97914695739746 L 236.259765625 207.8035945892334 L 237.783203125 207.4495143890381 L 239.43359375 206.86446380615234 L 241.2109375 206.00009155273438 L 243.115234375 204.8043270111084 L 245.2734375 203.11190795898438 L 247.431640625 201.06119346618652 L 249.58984375 198.65218353271484 L 251.875 195.7109375 L 254.287109375 192.17050743103027 L 256.69921875 188.1825180053711 L 259.23828125 183.5011215209961 L 261.904296875 178.0519313812256 L 264.697265625 171.7568416595459 L 267.6171875 164.53402709960938 L 270.6640625 156.29794311523438 L 273.837890625 146.95932579040527 L 277.138671875 136.42519187927246 L 280.56640625 124.59883880615234 L 284.12109375 111.37984466552734 L 287.802734375 96.6640682220459 L 291.611328125 80.34364891052246 L 295.419921875 62.90743064880371 L 299.35546875 43.717796325683594 L 303.41796875 22.659446716308594 L 307.607421875 -0.38663673400878906 L 308.4847817919529 -5.5" stroke-linecap="round" stroke-linejoin="round" stroke-miterlimit="10" stroke-width="2.5" stroke-dasharray=""/></g></g></g><g id="labels-43d8dff2"/></g></svg>