<svg version="1.1" xmlns="http://www.w3.org/2000/svg" xmlns:xlink="http://www.w3.org/1999/xlink" width="520" height="260"><defs/><g transform="scale(1,1)"><g id="background-7fabda2b"><rect fill="white" stroke="none" x="0" y="0" width="520" height="260" class="dcg-svg-background"/></g><g id="background-images-7fabda2b"/><g id="graphpaper-7fabda2b"><g id="grid-7fabda2b"><g><path fill="none" stroke="rgb(0,0,0)" class="dcg-svg-minor-gridline" paint-order="fill stroke markers" d=" M 26.5 0 L 26.5 260" stroke-opacity="0.12" stroke-miterlimit="10" stroke-dasharray=""/><path fill="none" stroke="rgb(0,0,0)" class="dcg-svg-minor-gridline" paint-order="fill stroke markers" d=" M 52.5 0 L 52.5 260" stroke-opacity="0.12" stroke-miterlimit="10" stroke-dasharray=""/><path fill="none" stroke="rgb(0,0,0)" class="dcg-svg-minor-gridline" paint-order="fill stroke markers" d=" M 78.5 0 L 78.5 260" stroke-opacity="0.12" stroke-miterlimit="10" stroke-dasharray=""/><path fill="none" stroke="rgb(0,0,0)" class="dcg-svg-minor-gridline" paint-order="fill stroke markers" d=" M 104.5 0 L 104.5 260" stroke-opacity="0.12" stroke-miterlimit="10" stroke-dasharray=""/><path fill="none" stroke="rgb(0,0,0)" class="dcg-svg-minor-gridline" paint-order="fill stroke markers" d=" M 130.5 0 L 130.5 260" stroke-opacity="0.12" stroke-miterlimit="10" stroke-dasharray=""/><path fill="none" stroke="rgb(0,0,0)" class="dcg-svg-minor-gridline" paint-order="fill stroke markers" d=" M 156.5 0 L 156.5 260" stroke-opacity="0.12" stroke-miterlimit="10" stroke-dasharray=""/><path fill="none" stroke="rgb(0,0,0)" class="dcg-svg-minor-gridline" paint-order="fill stroke markers" d=" M 182.5 0 L 182.5 260" stroke-opacity="0.12" stroke-miterlimit="10" stroke-dasharray=""/><path fill="none" stroke="rgb(0,0,0)" class="dcg-svg-minor-gridline" paint-order="fill stroke markers" d=" M 208.5 0 L 208.5 260" stroke-opacity="0.12" stroke-miterlimit="10" stroke-dasharray=""/><path fill="none" stroke="rgb(0,0,0)" class="dcg-svg-minor-gridline" paint-order="fill stroke markers" d=" M 234.5 0 L 234.5 260" stroke-opacity="0.12" stroke-miterlimit="10" stroke-dasharray=""/><path fill="none" stroke="rgb(0,0,0)" class="dcg-svg-minor-gridline" paint-order="fill stroke markers" d=" M 286.5 0 L 286.5 260" stroke-opacity="0.12" stroke-miterlimit="10" stroke-dasharray=""/><path fill="none" stroke="rgb(0,0,0)" class="dcg-svg-minor-gridline" paint-order="fill stroke markers" d=" M 312.5 0 L 312.5 260" stroke-opacity="0.12" stroke-miterlimit="10" stroke-dasharray=""/><path fill="none" stroke="rgb(0,0,0)" class="dcg-svg-minor-gridline" paint-order="fill stroke markers" d=" M 338.5 0 L 338.5 260" stroke-opacity="0.12" stroke-miterlimit="10" stroke-dasharray=""/><path fill="none" stroke="rgb(0,0,0)" class="dcg-svg-minor-gridline" paint-order="fill stroke markers" d=" M 364.5 0 L 364.5 260" stroke-opacity="0.12" stroke-miterlimit="10" stroke-dasharray=""/><path fill="none" stroke="rgb(0,0,0)" class="dcg-svg-minor-gridline" paint-order="fill stroke markers" d=" M 390.5 0 L 390.5 260" stroke-opacity="0.12" stroke-miterlimit="10" stroke-dasharray=""/><path fill="none" stroke="rgb(0,0,0)" class="dcg-svg-minor-gridline" paint-order="fill stroke markers" d=" M 416.5 0 L 416.5 260" stroke-opacity="0.12" stroke-miterlimit="10" stroke-dasharray=""/><path fill="none" stroke="rgb(0,0,0)" class="dcg-svg-minor-gridline" paint-order="fill stroke markers" d=" M 442.5 0 L 442.5 260" stroke-opacity="0.12" stroke-miterlimit="10" stroke-dasharray=""/><path fill="none" stroke="rgb(0,0,0)" class="dcg-svg-minor-gridline" paint-order="fill stroke markers" d=" M 468.5 0 L 468.5 260" stroke-opacity="0.12" stroke-miterlimit="10" stroke-dasharray=""/><path fill="none" stroke="rgb(0,0,0)" class="dcg-svg-minor-gridline" paint-order="fill stroke markers" d=" M 494.5 0 L 494.5 260" stroke-opacity="0.12" stroke-miterlimit="10" stroke-dasharray=""/><path fill="none" stroke="rgb(0,0,0)" class="dcg-svg-minor-gridline" paint-order="fill stroke markers" d=" M 0 234.5 L 520 234.5" stroke-opacity="0.12" stroke-miterlimit="10" stroke-dasharray=""/><path fill="none" stroke="rgb(0,0,0)" class="dcg-svg-minor-gridline" paint-order="fill stroke markers" d=" M 0 208.5 L 520 208.5" stroke-opacity="0.12" stroke-miterlimit="10" stroke-dasharray=""/><path fill="none" stroke="rgb(0,0,0)" class="dcg-svg-minor-gridline" paint-order="fill stroke markers" d=" M 0 182.5 L 520 182.5" stroke-opacity="0.12" stroke-miterlimit="10" stroke-dasharray=""/><path fill="none" stroke="rgb(0,0,0)" class="dcg-svg-minor-gridline" paint-order="fill stroke markers" d=" M 0 156.5 L 520 156.5" stroke-opacity="0.12" stroke-miterlimit="10" stroke-dasharray=""/><path fill="none" stroke="rgb(0,0,0)" class="dcg-svg-minor-gridline" paint-order="fill stroke markers" d=" M 0 104.5 L 520 104.5" stroke-opacity="0.12" stroke-miterlimit="10" stroke-dasharray=""/><path fill="none" stroke="rgb(0,0,0)" class="dcg-svg-minor-gridline" paint-order="fill stroke markers" d=" M 0 78.5 L 520 78.5" stroke-opacity="0.12" stroke-miterlimit="10" stroke-dasharray=""/><path fill="none" stroke="rgb(0,0,0)" class="dcg-svg-minor-gridline" paint-order="fill stroke markers" d=" M 0 52.5 L 520 52.5" stroke-opacity="0.12" stroke-miterlimit="10" stroke-dasharray=""/><path fill="none" stroke="rgb(0,0,0)" class="dcg-svg-minor-gridline" paint-order="fill stroke markers" d=" M 0 26.5 L 520 26.5" stroke-opacity="0.12" stroke-miterlimit="10" stroke-dasharray=""/><path fill="none" stroke="rgb(0,0,0)" class="dcg-svg-major-gridline" paint-order="fill stroke markers" d=" M 130.5 0 L 130.5 260" stroke-opacity="0.31818181818181823" stroke-miterlimit="10" stroke-dasharray=""/><path fill="none" stroke="rgb(0,0,0)" class="dcg-svg-major-gridline" paint-order="fill stroke markers" d=" M 390.5 0 L 390.5 260" stroke-opacity="0.31818181818181823" stroke-miterlimit="10" stroke-dasharray=""/></g></g><g id="axis-7fabda2b"><g id="yaxis-7fabda2b"><title>Y axis</title><g><path fill="none" stroke="rgb(0,0,0)" class="dcg-svg-axis-line" paint-order="fill stroke markers" d=" M 259.75 0 L 259.75 260" stroke-opacity="0.9" stroke-miterlimit="10" stroke-width="1.5" stroke-dasharray=""/></g></g><g id="xaxis-7fabda2b"><title>X axis</title><g><path fill="none" stroke="rgb(0,0,0)" class="dcg-svg-axis-line" paint-order="fill stroke markers" d=" M 0 129.75 L 520 129.75" stroke-opacity="0.9" stroke-miterlimit="10" stroke-width="1.5" stroke-dasharray=""/></g></g><g><g class="dcg-svg-axis-value"><text fill="none" stroke="#ffffff" font-family="Arial" font-size="14px" font-style="normal" font-weight="normal" text-decoration="normal" x="251.10693359375" y="145.808" text-anchor="middle" stroke-miterlimit="2" stroke-width="3" stroke-dasharray="">0</text><text fill="#000000" stroke="none" font-family="Arial" font-size="14px" font-style="normal" font-weight="normal" text-decoration="normal" x="251.10693359375" y="145.808" text-anchor="middle">0</text></g><g class="dcg-svg-axis-value dcg-svg-offcenter-axis-value"><text fill="none" stroke="#ffffff" font-family="Arial" font-size="14px" font-style="normal" font-weight="normal" text-decoration="normal" x="13.1171875" y="145.808" text-anchor="middle" stroke-miterlimit="2" stroke-width="3" stroke-dasharray="">-10</text><text fill="#000000" stroke="none" font-family="Arial" font-size="14px" font-style="normal" font-weight="normal" text-decoration="normal" x="13.1171875" y="145.808" text-anchor="middle">-10</text></g><g class="dcg-svg-axis-value"><text fill="none" stroke="#ffffff" font-family="Arial" font-size="14px" font-style="normal" font-weight="normal" text-decoration="normal" x="127.6689453125" y="145.808" text-anchor="middle" stroke-miterlimit="2" stroke-width="3" stroke-dasharray="">-5</text><text fill="#000000" stroke="none" font-family="Arial" font-size="14px" font-style="normal" font-weight="normal" text-decoration="normal" x="127.6689453125" y="145.808" text-anchor="middle">-5</text></g><g class="dcg-svg-axis-value"><text fill="none" stroke="#ffffff" font-family="Arial" font-size="14px" font-style="normal" font-weight="normal" text-decoration="normal" x="390" y="145.808" text-anchor="middle" stroke-miterlimit="2" stroke-width="3" stroke-dasharray="">5</text><text fill="#000000" stroke="none" font-family="Arial" font-size="14px" font-style="normal" font-weight="normal" text-decoration="normal" x="390" y="145.808" text-anchor="middle">5</text></g><g class="dcg-svg-axis-value dcg-svg-offcenter-axis-value"><text fill="none" stroke="#ffffff" font-family="Arial" font-size="14px" font-style="normal" font-weight="normal" text-decoration="normal" x="509.2138671875" y="145.808" text-anchor="middle" stroke-miterlimit="2" stroke-width="3" stroke-dasharray="">10</text><text fill="#000000" stroke="none" font-family="Arial" font-size="14px" font-style="normal" font-weight="normal" text-decoration="normal" x="509.2138671875" y="145.808" text-anchor="middle">10</text></g><g class="dcg-svg-axis-value dcg-svg-offcenter-axis-value"><text fill="none" stroke="#ffffff" font-family="Arial" font-size="14px" font-style="normal" font-weight="normal" text-decoration="normal" x="248.77587890625" y="253.808" text-anchor="middle" stroke-miterlimit="2" stroke-width="3" stroke-dasharray="">-5</text><text fill="#000000" stroke="none" font-family="Arial" font-size="14px" font-style="normal" font-weight="normal" text-decoration="normal" x="248.77587890625" y="253.808" text-anchor="middle">-5</text></g><g class="dcg-svg-axis-value dcg-svg-offcenter-axis-value"><text fill="none" stroke="#ffffff" font-family="Arial" font-size="14px" font-style="normal" font-weight="normal" text-decoration="normal" x="251.10693359375" y="13.808" text-anchor="middle" stroke-miterlimit="2" stroke-width="3" stroke-dasharray="">5</text><text fill="#000000" stroke="none" font-family="Arial" font-size="14px" font-style="normal" font-weight="normal" text-decoration="normal" x="251.10693359375" y="13.808" text-anchor="middle">5</text></g></g></g></g><g id="expressions-7fabda2b"><g id="sketch-7fabda2b"><title>Expression 1</title><path fill="#0000ff" stroke="none" paint-order="stroke fill markers" d="" fill-opacity="0.4"/><g><path fill="none" stroke="#0000ff" class="dcg-svg-curve" paint-order="fill stroke markers" d=" M 234.22504570125477 265.5 L 234.22504570125477 265.5 L 234.228515625 252.86191525188073 L 234.609375 226.9795481449544 L 235.1171875 210.71249271169899 L 235.751953125 198.380870174116 L 236.513671875 188.23539300332675 L 237.40234375 179.48179047500966 L 238.544921875 170.8244250670583 L 239.814453125 163.1753857326293 L 241.2109375 156.22608805221415 L 242.861328125 149.29562830286534 L 244.638671875 142.88934445235049 L 246.669921875 136.51611196754558 L 248.828125 130.56356836473657 L 251.11328125 124.97017907514528 L 253.525390625 119.70472439389624 L 256.064453125 114.75753374194488 L 258.603515625 110.3428527329452 L 261.142578125 106.40755286895423 L 263.681640625 102.9149344579977 L 266.220703125 99.8385611247609 L 268.759765625 97.15841172988809 L 271.298828125 94.85837536609765 L 273.837890625 92.92456612452406 L 276.376953125 91.34416149394266 L 278.662109375 90.21357192393462 L 280.8203125 89.39084880486378 L 282.8515625 88.82644476250098 L 284.8828125 88.45817250391089 L 286.9140625 88.27829387541189 L 288.9453125 88.27857270745972 L 290.9765625 88.45024813257649 L 293.134765625 88.81004490285275 L 295.419921875 89.37732046284981 L 297.958984375 90.21463268882826 L 300.751953125 91.36247783426349 L 303.92578125 92.9180474792778 L 307.607421875 94.99827379212105 L 312.3046875 97.96747900477494 L 320.810546875 103.74951272308064 L 327.5390625 108.16350637265985 L 331.982421875 110.7598889002753 L 335.6640625 112.61967538980858 L 338.837890625 113.96194838537221 L 341.630859375 114.91500968767122 L 344.169921875 115.57849648508754 L 346.58203125 116.01770514465652 L 348.8671875 116.25355331199438 L 351.025390625 116.30946911120049 L 353.18359375 116.19917084166559 L 355.341796875 115.91982868889471 L 357.5 115.46985244414952 L 359.78515625 114.80706108381882 L 362.197265625 113.90076745451208 L 364.736328125 112.72095718335278 L 367.529296875 111.16279554255001 L 370.576171875 109.16475966065826 L 373.876953125 106.67043155530733 L 377.431640625 103.63383168589641 L 381.240234375 100.02582382605743 L 385.556640625 95.57018147133866 L 390.888671875 89.67401170498877 L 410.3125 67.8109197805215 L 414.501953125 63.6966784899665 L 418.18359375 60.43052360862157 L 421.611328125 57.7338233406833 L 424.78515625 55.56703710886458 L 427.83203125 53.8100455971463 L 430.498046875 52.54702683085189 L 433.037109375 51.591354090769556 L 435.322265625 50.942413292140174 L 437.48046875 50.515742701564804 L 439.638671875 50.27097283386388 L 441.796875 50.20783915050187 L 443.955078125 50.32484791996478 L 446.11328125 50.619286019076014 L 448.271484375 51.0872391478852 L 450.556640625 51.76616998742692 L 453.095703125 52.732895416333406 L 455.76171875 53.97556196451444 L 458.80859375 55.66032964486543 L 462.236328125 57.859160143895906 L 466.171875 60.72319105192783 L 470.7421875 64.40756507727463 L 476.708984375 69.58996449642095 L 489.150390625 80.47592326833707 L 493.720703125 84.07011952157227 L 497.65625 86.83238568367048 L 501.2109375 88.99876625714118 L 504.384765625 90.62945218260356 L 507.177734375 91.80339569306035 L 509.716796875 92.64370476153009 L 512.12890625 93.23201646469134 L 514.4140625 93.59409586147973 L 516.572265625 93.75746910531481 L 518.73046875 93.74476549742553 L 520 93.65446827756065" stroke-linecap="round" stroke-linejoin="round" stroke-miterlimit="10" stroke-width="2.5" stroke-dasharray=""/></g></g><g id="sketch-7fabda2b"><title>Expression 2</title><path fill="#ff0000" stroke="none" paint-order="stroke fill markers" d="" fill-opacity="0.4"/><g><path fill="none" stroke="#ff0000" class="dcg-svg-curve" paint-order="fill stroke markers" d=" M 286.15196086511696 265.5 L 286.15196086511696 265.5 L 286.15234375 263.48017786737273 L 286.533203125 230.52751781389708 L 287.041015625 212.62465571060648 L 287.67578125 199.61262241848996 L 288.4375 189.1112829552987 L 289.326171875 180.14602993695468 L 290.46875 171.33890250177757 L 291.73828125 163.59254754319034 L 293.134765625 156.57548833954772 L 294.78515625 149.59191785116127 L 296.5625 143.14609959252866 L 298.59375 136.7402538395235 L 300.751953125 130.76165071726504 L 303.037109375 125.14649157480724 L 305.44921875 119.86211262665397 L 307.98828125 114.89788137711591 L 310.52734375 110.46810092151233 L 313.06640625 106.51901750236175 L 315.60546875 103.01354339866518 L 318.14453125 99.92499888697347 L 320.68359375 97.23321193650798 L 323.22265625 94.92198206102259 L 325.76171875 92.97737560078734 L 328.30078125 91.38655139975893 L 330.5859375 90.24690829328951 L 332.744140625 89.41592690933555 L 334.775390625 88.84402356200445 L 336.806640625 88.46853302088378 L 338.837890625 88.28173505757793 L 340.869140625 88.27541276419873 L 342.900390625 88.44082524131561 L 345.05859375 88.79436069573865 L 347.34375 89.3554739489347 L 349.755859375 90.14010222452542 L 352.548828125 91.27160053755671 L 355.595703125 92.74508195061136 L 359.27734375 94.80148633007721 L 363.84765625 97.66703586883479 L 371.337890625 102.74286805074593 L 378.955078125 107.79919737782296 L 383.525390625 110.5089999214311 L 387.20703125 112.40548259737513 L 390.380859375 113.78499690141864 L 393.173828125 114.7746028608175 L 395.83984375 115.50367028223593 L 398.251953125 115.9689648693221 L 400.537109375 116.2305872952107 L 402.67940968686827 116.311601373144 L 404.853515625 116.22693356519201 L 407.01171875 115.97357917746459 L 409.169921875 115.54975320670634 L 411.455078125 114.9146153166841 L 413.8671875 114.03722741736236 L 416.40625 112.88724563443375 L 419.19921875 111.3608346916289 L 422.24609375 109.39572972719617 L 425.546875 106.93453205084388 L 429.1015625 103.9300246672165 L 432.91015625 100.35157481601898 L 437.2265625 95.92257122336375 L 442.431640625 90.19178541730501 L 451.69921875 79.51272295242963 L 458.681640625 71.65223769442898 L 463.505859375 66.60060582914349 L 467.568359375 62.71417453303087 L 471.25 59.553965656556755 L 474.55078125 57.058056524479014 L 477.724609375 54.99057969064994 L 480.64453125 53.39745460845073 L 483.310546875 52.21463391096101 L 485.72265625 51.37550192824615 L 488.0078125 50.78720349279813 L 490.166015625 50.418266952491166 L 492.32421875 50.23128056770811 L 494.35546875 50.22093300485878 L 496.513671875 50.38417362378735 L 498.671875 50.72394474994903 L 500.95703125 51.271404205815685 L 503.369140625 52.05170487552043 L 505.908203125 53.08759968202081 L 508.701171875 54.466061275774294 L 511.875 56.311827349747105 L 515.4296875 58.69229616543612 L 519.4921875 61.75295505074864 L 520 62.157080372972615" stroke-linecap="round" stroke-linejoin="round" stroke-miterlimit="10" stroke-width="2.5" stroke-dasharray=""/></g></g></g><g id="labels-7fabda2b"/></g></svg>