<svg version="1.1" xmlns="http://www.w3.org/2000/svg" xmlns:xlink="http://www.w3.org/1999/xlink" width="520" height="260"><defs/><g transform="scale(1,1)"><g id="background-db2b7712"><rect fill="white" stroke="none" x="0" y="0" width="520" height="260" class="dcg-svg-background"/></g><g id="background-images-db2b7712"/><g id="graphpaper-db2b7712"><g id="grid-db2b7712"><g><path fill="none" stroke="rgb(0,0,0)" class="dcg-svg-minor-gridline" paint-order="fill stroke markers" d=" M 26.5 0 L 26.5 260" stroke-opacity="0.12" stroke-miterlimit="10" stroke-dasharray=""/><path fill="none" stroke="rgb(0,0,0)" class="dcg-svg-minor-gridline" paint-order="fill stroke markers" d=" M 52.5 0 L 52.5 260" stroke-opacity="0.12" stroke-miterlimit="10" stroke-dasharray=""/><path fill="none" stroke="rgb(0,0,0)" class="dcg-svg-minor-gridline" paint-order="fill stroke markers" d=" M 78.5 0 L 78.5 260" stroke-opacity="0.12" stroke-miterlimit="10" stroke-dasharray=""/><path fill="none" stroke="rgb(0,0,0)" class="dcg-svg-minor-gridline" paint-order="fill stroke markers" d=" M 104.5 0 L 104.5 260" stroke-opacity="0.12" stroke-miterlimit="10" stroke-dasharray=""/><path fill="none" stroke="rgb(0,0,0)" class="dcg-svg-minor-gridline" paint-order="fill stroke markers" d=" M 130.5 0 L 130.5 260" stroke-opacity="0.12" stroke-miterlimit="10" stroke-dasharray=""/><path fill="none" stroke="rgb(0,0,0)" class="dcg-svg-minor-gridline" paint-order="fill stroke markers" d=" M 156.5 0 L 156.5 260" stroke-opacity="0.12" stroke-miterlimit="10" stroke-dasharray=""/><path fill="none" stroke="rgb(0,0,0)" class="dcg-svg-minor-gridline" paint-order="fill stroke markers" d=" M 182.5 0 L 182.5 260" stroke-opacity="0.12" stroke-miterlimit="10" stroke-dasharray=""/><path fill="none" stroke="rgb(0,0,0)" class="dcg-svg-minor-gridline" paint-order="fill stroke markers" d=" M 208.5 0 L 208.5 260" stroke-opacity="0.12" stroke-miterlimit="10" stroke-dasharray=""/><path fill="none" stroke="rgb(0,0,0)" class="dcg-svg-minor-gridline" paint-order="fill stroke markers" d=" M 234.5 0 L 234.5 260" stroke-opacity="0.12" stroke-miterlimit="10" stroke-dasharray=""/><path fill="none" stroke="rgb(0,0,0)" class="dcg-svg-minor-gridline" paint-order="fill stroke markers" d=" M 286.5 0 L 286.5 260" stroke-opacity="0.12" stroke-miterlimit="10" stroke-dasharray=""/><path fill="none" stroke="rgb(0,0,0)" class="dcg-svg-minor-gridline" paint-order="fill stroke markers" d=" M 312.5 0 L 312.5 260" stroke-opacity="0.12" stroke-miterlimit="10" stroke-dasharray=""/><path fill="none" stroke="rgb(0,0,0)" class="dcg-svg-minor-gridline" paint-order="fill stroke markers" d=" M 338.5 0 L 338.5 260" stroke-opacity="0.12" stroke-miterlimit="10" stroke-dasharray=""/><path fill="none" stroke="rgb(0,0,0)" class="dcg-svg-minor-gridline" paint-order="fill stroke markers" d=" M 364.5 0 L 364.5 260" stroke-opacity="0.12" stroke-miterlimit="10" stroke-dasharray=""/><path fill="none" stroke="rgb(0,0,0)" class="dcg-svg-minor-gridline" paint-order="fill stroke markers" d=" M 390.5 0 L 390.5 260" stroke-opacity="0.12" stroke-miterlimit="10" stroke-dasharray=""/><path fill="none" stroke="rgb(0,0,0)" class="dcg-svg-minor-gridline" paint-order="fill stroke markers" d=" M 416.5 0 L 416.5 260" stroke-opacity="0.12" stroke-miterlimit="10" stroke-dasharray=""/><path fill="none" stroke="rgb(0,0,0)" class="dcg-svg-minor-gridline" paint-order="fill stroke markers" d=" M 442.5 0 L 442.5 260" stroke-opacity="0.12" stroke-miterlimit="10" stroke-dasharray=""/><path fill="none" stroke="rgb(0,0,0)" class="dcg-svg-minor-gridline" paint-order="fill stroke markers" d=" M 468.5 0 L 468.5 260" stroke-opacity="0.12" stroke-miterlimit="10" stroke-dasharray=""/><path fill="none" stroke="rgb(0,0,0)" class="dcg-svg-minor-gridline" paint-order="fill stroke markers" d=" M 494.5 0 L 494.5 260" stroke-opacity="0.12" stroke-miterlimit="10" stroke-dasharray=""/><path fill="none" stroke="rgb(0,0,0)" class="dcg-svg-minor-gridline" paint-order="fill stroke markers" d=" M 0 234.5 L 520 234.5" stroke-opacity="0.12" stroke-miterlimit="10" stroke-dasharray=""/><path fill="none" stroke="rgb(0,0,0)" class="dcg-svg-minor-gridline" paint-order="fill stroke markers" d=" M 0 208.5 L 520 208.5" stroke-opacity="0.12" stroke-miterlimit="10" stroke-dasharray=""/><path fill="none" stroke="rgb(0,0,0)" class="dcg-svg-minor-gridline" paint-order="fill stroke markers" d=" M 0 182.5 L 520 182.5" stroke-opacity="0.12" stroke-miterlimit="10" stroke-dasharray=""/><path fill="none" stroke="rgb(0,0,0)" class="dcg-svg-minor-gridline" paint-order="fill stroke markers" d=" M 0 156.5 L 520 156.5" stroke-opacity="0.12" stroke-miterlimit="10" stroke-dasharray=""/><path fill="none" stroke="rgb(0,0,0)" class="dcg-svg-minor-gridline" paint-order="fill stroke markers" d=" M 0 104.5 L 520 104.5" stroke-opacity="0.12" stroke-miterlimit="10" stroke-dasharray=""/><path fill="none" stroke="rgb(0,0,0)" class="dcg-svg-minor-gridline" paint-order="fill stroke markers" d=" M 0 78.5 L 520 78.5" stroke-opacity="0.12" stroke-miterlimit="10" stroke-dasharray=""/><path fill="none" stroke="rgb(0,0,0)" class="dcg-svg-minor-gridline" paint-order="fill stroke markers" d=" M 0 52.5 L 520 52.5" stroke-opacity="0.12" stroke-miterlimit="10" stroke-dasharray=""/><path fill="none" stroke="rgb(0,0,0)" class="dcg-svg-minor-gridline" paint-order="fill stroke markers" d=" M 0 26.5 L 520 26.5" stroke-opacity="0.12" stroke-miterlimit="10" stroke-dasharray=""/><path fill="none" stroke="rgb(0,0,0)" class="dcg-svg-major-gridline" paint-order="fill stroke markers" d=" M 130.5 0 L 130.5 260" stroke-opacity="0.31818181818181823" stroke-miterlimit="10" stroke-dasharray=""/><path fill="none" stroke="rgb(0,0,0)" class="dcg-svg-major-gridline" paint-order="fill stroke markers" d=" M 390.5 0 L 390.5 260" stroke-opacity="0.31818181818181823" stroke-miterlimit="10" stroke-dasharray=""/></g></g><g id="axis-db2b7712"><g id="yaxis-db2b7712"><title>Y axis</title><g><path fill="none" stroke="rgb(0,0,0)" class="dcg-svg-axis-line" paint-order="fill stroke markers" d=" M 259.75 0 L 259.75 260" stroke-opacity="0.9" stroke-miterlimit="10" stroke-width="1.5" stroke-dasharray=""/></g></g><g id="xaxis-db2b7712"><title>X axis</title><g><path fill="none" stroke="rgb(0,0,0)" class="dcg-svg-axis-line" paint-order="fill stroke markers" d=" M 0 129.75 L 520 129.75" stroke-opacity="0.9" stroke-miterlimit="10" stroke-width="1.5" stroke-dasharray=""/></g></g><g><g class="dcg-svg-axis-value"><text fill="none" stroke="#ffffff" font-family="Arial" font-size="14px" font-style="normal" font-weight="normal" text-decoration="normal" x="251.10693359375" y="145.808" text-anchor="middle" stroke-miterlimit="2" stroke-width="3" stroke-dasharray="">0</text><text fill="#000000" stroke="none" font-family="Arial" font-size="14px" font-style="normal" font-weight="normal" text-decoration="normal" x="251.10693359375" y="145.808" text-anchor="middle">0</text></g><g class="dcg-svg-axis-value dcg-svg-offcenter-axis-value"><text fill="none" stroke="#ffffff" font-family="Arial" font-size="14px" font-style="normal" font-weight="normal" text-decoration="normal" x="13.1171875" y="145.808" text-anchor="middle" stroke-miterlimit="2" stroke-width="3" stroke-dasharray="">-10</text><text fill="#000000" stroke="none" font-family="Arial" font-size="14px" font-style="normal" font-weight="normal" text-decoration="normal" x="13.1171875" y="145.808" text-anchor="middle">-10</text></g><g class="dcg-svg-axis-value"><text fill="none" stroke="#ffffff" font-family="Arial" font-size="14px" font-style="normal" font-weight="normal" text-decoration="normal" x="127.6689453125" y="145.808" text-anchor="middle" stroke-miterlimit="2" stroke-width="3" stroke-dasharray="">-5</text><text fill="#000000" stroke="none" font-family="Arial" font-size="14px" font-style="normal" font-weight="normal" text-decoration="normal" x="127.6689453125" y="145.808" text-anchor="middle">-5</text></g><g class="dcg-svg-axis-value"><text fill="none" stroke="#ffffff" font-family="Arial" font-size="14px" font-style="normal" font-weight="normal" text-decoration="normal" x="390" y="145.808" text-anchor="middle" stroke-miterlimit="2" stroke-width="3" stroke-dasharray="">5</text><text fill="#000000" stroke="none" font-family="Arial" font-size="14px" font-style="normal" font-weight="normal" text-decoration="normal" x="390" y="145.808" text-anchor="middle">5</text></g><g class="dcg-svg-axis-value dcg-svg-offcenter-axis-value"><text fill="none" stroke="#ffffff" font-family="Arial" font-size="14px" font-style="normal" font-weight="normal" text-decoration="normal" x="509.2138671875" y="145.808" text-anchor="middle" stroke-miterlimit="2" stroke-width="3" stroke-dasharray="">10</text><text fill="#000000" stroke="none" font-family="Arial" font-size="14px" font-style="normal" font-weight="normal" text-decoration="normal" x="509.2138671875" y="145.808" text-anchor="middle">10</text></g><g class="dcg-svg-axis-value dcg-svg-offcenter-axis-value"><text fill="none" stroke="#ffffff" font-family="Arial" font-size="14px" font-style="normal" font-weight="normal" text-decoration="normal" x="248.77587890625" y="253.808" text-anchor="middle" stroke-miterlimit="2" stroke-width="3" stroke-dasharray="">-5</text><text fill="#000000" stroke="none" font-family="Arial" font-size="14px" font-style="normal" font-weight="normal" text-decoration="normal" x="248.77587890625" y="253.808" text-anchor="middle">-5</text></g><g class="dcg-svg-axis-value dcg-svg-offcenter-axis-value"><text fill="none" stroke="#ffffff" font-family="Arial" font-size="14px" font-style="normal" font-weight="normal" text-decoration="normal" x="251.10693359375" y="13.808" text-anchor="middle" stroke-miterlimit="2" stroke-width="3" stroke-dasharray="">5</text><text fill="#000000" stroke="none" font-family="Arial" font-size="14px" font-style="normal" font-weight="normal" text-decoration="normal" x="251.10693359375" y="13.808" text-anchor="middle">5</text></g></g></g></g><g id="expressions-db2b7712"><g id="sketch-db2b7712"><title>Expression 1</title><path fill="#2d70b3" stroke="none" paint-order="stroke fill markers" d="" fill-opacity="0.4"/><g><path fill="none" stroke="#2d70b3" class="dcg-svg-curve" paint-order="fill stroke markers" d=" M 0 143.16550666885374 L 0 143.16550666885374 L 0.634765625 152.13641985782706 L 1.015625 155.1254221448656 L 1.26953125 155.94398584418113 L 1.3553132856948196 156 L 1.5234375 155.78526810536232 L 1.77734375 154.65808784061835 L 2.158203125 151.25956691413555 L 2.666015625 144.0383289215745 L 3.80859375 122.37605776445078 L 4.5703125 110.05890615545528 L 5.078125 105.26580457655137 L 5.33203125 104.19299465825014 L 5.493895295782039 104 L 5.5859375 104.0623949618768 L 5.83984375 104.87596103536642 L 6.220703125 107.7867700330978 L 6.728515625 114.40187596588416 L 7.6171875 130.55437988378304 L 8.6328125 148.2512212082357 L 9.140625 153.78921839770823 L 9.521484375 155.77069741926638 L 9.775390625 155.96046140607396 L 10.029296875 155.23594525816597 L 10.41015625 152.5051551097175 L 10.91796875 146.18045926582536 L 11.806640625 130.46771541938423 L 12.94921875 111.00664591580005 L 13.45703125 105.86373732365958 L 13.837890625 104.13871419939123 L 13.979829964978364 104 L 14.091796875 104.08625669454742 L 14.345703125 104.91517045929639 L 14.7265625 107.73574233029343 L 15.234375 114.05940441536656 L 16.123046875 129.5422344846204 L 17.265625 148.73916907265587 L 17.7734375 153.9310764949594 L 18.154296875 155.78429974232506 L 18.408203125 155.96393211987294 L 18.662109375 155.29100404599447 L 19.04296875 152.74454559038912 L 19.55078125 146.81656731724993 L 20.3125 134.2025792994479 L 21.708984375 110.90068803705776 L 22.216796875 105.93370357882323 L 22.59765625 104.18818383691327 L 22.8515625 104.04350016007781 L 23.10546875 104.72011699612628 L 23.486328125 107.21564002254391 L 23.994140625 112.9890228394945 L 24.755859375 125.28873887749683 L 26.15234375 148.41132765606324 L 26.66015625 153.60047889797886 L 27.041015625 155.62393896963363 L 27.288216536891156 156 L 27.421875 155.89005288714637 L 27.67578125 155.08137671241823 L 28.056640625 152.45681957297992 L 28.564453125 146.64046350584195 L 29.453125 132.26427140051675 L 30.72265625 111.78224318101414 L 31.23046875 106.59240694141617 L 31.611328125 104.48170286128644 L 31.896827008578953 104 L 31.9921875 104.05379948951193 L 32.24609375 104.7178162458948 L 32.626953125 107.08319339241744 L 33.134765625 112.5141397620416 L 33.896484375 124.14298957461463 L 35.419921875 148.44067650674967 L 35.927734375 153.46424486498452 L 36.30859375 155.51699616261106 L 36.600490387898446 156 L 36.689453125 155.9550848751125 L 36.943359375 155.3362455775676 L 37.32421875 153.09097473587275 L 37.83203125 147.8942123608888 L 38.59375 136.66494900793657 L 40.244140625 111.02896057024547 L 40.751953125 106.2937125594249 L 41.1328125 104.40330458929611 L 41.40534256048079 104 L 41.513671875 104.06375117866854 L 41.767578125 104.70903453415627 L 42.1484375 106.93530828737221 L 42.65625 112.01070019159289 L 43.41796875 122.93569623010798 L 45.1953125 149.68764116216695 L 45.703125 154.0534364842514 L 46.083984375 155.7151652425794 L 46.31820941579028 156 L 46.46484375 155.88844027694012 L 46.71875 155.17242739794904 L 47.099609375 152.90269001235487 L 47.607421875 147.8784176557284 L 48.369140625 137.19601480058444 L 50.146484375 110.85351372968867 L 50.654296875 106.34692775756375 L 51.03515625 104.48013460844872 L 51.34672062618483 104 L 51.416015625 104.02377681708252 L 51.669921875 104.51498495685448 L 52.05078125 106.40929255920702 L 52.55859375 110.90425414786539 L 53.3203125 120.88405982179688 L 55.3515625 150.00165842226366 L 55.859375 154.0872083218911 L 56.240234375 155.6836050713643 L 56.49944874860742 156 L 56.62109375 155.93034119782655 L 56.875 155.33941294836467 L 57.255859375 153.3597233997535 L 57.763671875 148.86739843050995 L 58.525390625 139.08861800378025 L 60.556640625 110.50833440720646 L 61.19140625 105.56971173294036 L 61.572265625 104.20434045455598 L 61.78608089795017 104 L 62.080078125 104.38489818715905 L 62.4609375 106.0029258119562 L 62.96875 109.97221195804731 L 63.603515625 117.31008825049295 L 66.396484375 153.1884318474499 L 66.904296875 155.58522505030436 L 67.21763282922566 156 L 67.28515625 155.98072707414747 L 67.5390625 155.5650119013555 L 67.919921875 153.94931272380276 L 68.427734375 150.08496442745212 L 69.0625 142.9997787928902 L 70.458984375 123.2554821543328 L 71.474609375 110.80652161355661 L 72.109375 105.92209960523121 L 72.490234375 104.3990391934439 L 72.80671898238293 104 L 72.998046875 104.14567903682736 L 73.251953125 104.78458030961508 L 73.6328125 106.66241046438495 L 74.140625 110.73194162304905 L 74.90234375 119.47708577073938 L 77.44140625 151.3620084800404 L 77.94921875 154.5745909468524 L 78.330078125 155.78815849014774 L 78.56789748141634 156 L 78.837890625 155.72783140798418 L 79.091796875 154.98158856558953 L 79.47265625 153.0082516907428 L 79.98046875 148.92988822024762 L 80.7421875 140.37984870708394 L 83.28125 109.2142855131319 L 83.7890625 105.84792485383792 L 84.169921875 104.4245182076248 L 84.423828125 104.03116332817535 L 84.5181172015551 104 L 84.8046875 104.28676583155085 L 85.185546875 105.53956775230387 L 85.693359375 108.66112382620678 L 86.328125 114.55796760077939 L 87.34375 127.00100599382625 L 88.994140625 147.2106655331795 L 89.62890625 152.4745767727385 L 90.13671875 155.0494089544593 L 90.517578125 155.91673131399935 L 90.771484375 155.97108544088394 L 91.025390625 155.6065249773725 L 91.40625 154.2929515519692 L 91.9140625 151.20160988069335 L 92.548828125 145.49432211830458 L 93.564453125 133.54564889861484 L 95.21484375 113.81675279718915 L 95.9765625 107.54662991892718 L 96.484375 105.0298676016419 L 96.865234375 104.12567893738073 L 97.06916214898496 104 L 97.373046875 104.2779384336531 L 97.75390625 105.39770641889825 L 98.26171875 108.14939324433858 L 98.896484375 113.35224914065503 L 99.78515625 123.0028574249775 L 101.943359375 147.60118221159058 L 102.705078125 153.15929187327401 L 103.212890625 155.28002218016894 L 103.59375 155.95410061310673 L 103.84765625 155.9563274434795 L 104.1015625 155.60209626068266 L 104.482421875 154.4180914387871 L 104.990234375 151.69234808814787 L 105.625 146.67770416312322 L 106.640625 136.02978635211326 L 108.798828125 112.5012426297707 L 109.560546875 107.09136120209679 L 110.068359375 104.92106357602745 L 110.44921875 104.12536821413211 L 110.6714205010295 104 L 110.95703125 104.20631873013969 L 111.337890625 105.11401418173801 L 111.845703125 107.39494768740326 L 112.48046875 111.78141246064962 L 113.369140625 120.12212443481977 L 116.2890625 149.77831409193362 L 116.923828125 153.55550578611312 L 117.431640625 155.35890758823786 L 117.8125 155.94988866300116 L 118.06640625 155.97412224561714 L 118.3203125 155.70358152621202 L 118.701171875 154.75610231610074 L 119.208984375 152.5311624518195 L 119.84375 148.36833012246075 L 120.732421875 140.5346038393605 L 123.90625 110.03300298088362 L 124.541015625 106.47817816966727 L 125.048828125 104.72692462255344 L 125.4296875 104.09425291527606 L 125.64378917397622 104 L 125.9375 104.17661319547462 L 126.318359375 104.92449769319961 L 126.826171875 106.79493818762778 L 127.4609375 110.4091976494006 L 128.349609375 117.39703776033525 L 129.873046875 132.17856346879216 L 131.396484375 146.08372512444046 L 132.28515625 151.93318291149654 L 132.919921875 154.61707829679955 L 133.427734375 155.75611289827444 L 133.79431568387957 156 L 134.0625 155.87002823599627 L 134.443359375 155.24410125574124 L 134.951171875 153.6333445648137 L 135.5859375 150.47227098116142 L 136.34765625 145.25571763800937 L 137.490234375 135.44501630177413 L 139.90234375 114.16828412880949 L 140.791015625 108.56353327721715 L 141.42578125 105.83774084029874 L 141.93359375 104.52070293726922 L 142.314453125 104.05946800701503 L 142.50890195477126 104 L 142.822265625 104.15368439205932 L 143.203125 104.7489483653264 L 143.7109375 106.21430188881695 L 144.345703125 109.04492840264916 L 145.107421875 113.70153397050312 L 146.25 122.53861101596078 L 149.296875 147.155504545781 L 150.185546875 152.0242877335964 L 150.8203125 154.38171281626188 L 151.328125 155.5270487880544 L 151.708984375 155.9385059962624 L 151.92390881398953 156 L 152.216796875 155.88637386820588 L 152.59765625 155.40271448566358 L 153.10546875 154.1861383248193 L 153.740234375 151.806363835461 L 154.501953125 147.84199190593696 L 155.517578125 141.0936765994836 L 157.67578125 124.34039042559111 L 159.072265625 114.48724875710161 L 160.087890625 108.98731437196417 L 160.849609375 106.10781219797855 L 161.484375 104.62568899953615 L 161.9921875 104.0677354305284 L 162.373046875 104.01879148374955 L 162.75390625 104.28351902457075 L 163.26171875 105.11209819863711 L 163.896484375 106.87380239022286 L 164.658203125 109.95315291398073 L 165.546875 114.66215800307435 L 166.81640625 122.85040787364142 L 170.244140625 145.71500591594977 L 171.259765625 150.64169448095674 L 172.1484375 153.72509405096608 L 172.783203125 155.14579079515332 L 173.291015625 155.79260813561683 L 173.78510442856495 156 L 174.1796875 155.86902254057946 L 174.6875 155.32140199700834 L 175.1953125 154.36281906512497 L 175.830078125 152.6220682143652 L 176.71875 149.27775392544845 L 177.734375 144.38997582260092 L 179.2578125 135.65260883005644 L 182.55859375 116.33877103739862 L 183.828125 110.60964716600603 L 184.84375 107.20446779935875 L 185.60546875 105.43012994920073 L 186.240234375 104.4882356024831 L 186.748046875 104.0909431822246 L 187.1351141868269 104 L 187.509765625 104.0843199919219 L 188.017578125 104.46341532586618 L 188.65234375 105.35009316476128 L 189.4140625 106.9815649011846 L 190.302734375 109.58873757629901 L 191.4453125 113.8727029311392 L 192.96875 120.7547095927697 L 198.046875 144.79615082760915 L 199.31640625 149.28595915213364 L 200.458984375 152.40810283080503 L 201.34765625 154.1787664585884 L 202.109375 155.22236175594475 L 202.87109375 155.82650793958706 L 203.55910214445512 156 L 204.013671875 155.92573449859066 L 204.521484375 155.67066565847912 L 205.283203125 154.96212830366176 L 206.044921875 153.88688442007006 L 206.93359375 152.21111757395224 L 208.076171875 149.47650914330993 L 209.47265625 145.42372488294023 L 211.376953125 139.05552483103693 L 216.962890625 119.83532423227803 L 218.740234375 114.82341318776898 L 220.263671875 111.2434582327452 L 221.66015625 108.5953922600161 L 222.9296875 106.72641419388654 L 224.072265625 105.47690494636248 L 225.21484375 104.62188085857076 L 226.23046875 104.17520823451008 L 227.119140625 104.01058770512257 L 228.0078125 104.04184572858642 L 228.896484375 104.25325629468453 L 229.912109375 104.69432732181113 L 231.181640625 105.50794300558735 L 232.705078125 106.80401223769331 L 234.609375 108.79577028043911 L 237.275390625 112.01436185371641 L 244.51171875 120.96600966927721 L 247.05078125 123.61661573454421 L 249.3359375 125.64666983793795 L 251.494140625 127.22263075941713 L 253.525390625 128.38870370635007 L 255.4296875 129.19675258699766 L 257.080078125 129.67208778002964 L 258.603515625 129.92499361905416 L 260.126953125 129.9993801116944 L 261.650390625 129.89523915980953 L 263.173828125 129.61258414659807 L 264.697265625 129.15152358051952 L 266.34765625 128.45119669187795 L 268.251953125 127.38539883376696 L 270.283203125 125.9494789593586 L 272.44140625 124.09847991436175 L 274.853515625 121.66419467148336 L 277.646484375 118.4422424516163 L 281.8359375 113.14443776712474 L 285.390625 108.79577028043911 L 287.421875 106.68454877414592 L 289.072265625 105.32401627188398 L 290.46875 104.50546220970607 L 291.611328125 104.11133766806529 L 292.5 104.00089477236553 L 293.388671875 104.07970386292057 L 294.27734375 104.36290514447094 L 295.166015625 104.86429868090822 L 296.181640625 105.7198293546995 L 297.32421875 107.05932736491474 L 298.466796875 108.81050734735463 L 299.736328125 111.2434582327452 L 301.1328125 114.49858592791301 L 302.65625 118.6922478497544 L 304.560546875 124.726298207417 L 307.48046875 134.99484263524633 L 310.400390625 145.02424526599785 L 312.05078125 149.80909864190411 L 313.3203125 152.7333053468726 L 314.3359375 154.46847101533413 L 315.224609375 155.4770022261475 L 315.986328125 155.92573449859066 L 316.4408978555449 156 L 317.001953125 155.88484185444116 L 317.63671875 155.47239512646854 L 318.271484375 154.75561155040808 L 319.033203125 153.4922561183941 L 319.921875 151.4705297820585 L 320.9375 148.4695738558633 L 322.080078125 144.29418362047312 L 323.603515625 137.65508320249126 L 326.142578125 125.12867612613272 L 328.30078125 114.94185048921274 L 329.5703125 110.0168965075945 L 330.5859375 106.9815649011846 L 331.34765625 105.35009316476128 L 331.982421875 104.46341532586618 L 332.490234375 104.0843199919219 L 332.8648858131731 104 L 333.251953125 104.0909431822246 L 333.759765625 104.4882356024831 L 334.267578125 105.20230848550362 L 334.90234375 106.5362552812445 L 335.6640625 108.76430689594596 L 336.552734375 112.16992854167363 L 337.6953125 117.65024938983092 L 339.21875 126.33762267553783 L 342.646484375 146.336996538206 L 343.7890625 151.30994012615423 L 344.677734375 154.06151030717962 L 345.3125 155.32140199700834 L 345.8203125 155.86902254057946 L 346.214895571435 156 L 346.58203125 155.88559199562485 L 347.08984375 155.34865092654272 L 347.59765625 154.37397690459932 L 348.232421875 152.55503722431695 L 348.994140625 149.5411440558333 L 350.009765625 144.28169848037916 L 351.279296875 136.20703254325863 L 354.9609375 111.84002295723265 L 355.849609375 107.78979729471655 L 356.611328125 105.40160480852187 L 357.119140625 104.44039046869575 L 357.5 104.07244331105963 L 357.880859375 104.01629942608193 L 358.26171875 104.27630576127181 L 358.642578125 104.85295739777429 L 359.150390625 106.10781219797855 L 359.78515625 108.42796281981225 L 360.546875 112.22373741069536 L 361.5625 118.71023315903265 L 363.212890625 131.31934167745362 L 365.1171875 145.4776763988257 L 366.1328125 151.22439540204525 L 366.89453125 154.1861383248193 L 367.40234375 155.40271448566358 L 367.783203125 155.88637386820588 L 368.1640625 155.98970619015233 L 368.41796875 155.84431411665304 L 368.798828125 155.30420309116082 L 369.306640625 153.99079752770223 L 369.94140625 151.435433126452 L 370.703125 147.155504545781 L 371.71875 139.79877293517836 L 375.654296875 109.04492840264916 L 376.416015625 105.7783054991227 L 376.923828125 104.50141707387493 L 377.3046875 104.05447782838037 L 377.55859375 104.00715981287595 L 377.8125 104.16253657828865 L 378.193359375 104.77542308123898 L 378.701171875 106.28942268390048 L 379.3359375 109.24395395526896 L 380.09765625 114.16828412880949 L 381.11328125 122.50815254513532 L 384.16015625 148.88886217969718 L 384.921875 153.09870286180174 L 385.556640625 155.24410125574124 L 385.9375 155.87002823599627 L 386.2056843161204 156 L 386.4453125 155.89579765831192 L 386.826171875 155.30190676014635 L 387.20703125 154.1896176161941 L 387.71484375 151.93318291149654 L 388.349609375 147.97738668172315 L 389.23828125 140.7168267570868 L 391.015625 123.33074002638098 L 392.28515625 112.2035276123618 L 393.046875 107.41000303416565 L 393.681640625 104.92449769319961 L 394.0625 104.17661319547462 L 394.3562108260238 104 L 394.5703125 104.09425291527606 L 394.82421875 104.45017986445023 L 395.205078125 105.47534616886365 L 395.712890625 107.72645898015898 L 396.34765625 111.83855802608056 L 397.236328125 119.54875005384477 L 400.6640625 151.8141973314736 L 401.298828125 154.75610231610074 L 401.6796875 155.70358152621202 L 401.93359375 155.97412224561714 L 402.1875 155.94988866300116 L 402.44140625 155.62957567971094 L 402.822265625 154.5994488278152 L 403.330078125 152.23762975210667 L 403.96484375 147.84298159956793 L 404.853515625 139.5633473936848 L 407.900390625 108.96003843831488 L 408.53515625 105.57277707118001 L 409.04296875 104.20631873013969 L 409.3285794989705 104 L 409.55078125 104.12536821413211 L 409.8046875 104.57488816406862 L 410.185546875 105.8517794120854 L 410.693359375 108.62553657634592 L 411.328125 113.62144614991823 L 412.34375 124.19305576096637 L 414.501953125 147.80603316680484 L 415.263671875 153.21181328314614 L 415.771484375 155.29317933892085 L 416.15234375 155.9563274434795 L 416.40625 155.95410061310673 L 416.66015625 155.5937088808853 L 417.041015625 154.39002906091886 L 417.548828125 151.60334584323454 L 418.18359375 146.43431126589377 L 419.072265625 136.86433490264739 L 421.357421875 111.06125892882046 L 421.9921875 106.6015926880764 L 422.5 104.55723403403803 L 422.93083785101504 104 L 423.134765625 104.12567893738073 L 423.388671875 104.63238816675349 L 423.76953125 106.10669482887975 L 424.27734375 109.3294996404896 L 424.912109375 115.10694599121305 L 425.927734375 127.0714891350367 L 427.578125 146.77646525163883 L 428.33984375 152.92921239656366 L 428.84765625 155.26931243623667 L 429.228515625 155.97108544088394 L 429.3226935666346 156 L 429.609375 155.73188162482376 L 429.990234375 154.55409611155292 L 430.498046875 151.59226501212697 L 431.1328125 145.92381556608896 L 432.021484375 135.37036046596697 L 433.92578125 111.96618732372485 L 434.560546875 106.90318243487943 L 435.068359375 104.5955056351089 L 435.322265625 104.08914362828881 L 435.576171875 104.03116332817535 L 435.830078125 104.4245182076248 L 436.2109375 105.84792485383792 L 436.71875 109.2142855131319 L 437.353515625 115.45035139936259 L 438.369140625 128.45478876909826 L 439.892578125 147.68289361609686 L 440.52734375 153.0082516907428 L 441.03515625 155.41330706535146 L 441.2890625 155.92345837657524 L 441.54296875 155.9539453088681 L 441.796875 155.5021892090857 L 442.177734375 153.93680221904313 L 442.685546875 150.29594790397226 L 443.3203125 143.633424220838 L 444.462890625 128.19023856576192 L 445.732421875 111.99608036849979 L 446.3671875 106.66241046438495 L 446.875 104.402207619243 L 447.12890625 104.01651682098073 L 447.1932810176171 104 L 447.509765625 104.3990391934439 L 447.890625 105.92209960523121 L 448.3984375 109.61411308583544 L 449.033203125 116.48132566758646 L 450.17578125 132.4442697924691 L 451.318359375 147.5113630120328 L 451.953125 153.15775795328236 L 452.4609375 155.5650119013555 L 452.71484375 155.98072707414747 L 452.78236717077436 156 L 453.095703125 155.58522505030436 L 453.4765625 153.98131409789025 L 453.984375 150.09012864609437 L 454.619140625 142.87779136900636 L 455.888671875 124.44799340651271 L 456.904296875 111.25246702962886 L 457.5390625 106.0029258119562 L 457.919921875 104.38489818715905 L 458.21391910204983 104 L 458.30078125 104.0337392733534 L 458.5546875 104.51831637075259 L 458.935546875 106.30181110768612 L 459.443359375 110.50833440720646 L 460.078125 118.16875598545012 L 462.6171875 152.42384597483073 L 463.125 155.33941294836467 L 463.37890625 155.93034119782655 L 463.5005512513926 156 L 463.759765625 155.6836050713643 L 464.013671875 154.76601800090148 L 464.39453125 152.30813314901147 L 464.90234375 147.2202711999263 L 465.6640625 136.7162797706462 L 467.44140625 110.90425414786539 L 468.076171875 105.62811938130275 L 468.45703125 104.19038472704852 L 468.65327937381517 104 L 468.837890625 104.16880696906638 L 469.091796875 104.94882729917424 L 469.47265625 107.26825327754544 L 469.98046875 112.29845169230364 L 470.7421875 122.94423214914576 L 472.51953125 149.32633075557806 L 473.02734375 153.81285507376344 L 473.408203125 155.61256435913734 L 473.6817905842097 156 L 473.7890625 155.9402044984999 L 474.04296875 155.32402472792037 L 474.423828125 153.1816386929119 L 474.931640625 148.2545008872354 L 475.693359375 137.51214298719714 L 477.470703125 110.53946248400382 L 477.978515625 106.03136251794476 L 478.359375 104.30009811273854 L 478.5946574395192 104 L 478.740234375 104.1152238348035 L 478.994140625 104.86448582901386 L 479.375 107.25265683217788 L 479.8828125 112.5598457032544 L 480.64453125 123.84837492770099 L 482.294921875 149.40455030959515 L 482.802734375 154.00881236085428 L 483.18359375 155.73594939973054 L 483.39950961210155 156 L 483.564453125 155.84553326659545 L 483.818359375 155.00819983199543 L 484.19921875 152.43942099015834 L 484.70703125 146.83039784554143 L 485.46875 135.08403033774172 L 486.9921875 110.93954020693293 L 487.5 106.11893702765828 L 487.880859375 104.29178795526626 L 488.10317299142105 104 L 488.26171875 104.14878838068238 L 488.515625 105.00252100327748 L 488.896484375 107.6503503002061 L 489.404296875 113.44574963666024 L 490.166015625 125.54057836527035 L 491.5625 148.3124665019601 L 492.0703125 153.5119937680994 L 492.451171875 155.58305049917047 L 492.7117834631089 156 L 492.83203125 155.91090013173908 L 493.0859375 155.14071206012062 L 493.466796875 152.55467315140788 L 493.974609375 146.72949023845658 L 494.736328125 134.42029872400104 L 496.1328125 111.3146719970133 L 496.640625 106.19405134562416 L 497.021484375 104.28004398627932 L 497.230880781587 104 L 497.40234375 104.18818383691327 L 497.65625 105.15220255722005 L 498.037109375 108.06615790355809 L 498.544921875 114.3488899595751 L 499.43359375 129.54220453176322 L 500.576171875 148.53688063901654 L 501.083984375 153.79023360036007 L 501.46484375 155.7331410516592 L 501.6654866343853 156 L 501.845703125 155.78429974232506 L 502.099609375 154.75534715039115 L 502.48046875 151.69539139814867 L 502.98828125 145.15823543669558 L 503.876953125 129.5422344846204 L 504.892578125 112.2405857020389 L 505.400390625 106.5946080172493 L 505.78125 104.39177880996793 L 506.02017003502164 104 L 506.162109375 104.13871419939123 L 506.416015625 105.07347056725789 L 506.796875 108.05787615177854 L 507.3046875 114.61103417316457 L 508.193359375 130.46771541938423 L 509.208984375 148.01138578964634 L 509.716796875 153.62537443605973 L 510.09765625 155.71146912355653 L 510.29910247119875 156 L 510.478515625 155.77069741926638 L 510.732421875 154.67058632720273 L 511.11328125 151.4012443684512 L 511.62109375 144.44889763725993 L 512.63671875 125.64324139442186 L 513.525390625 110.74786887805044 L 514.033203125 105.62800351014691 L 514.4140625 104.0623949618768 L 514.5061047042179 104 L 514.66796875 104.19299465825014 L 514.921875 105.26580457655137 L 515.302734375 108.55276557156496 L 515.810546875 115.61974460968679 L 516.826171875 134.76018617451479 L 517.71484375 149.71306399557153 L 518.22265625 154.65808784061835 L 518.4765625 155.78526810536232 L 518.6446867143052 156 L 518.73046875 155.94398584418113 L 518.984375 155.1254221448656 L 519.365234375 152.13641985782706 L 519.873046875 145.28828020598567 L 520 143.16550666885374" stroke-linecap="round" stroke-linejoin="round" stroke-miterlimit="10" stroke-width="2.5" stroke-dasharray=""/></g></g></g><g id="labels-db2b7712"/></g></svg>