<svg version="1.1" xmlns="http://www.w3.org/2000/svg" xmlns:xlink="http://www.w3.org/1999/xlink" width="520" height="260"><defs/><g transform="scale(1,1)"><g id="background-0094dee3"><rect fill="white" stroke="none" x="0" y="0" width="520" height="260" class="dcg-svg-background"/></g><g id="background-images-0094dee3"/><g id="graphpaper-0094dee3"><g id="grid-0094dee3"><g><path fill="none" stroke="rgb(0,0,0)" class="dcg-svg-minor-gridline" paint-order="fill stroke markers" d=" M 26.5 0 L 26.5 260" stroke-opacity="0.12" stroke-miterlimit="10" stroke-dasharray=""/><path fill="none" stroke="rgb(0,0,0)" class="dcg-svg-minor-gridline" paint-order="fill stroke markers" d=" M 52.5 0 L 52.5 260" stroke-opacity="0.12" stroke-miterlimit="10" stroke-dasharray=""/><path fill="none" stroke="rgb(0,0,0)" class="dcg-svg-minor-gridline" paint-order="fill stroke markers" d=" M 78.5 0 L 78.5 260" stroke-opacity="0.12" stroke-miterlimit="10" stroke-dasharray=""/><path fill="none" stroke="rgb(0,0,0)" class="dcg-svg-minor-gridline" paint-order="fill stroke markers" d=" M 104.5 0 L 104.5 260" stroke-opacity="0.12" stroke-miterlimit="10" stroke-dasharray=""/><path fill="none" stroke="rgb(0,0,0)" class="dcg-svg-minor-gridline" paint-order="fill stroke markers" d=" M 130.5 0 L 130.5 260" stroke-opacity="0.12" stroke-miterlimit="10" stroke-dasharray=""/><path fill="none" stroke="rgb(0,0,0)" class="dcg-svg-minor-gridline" paint-order="fill stroke markers" d=" M 156.5 0 L 156.5 260" stroke-opacity="0.12" stroke-miterlimit="10" stroke-dasharray=""/><path fill="none" stroke="rgb(0,0,0)" class="dcg-svg-minor-gridline" paint-order="fill stroke markers" d=" M 182.5 0 L 182.5 260" stroke-opacity="0.12" stroke-miterlimit="10" stroke-dasharray=""/><path fill="none" stroke="rgb(0,0,0)" class="dcg-svg-minor-gridline" paint-order="fill stroke markers" d=" M 208.5 0 L 208.5 260" stroke-opacity="0.12" stroke-miterlimit="10" stroke-dasharray=""/><path fill="none" stroke="rgb(0,0,0)" class="dcg-svg-minor-gridline" paint-order="fill stroke markers" d=" M 234.5 0 L 234.5 260" stroke-opacity="0.12" stroke-miterlimit="10" stroke-dasharray=""/><path fill="none" stroke="rgb(0,0,0)" class="dcg-svg-minor-gridline" paint-order="fill stroke markers" d=" M 286.5 0 L 286.5 260" stroke-opacity="0.12" stroke-miterlimit="10" stroke-dasharray=""/><path fill="none" stroke="rgb(0,0,0)" class="dcg-svg-minor-gridline" paint-order="fill stroke markers" d=" M 312.5 0 L 312.5 260" stroke-opacity="0.12" stroke-miterlimit="10" stroke-dasharray=""/><path fill="none" stroke="rgb(0,0,0)" class="dcg-svg-minor-gridline" paint-order="fill stroke markers" d=" M 338.5 0 L 338.5 260" stroke-opacity="0.12" stroke-miterlimit="10" stroke-dasharray=""/><path fill="none" stroke="rgb(0,0,0)" class="dcg-svg-minor-gridline" paint-order="fill stroke markers" d=" M 364.5 0 L 364.5 260" stroke-opacity="0.12" stroke-miterlimit="10" stroke-dasharray=""/><path fill="none" stroke="rgb(0,0,0)" class="dcg-svg-minor-gridline" paint-order="fill stroke markers" d=" M 390.5 0 L 390.5 260" stroke-opacity="0.12" stroke-miterlimit="10" stroke-dasharray=""/><path fill="none" stroke="rgb(0,0,0)" class="dcg-svg-minor-gridline" paint-order="fill stroke markers" d=" M 416.5 0 L 416.5 260" stroke-opacity="0.12" stroke-miterlimit="10" stroke-dasharray=""/><path fill="none" stroke="rgb(0,0,0)" class="dcg-svg-minor-gridline" paint-order="fill stroke markers" d=" M 442.5 0 L 442.5 260" stroke-opacity="0.12" stroke-miterlimit="10" stroke-dasharray=""/><path fill="none" stroke="rgb(0,0,0)" class="dcg-svg-minor-gridline" paint-order="fill stroke markers" d=" M 468.5 0 L 468.5 260" stroke-opacity="0.12" stroke-miterlimit="10" stroke-dasharray=""/><path fill="none" stroke="rgb(0,0,0)" class="dcg-svg-minor-gridline" paint-order="fill stroke markers" d=" M 494.5 0 L 494.5 260" stroke-opacity="0.12" stroke-miterlimit="10" stroke-dasharray=""/><path fill="none" stroke="rgb(0,0,0)" class="dcg-svg-minor-gridline" paint-order="fill stroke markers" d=" M 0 234.5 L 520 234.5" stroke-opacity="0.12" stroke-miterlimit="10" stroke-dasharray=""/><path fill="none" stroke="rgb(0,0,0)" class="dcg-svg-minor-gridline" paint-order="fill stroke markers" d=" M 0 208.5 L 520 208.5" stroke-opacity="0.12" stroke-miterlimit="10" stroke-dasharray=""/><path fill="none" stroke="rgb(0,0,0)" class="dcg-svg-minor-gridline" paint-order="fill stroke markers" d=" M 0 182.5 L 520 182.5" stroke-opacity="0.12" stroke-miterlimit="10" stroke-dasharray=""/><path fill="none" stroke="rgb(0,0,0)" class="dcg-svg-minor-gridline" paint-order="fill stroke markers" d=" M 0 156.5 L 520 156.5" stroke-opacity="0.12" stroke-miterlimit="10" stroke-dasharray=""/><path fill="none" stroke="rgb(0,0,0)" class="dcg-svg-minor-gridline" paint-order="fill stroke markers" d=" M 0 104.5 L 520 104.5" stroke-opacity="0.12" stroke-miterlimit="10" stroke-dasharray=""/><path fill="none" stroke="rgb(0,0,0)" class="dcg-svg-minor-gridline" paint-order="fill stroke markers" d=" M 0 78.5 L 520 78.5" stroke-opacity="0.12" stroke-miterlimit="10" stroke-dasharray=""/><path fill="none" stroke="rgb(0,0,0)" class="dcg-svg-minor-gridline" paint-order="fill stroke markers" d=" M 0 52.5 L 520 52.5" stroke-opacity="0.12" stroke-miterlimit="10" stroke-dasharray=""/><path fill="none" stroke="rgb(0,0,0)" class="dcg-svg-minor-gridline" paint-order="fill stroke markers" d=" M 0 26.5 L 520 26.5" stroke-opacity="0.12" stroke-miterlimit="10" stroke-dasharray=""/><path fill="none" stroke="rgb(0,0,0)" class="dcg-svg-major-gridline" paint-order="fill stroke markers" d=" M 130.5 0 L 130.5 260" stroke-opacity="0.31818181818181823" stroke-miterlimit="10" stroke-dasharray=""/><path fill="none" stroke="rgb(0,0,0)" class="dcg-svg-major-gridline" paint-order="fill stroke markers" d=" M 390.5 0 L 390.5 260" stroke-opacity="0.31818181818181823" stroke-miterlimit="10" stroke-dasharray=""/></g></g><g id="axis-0094dee3"><g id="yaxis-0094dee3"><title>Y axis</title><g><path fill="none" stroke="rgb(0,0,0)" class="dcg-svg-axis-line" paint-order="fill stroke markers" d=" M 259.75 0 L 259.75 260" stroke-opacity="0.9" stroke-miterlimit="10" stroke-width="1.5" stroke-dasharray=""/></g></g><g id="xaxis-0094dee3"><title>X axis</title><g><path fill="none" stroke="rgb(0,0,0)" class="dcg-svg-axis-line" paint-order="fill stroke markers" d=" M 0 129.75 L 520 129.75" stroke-opacity="0.9" stroke-miterlimit="10" stroke-width="1.5" stroke-dasharray=""/></g></g><g><g class="dcg-svg-axis-value"><text fill="none" stroke="#ffffff" font-family="Arial" font-size="14px" font-style="normal" font-weight="normal" text-decoration="normal" x="251.10693359375" y="145.808" text-anchor="middle" stroke-miterlimit="2" stroke-width="3" stroke-dasharray="">0</text><text fill="#000000" stroke="none" font-family="Arial" font-size="14px" font-style="normal" font-weight="normal" text-decoration="normal" x="251.10693359375" y="145.808" text-anchor="middle">0</text></g><g class="dcg-svg-axis-value dcg-svg-offcenter-axis-value"><text fill="none" stroke="#ffffff" font-family="Arial" font-size="14px" font-style="normal" font-weight="normal" text-decoration="normal" x="13.1171875" y="145.808" text-anchor="middle" stroke-miterlimit="2" stroke-width="3" stroke-dasharray="">-10</text><text fill="#000000" stroke="none" font-family="Arial" font-size="14px" font-style="normal" font-weight="normal" text-decoration="normal" x="13.1171875" y="145.808" text-anchor="middle">-10</text></g><g class="dcg-svg-axis-value"><text fill="none" stroke="#ffffff" font-family="Arial" font-size="14px" font-style="normal" font-weight="normal" text-decoration="normal" x="127.6689453125" y="145.808" text-anchor="middle" stroke-miterlimit="2" stroke-width="3" stroke-dasharray="">-5</text><text fill="#000000" stroke="none" font-family="Arial" font-size="14px" font-style="normal" font-weight="normal" text-decoration="normal" x="127.6689453125" y="145.808" text-anchor="middle">-5</text></g><g class="dcg-svg-axis-value"><text fill="none" stroke="#ffffff" font-family="Arial" font-size="14px" font-style="normal" font-weight="normal" text-decoration="normal" x="390" y="145.808" text-anchor="middle" stroke-miterlimit="2" stroke-width="3" stroke-dasharray="">5</text><text fill="#000000" stroke="none" font-family="Arial" font-size="14px" font-style="normal" font-weight="normal" text-decoration="normal" x="390" y="145.808" text-anchor="middle">5</text></g><g class="dcg-svg-axis-value dcg-svg-offcenter-axis-value"><text fill="none" stroke="#ffffff" font-family="Arial" font-size="14px" font-style="normal" font-weight="normal" text-decoration="normal" x="509.2138671875" y="145.808" text-anchor="middle" stroke-miterlimit="2" stroke-width="3" stroke-dasharray="">10</text><text fill="#000000" stroke="none" font-family="Arial" font-size="14px" font-style="normal" font-weight="normal" text-decoration="normal" x="509.2138671875" y="145.808" text-anchor="middle">10</text></g><g class="dcg-svg-axis-value dcg-svg-offcenter-axis-value"><text fill="none" stroke="#ffffff" font-family="Arial" font-size="14px" font-style="normal" font-weight="normal" text-decoration="normal" x="248.77587890625" y="253.808" text-anchor="middle" stroke-miterlimit="2" stroke-width="3" stroke-dasharray="">-5</text><text fill="#000000" stroke="none" font-family="Arial" font-size="14px" font-style="normal" font-weight="normal" text-decoration="normal" x="248.77587890625" y="253.808" text-anchor="middle">-5</text></g><g class="dcg-svg-axis-value dcg-svg-offcenter-axis-value"><text fill="none" stroke="#ffffff" font-family="Arial" font-size="14px" font-style="normal" font-weight="normal" text-decoration="normal" x="251.10693359375" y="13.808" text-anchor="middle" stroke-miterlimit="2" stroke-width="3" stroke-dasharray="">5</text><text fill="#000000" stroke="none" font-family="Arial" font-size="14px" font-style="normal" font-weight="normal" text-decoration="normal" x="251.10693359375" y="13.808" text-anchor="middle">5</text></g></g></g></g><g id="expressions-0094dee3"><g id="sketch-0094dee3"><title>Expression 1</title><path fill="#2d70b3" stroke="none" paint-order="stroke fill markers" d="" fill-opacity="0.4"/><g><path fill="none" stroke="#2d70b3" class="dcg-svg-curve" paint-order="fill stroke markers" d=" M 0 122.30506680357409 L 0 122.30506680357409 L 3.046875 124.91625790188326 L 5.5859375 126.76698629110217 L 7.87109375 128.11682104899978 L 9.90234375 129.03010800794337 L 11.6796875 129.58938246793315 L 13.330078125 129.8984830197056 L 14.853515625 129.9995978261186 L 16.376953125 129.92239453258802 L 17.900390625 129.66793215223063 L 19.55078125 129.19633888508912 L 21.328125 128.4692200715325 L 23.359375 127.37710285753666 L 25.64453125 125.84782755113828 L 28.310546875 123.72281971581728 L 31.484375 120.83388064387731 L 37.0703125 115.31060433406925 L 41.513671875 111.0879318450743 L 44.43359375 108.65774472829739 L 46.97265625 106.88138941230955 L 49.2578125 105.61001412493793 L 51.162109375 104.8173413505423 L 52.8125 104.34096523241868 L 54.3359375 104.08195901058093 L 55.79647751666346 104 L 57.255859375 104.08182921720709 L 58.779296875 104.34070177102532 L 60.4296875 104.8169372167605 L 62.20703125 105.54881425496471 L 64.23828125 106.64595240694926 L 66.5234375 108.18019924855544 L 69.189453125 110.30990617670793 L 72.36328125 113.20263854276949 L 78.076171875 118.85300931044794 L 82.392578125 122.94606531457868 L 85.3125 125.37151788271802 L 87.8515625 127.14255087378643 L 90.13671875 128.40835119705918 L 92.041015625 129.19593794248297 L 93.69140625 129.66767200610082 L 95.21484375 129.92226812168997 L 96.73828125 129.9996068844561 L 98.26171875 129.89862742302358 L 99.78515625 129.62071489299004 L 101.435546875 129.12445808346123 L 103.212890625 128.3720834021227 L 105.244140625 127.25334815988933 L 107.529296875 125.69776123464544 L 110.1953125 123.54795119019725 L 113.49609375 120.51705826930304 L 125.302734375 109.29658411506506 L 127.96875 107.32550481801086 L 130.380859375 105.88958506085602 L 132.412109375 104.97457737189706 L 134.189453125 104.4137021218262 L 135.83984375 104.10306292015173 L 137.36328125 104.0005051646367 L 138.88671875 104.0762640963204 L 140.41015625 104.3293005146881 L 142.060546875 104.79939242828434 L 143.837890625 105.5249719070721 L 145.869140625 106.61546419592202 L 148.154296875 108.14312973824843 L 150.8203125 110.26661477040322 L 153.994140625 113.15432240804958 L 159.580078125 118.67715174950459 L 164.0234375 122.90106839918232 L 166.943359375 125.33278136742081 L 169.482421875 127.11085372811544 L 171.767578125 128.38402865282083 L 173.671875 129.1783439109818 L 175.322265625 129.65621959193956 L 176.845703125 129.91665080582638 L 178.31859100666537 130 L 179.892578125 129.90483036713135 L 181.416015625 129.6327408578863 L 183.06640625 129.14260371127705 L 184.84375 128.39649008326637 L 186.875 127.28434613531961 L 189.16015625 125.73526435172438 L 191.826171875 123.59157065109048 L 195.126953125 120.56569607521206 L 207.060546875 109.23517306455929 L 209.7265625 107.2746372642552 L 212.138671875 105.85010778487116 L 214.169921875 104.9457604541945 L 215.947265625 104.39479829996307 L 217.59765625 104.09368407514272 L 219.1592955033327 104 L 220.64453125 104.08475103101264 L 222.16796875 104.34660700199065 L 223.818359375 104.8259818146489 L 225.595703125 105.56107550403337 L 227.626953125 106.66160631479039 L 229.912109375 108.19921023902273 L 232.578125 110.33208695064913 L 235.751953125 113.22737234166328 L 241.591796875 119.00412454352967 L 245.78125 122.96904453459996 L 248.701171875 125.39128100497744 L 251.240234375 127.15870331370722 L 253.525390625 128.42072445078185 L 255.4296875 129.20486525110144 L 257.080078125 129.67345538704112 L 258.603515625 129.92506561513275 L 260.126953125 129.99938011662076 L 261.650390625 129.89537950453013 L 263.173828125 129.6144903761902 L 264.82421875 129.11510652481655 L 266.6015625 128.35953398336972 L 268.6328125 127.23743411817888 L 270.91796875 125.67852918634767 L 273.583984375 123.52560346127348 L 276.884765625 120.49216158769177 L 288.69140625 109.27577357431036 L 291.357421875 107.30825444733419 L 293.76953125 105.87618346993075 L 295.80078125 104.96477957897537 L 297.578125 104.4072566316457 L 299.228515625 104.09983936551562 L 300.751953125 104.0003029528992 L 302.275390625 104.07908600126058 L 303.798828125 104.33510782766791 L 305.44921875 104.8083427793896 L 307.2265625 105.53714455718783 L 309.2578125 106.63103797660713 L 311.54296875 108.16207245371241 L 314.208984375 110.28874372696413 L 317.3828125 113.17902675004956 L 322.96875 118.70278624522149 L 327.412109375 122.92409351611175 L 330.33203125 125.35260915484042 L 332.87109375 127.12708454218506 L 335.15625 128.39649008326637 L 337.060546875 129.1873654995719 L 338.7109375 129.66210091245063 L 340.234375 129.91954821869635 L 341.7578125 129.99977548157585 L 343.28125 129.90168220757607 L 344.8046875 129.6266139618807 L 346.455078125 129.13334594735062 L 348.232421875 128.38402865282083 L 350.263671875 127.26851144300274 L 352.548828125 125.71609963549724 L 355.21484375 123.56927364095418 L 358.515625 120.54082668347131 L 370.44921875 109.21445304441215 L 373.115234375 107.25750037039333 L 375.400390625 105.90242734582556 L 377.431640625 104.98398067491416 L 379.208984375 104.41990536416951 L 380.859375 104.10618970484366 L 382.3828125 104.00074633000551 L 383.90625 104.07361633425215 L 385.4296875 104.32380014506803 L 387.080078125 104.79088808059478 L 388.857421875 105.51338692740713 L 390.76171875 106.5249434728468 L 393.046875 108.03272692834167 L 395.712890625 110.13735401011996 L 398.88671875 113.00972579885598 L 404.091796875 118.14783446053943 L 408.7890625 122.65148731362216 L 411.8359375 125.21581822959762 L 414.375 127.01484696996128 L 416.66015625 128.3100297528525 L 418.564453125 129.12445808346123 L 420.341796875 129.65055498834082 L 421.865234375 129.91383548016674 L 423.36281798666926 130 L 424.912109375 129.90778983866088 L 426.435546875 129.63854663461055 L 428.0859375 129.15140191508002 L 429.86328125 128.40835119705918 L 431.89453125 127.29943350910662 L 434.1796875 125.75353829821601 L 436.845703125 123.61284449396787 L 440.146484375 120.58943824235587 L 452.20703125 109.15340143739604 L 454.873046875 107.20708281201618 L 457.158203125 105.86282587556403 L 459.189453125 104.95502938736735 L 460.966796875 104.40086094787553 L 462.6171875 104.09666683317667 L 464.20352248333654 104 L 465.6640625 104.08195901058093 L 467.1875 104.34096523241868 L 468.837890625 104.8173413505423 L 470.615234375 105.54936254481781 L 472.646484375 106.6466527682747 L 474.931640625 108.18105012466091 L 477.59765625 110.31089922766827 L 480.771484375 113.20374620463909 L 486.484375 118.85415563565131 L 490.80078125 122.94709520225854 L 493.720703125 125.37240390629108 L 496.259765625 127.14327530193819 L 498.544921875 128.40890643868377 L 500.44921875 129.19633888508912 L 502.099609375 129.66793215223063 L 503.623046875 129.92239453258802 L 505.146484375 129.9995978261186 L 506.669921875 129.8984830197056 L 508.193359375 129.62043712550093 L 509.84375 129.12404019400762 L 511.62109375 128.37152219663417 L 513.65234375 127.2526361370023 L 515.9375 125.69690044563538 L 518.603515625 123.54695064823974 L 520 122.30506680357409" stroke-linecap="round" stroke-linejoin="round" stroke-miterlimit="10" stroke-width="2.5" stroke-dasharray=""/></g></g></g><g id="labels-0094dee3"/></g></svg>