<svg version="1.1" xmlns="http://www.w3.org/2000/svg" xmlns:xlink="http://www.w3.org/1999/xlink" width="520" height="260"><defs/><g transform="scale(1,1)"><g id="background-ca4f5cf5"><rect fill="white" stroke="none" x="0" y="0" width="520" height="260" class="dcg-svg-background"/></g><g id="background-images-ca4f5cf5"/><g id="graphpaper-ca4f5cf5"><g id="grid-ca4f5cf5"><g><path fill="none" stroke="rgb(0,0,0)" class="dcg-svg-minor-gridline" paint-order="fill stroke markers" d=" M 26.5 0 L 26.5 260" stroke-opacity="0.12" stroke-miterlimit="10" stroke-dasharray=""/><path fill="none" stroke="rgb(0,0,0)" class="dcg-svg-minor-gridline" paint-order="fill stroke markers" d=" M 52.5 0 L 52.5 260" stroke-opacity="0.12" stroke-miterlimit="10" stroke-dasharray=""/><path fill="none" stroke="rgb(0,0,0)" class="dcg-svg-minor-gridline" paint-order="fill stroke markers" d=" M 78.5 0 L 78.5 260" stroke-opacity="0.12" stroke-miterlimit="10" stroke-dasharray=""/><path fill="none" stroke="rgb(0,0,0)" class="dcg-svg-minor-gridline" paint-order="fill stroke markers" d=" M 104.5 0 L 104.5 260" stroke-opacity="0.12" stroke-miterlimit="10" stroke-dasharray=""/><path fill="none" stroke="rgb(0,0,0)" class="dcg-svg-minor-gridline" paint-order="fill stroke markers" d=" M 130.5 0 L 130.5 260" stroke-opacity="0.12" stroke-miterlimit="10" stroke-dasharray=""/><path fill="none" stroke="rgb(0,0,0)" class="dcg-svg-minor-gridline" paint-order="fill stroke markers" d=" M 156.5 0 L 156.5 260" stroke-opacity="0.12" stroke-miterlimit="10" stroke-dasharray=""/><path fill="none" stroke="rgb(0,0,0)" class="dcg-svg-minor-gridline" paint-order="fill stroke markers" d=" M 182.5 0 L 182.5 260" stroke-opacity="0.12" stroke-miterlimit="10" stroke-dasharray=""/><path fill="none" stroke="rgb(0,0,0)" class="dcg-svg-minor-gridline" paint-order="fill stroke markers" d=" M 208.5 0 L 208.5 260" stroke-opacity="0.12" stroke-miterlimit="10" stroke-dasharray=""/><path fill="none" stroke="rgb(0,0,0)" class="dcg-svg-minor-gridline" paint-order="fill stroke markers" d=" M 234.5 0 L 234.5 260" stroke-opacity="0.12" stroke-miterlimit="10" stroke-dasharray=""/><path fill="none" stroke="rgb(0,0,0)" class="dcg-svg-minor-gridline" paint-order="fill stroke markers" d=" M 286.5 0 L 286.5 260" stroke-opacity="0.12" stroke-miterlimit="10" stroke-dasharray=""/><path fill="none" stroke="rgb(0,0,0)" class="dcg-svg-minor-gridline" paint-order="fill stroke markers" d=" M 312.5 0 L 312.5 260" stroke-opacity="0.12" stroke-miterlimit="10" stroke-dasharray=""/><path fill="none" stroke="rgb(0,0,0)" class="dcg-svg-minor-gridline" paint-order="fill stroke markers" d=" M 338.5 0 L 338.5 260" stroke-opacity="0.12" stroke-miterlimit="10" stroke-dasharray=""/><path fill="none" stroke="rgb(0,0,0)" class="dcg-svg-minor-gridline" paint-order="fill stroke markers" d=" M 364.5 0 L 364.5 260" stroke-opacity="0.12" stroke-miterlimit="10" stroke-dasharray=""/><path fill="none" stroke="rgb(0,0,0)" class="dcg-svg-minor-gridline" paint-order="fill stroke markers" d=" M 390.5 0 L 390.5 260" stroke-opacity="0.12" stroke-miterlimit="10" stroke-dasharray=""/><path fill="none" stroke="rgb(0,0,0)" class="dcg-svg-minor-gridline" paint-order="fill stroke markers" d=" M 416.5 0 L 416.5 260" stroke-opacity="0.12" stroke-miterlimit="10" stroke-dasharray=""/><path fill="none" stroke="rgb(0,0,0)" class="dcg-svg-minor-gridline" paint-order="fill stroke markers" d=" M 442.5 0 L 442.5 260" stroke-opacity="0.12" stroke-miterlimit="10" stroke-dasharray=""/><path fill="none" stroke="rgb(0,0,0)" class="dcg-svg-minor-gridline" paint-order="fill stroke markers" d=" M 468.5 0 L 468.5 260" stroke-opacity="0.12" stroke-miterlimit="10" stroke-dasharray=""/><path fill="none" stroke="rgb(0,0,0)" class="dcg-svg-minor-gridline" paint-order="fill stroke markers" d=" M 494.5 0 L 494.5 260" stroke-opacity="0.12" stroke-miterlimit="10" stroke-dasharray=""/><path fill="none" stroke="rgb(0,0,0)" class="dcg-svg-minor-gridline" paint-order="fill stroke markers" d=" M 0 234.5 L 520 234.5" stroke-opacity="0.12" stroke-miterlimit="10" stroke-dasharray=""/><path fill="none" stroke="rgb(0,0,0)" class="dcg-svg-minor-gridline" paint-order="fill stroke markers" d=" M 0 208.5 L 520 208.5" stroke-opacity="0.12" stroke-miterlimit="10" stroke-dasharray=""/><path fill="none" stroke="rgb(0,0,0)" class="dcg-svg-minor-gridline" paint-order="fill stroke markers" d=" M 0 182.5 L 520 182.5" stroke-opacity="0.12" stroke-miterlimit="10" stroke-dasharray=""/><path fill="none" stroke="rgb(0,0,0)" class="dcg-svg-minor-gridline" paint-order="fill stroke markers" d=" M 0 156.5 L 520 156.5" stroke-opacity="0.12" stroke-miterlimit="10" stroke-dasharray=""/><path fill="none" stroke="rgb(0,0,0)" class="dcg-svg-minor-gridline" paint-order="fill stroke markers" d=" M 0 104.5 L 520 104.5" stroke-opacity="0.12" stroke-miterlimit="10" stroke-dasharray=""/><path fill="none" stroke="rgb(0,0,0)" class="dcg-svg-minor-gridline" paint-order="fill stroke markers" d=" M 0 78.5 L 520 78.5" stroke-opacity="0.12" stroke-miterlimit="10" stroke-dasharray=""/><path fill="none" stroke="rgb(0,0,0)" class="dcg-svg-minor-gridline" paint-order="fill stroke markers" d=" M 0 52.5 L 520 52.5" stroke-opacity="0.12" stroke-miterlimit="10" stroke-dasharray=""/><path fill="none" stroke="rgb(0,0,0)" class="dcg-svg-minor-gridline" paint-order="fill stroke markers" d=" M 0 26.5 L 520 26.5" stroke-opacity="0.12" stroke-miterlimit="10" stroke-dasharray=""/><path fill="none" stroke="rgb(0,0,0)" class="dcg-svg-major-gridline" paint-order="fill stroke markers" d=" M 130.5 0 L 130.5 260" stroke-opacity="0.31818181818181823" stroke-miterlimit="10" stroke-dasharray=""/><path fill="none" stroke="rgb(0,0,0)" class="dcg-svg-major-gridline" paint-order="fill stroke markers" d=" M 390.5 0 L 390.5 260" stroke-opacity="0.31818181818181823" stroke-miterlimit="10" stroke-dasharray=""/></g></g><g id="axis-ca4f5cf5"><g id="yaxis-ca4f5cf5"><title>Y axis</title><g><path fill="none" stroke="rgb(0,0,0)" class="dcg-svg-axis-line" paint-order="fill stroke markers" d=" M 259.75 0 L 259.75 260" stroke-opacity="0.9" stroke-miterlimit="10" stroke-width="1.5" stroke-dasharray=""/></g></g><g id="xaxis-ca4f5cf5"><title>X axis</title><g><path fill="none" stroke="rgb(0,0,0)" class="dcg-svg-axis-line" paint-order="fill stroke markers" d=" M 0 129.75 L 520 129.75" stroke-opacity="0.9" stroke-miterlimit="10" stroke-width="1.5" stroke-dasharray=""/></g></g><g><g class="dcg-svg-axis-value"><text fill="none" stroke="#ffffff" font-family="Arial" font-size="14px" font-style="normal" font-weight="normal" text-decoration="normal" x="251.10693359375" y="145.808" text-anchor="middle" stroke-miterlimit="2" stroke-width="3" stroke-dasharray="">0</text><text fill="#000000" stroke="none" font-family="Arial" font-size="14px" font-style="normal" font-weight="normal" text-decoration="normal" x="251.10693359375" y="145.808" text-anchor="middle">0</text></g><g class="dcg-svg-axis-value dcg-svg-offcenter-axis-value"><text fill="none" stroke="#ffffff" font-family="Arial" font-size="14px" font-style="normal" font-weight="normal" text-decoration="normal" x="13.1171875" y="145.808" text-anchor="middle" stroke-miterlimit="2" stroke-width="3" stroke-dasharray="">-10</text><text fill="#000000" stroke="none" font-family="Arial" font-size="14px" font-style="normal" font-weight="normal" text-decoration="normal" x="13.1171875" y="145.808" text-anchor="middle">-10</text></g><g class="dcg-svg-axis-value"><text fill="none" stroke="#ffffff" font-family="Arial" font-size="14px" font-style="normal" font-weight="normal" text-decoration="normal" x="127.6689453125" y="145.808" text-anchor="middle" stroke-miterlimit="2" stroke-width="3" stroke-dasharray="">-5</text><text fill="#000000" stroke="none" font-family="Arial" font-size="14px" font-style="normal" font-weight="normal" text-decoration="normal" x="127.6689453125" y="145.808" text-anchor="middle">-5</text></g><g class="dcg-svg-axis-value"><text fill="none" stroke="#ffffff" font-family="Arial" font-size="14px" font-style="normal" font-weight="normal" text-decoration="normal" x="390" y="145.808" text-anchor="middle" stroke-miterlimit="2" stroke-width="3" stroke-dasharray="">5</text><text fill="#000000" stroke="none" font-family="Arial" font-size="14px" font-style="normal" font-weight="normal" text-decoration="normal" x="390" y="145.808" text-anchor="middle">5</text></g><g class="dcg-svg-axis-value dcg-svg-offcenter-axis-value"><text fill="none" stroke="#ffffff" font-family="Arial" font-size="14px" font-style="normal" font-weight="normal" text-decoration="normal" x="509.2138671875" y="145.808" text-anchor="middle" stroke-miterlimit="2" stroke-width="3" stroke-dasharray="">10</text><text fill="#000000" stroke="none" font-family="Arial" font-size="14px" font-style="normal" font-weight="normal" text-decoration="normal" x="509.2138671875" y="145.808" text-anchor="middle">10</text></g><g class="dcg-svg-axis-value dcg-svg-offcenter-axis-value"><text fill="none" stroke="#ffffff" font-family="Arial" font-size="14px" font-style="normal" font-weight="normal" text-decoration="normal" x="248.77587890625" y="253.808" text-anchor="middle" stroke-miterlimit="2" stroke-width="3" stroke-dasharray="">-5</text><text fill="#000000" stroke="none" font-family="Arial" font-size="14px" font-style="normal" font-weight="normal" text-decoration="normal" x="248.77587890625" y="253.808" text-anchor="middle">-5</text></g><g class="dcg-svg-axis-value dcg-svg-offcenter-axis-value"><text fill="none" stroke="#ffffff" font-family="Arial" font-size="14px" font-style="normal" font-weight="normal" text-decoration="normal" x="251.10693359375" y="13.808" text-anchor="middle" stroke-miterlimit="2" stroke-width="3" stroke-dasharray="">5</text><text fill="#000000" stroke="none" font-family="Arial" font-size="14px" font-style="normal" font-weight="normal" text-decoration="normal" x="251.10693359375" y="13.808" text-anchor="middle">5</text></g></g></g></g><g id="expressions-ca4f5cf5"><g id="sketch-ca4f5cf5"><title>Expression 1</title><path fill="#2d70b3" stroke="none" paint-order="stroke fill markers" d="" fill-opacity="0.4"/><g><path fill="none" stroke="#2d70b3" class="dcg-svg-curve" paint-order="fill stroke markers" d=" M 0 151.81585975598776 L 0 151.81585975598776 L 2.919921875 153.26359187001734 L 5.5859375 154.32985087436126 L 7.998046875 155.07458180879934 L 10.283203125 155.58126517649225 L 12.44140625 155.87851702414875 L 14.599609375 155.99756056618548 L 16.7578125 155.9375760281192 L 18.916015625 155.69897648396343 L 21.07421875 155.28340501165988 L 23.359375 154.65369494205592 L 25.771484375 153.7826461412822 L 28.310546875 152.64494011056883 L 31.103515625 151.14470840111653 L 34.27734375 149.14508596758705 L 37.83203125 146.56881350521402 L 41.640625 143.46677045919355 L 46.083984375 139.48817544195745 L 51.669921875 134.10925277110093 L 67.03125 119.111596912717 L 71.474609375 115.25487707010636 L 75.283203125 112.28710727342343 L 78.837890625 109.8583314340151 L 82.01171875 108.00621008305635 L 84.931640625 106.59078618347822 L 87.59765625 105.55563906707476 L 90.009765625 104.84010273213224 L 92.294921875 104.3617584129849 L 94.453125 104.09167886017222 L 96.63718201333074 104 L 98.76953125 104.08739163878167 L 100.927734375 104.35321349347436 L 103.0859375 104.79564787830758 L 105.37109375 105.45320377461442 L 107.783203125 106.3527458879594 L 110.44921875 107.5832288307415 L 113.369140625 109.20055788312614 L 116.54296875 111.2549950625847 L 120.09765625 113.88555559666251 L 124.033203125 117.14653173147806 L 128.603515625 121.29693987788445 L 134.5703125 127.09848250534849 L 147.51953125 139.79385861130422 L 152.08984375 143.8548345775249 L 156.025390625 147.013941724037 L 159.580078125 149.53473689321459 L 162.880859375 151.54993108529413 L 165.80078125 153.04438385500225 L 168.466796875 154.15572844881027 L 170.87890625 154.94284061808798 L 173.1640625 155.49072584040434 L 175.322265625 155.82753781122832 L 177.48046875 155.98649253670186 L 179.638671875 155.9664954003031 L 181.796875 155.76768410914218 L 183.955078125 155.39142774566315 L 186.240234375 154.80252892520775 L 188.65234375 153.973305977317 L 191.19140625 152.87784899193326 L 193.984375 151.4215129046948 L 197.03125 149.5517887257345 L 200.458984375 147.12919435054638 L 204.267578125 144.09075874565235 L 208.583984375 140.28611775832363 L 213.916015625 135.20781258684957 L 231.81640625 117.8369248780572 L 236.005859375 114.30772628887343 L 239.6875 111.53911902728193 L 243.115234375 109.29260515467998 L 246.2890625 107.53218195104783 L 249.08203125 106.25885936091024 L 251.62109375 105.33847239266737 L 254.033203125 104.68166697832547 L 256.318359375 104.26022777727238 L 258.4765625 104.04461919016344 L 260.634765625 104.00774821895114 L 262.79296875 104.14986876973447 L 264.951171875 104.47000215186728 L 267.109375 104.96594381755612 L 269.39453125 105.6788685113763 L 271.93359375 106.69092407719883 L 274.599609375 107.99243262152251 L 277.51953125 109.68259337258556 L 280.8203125 111.90020237915591 L 284.501953125 114.7155855828106 L 288.564453125 118.17483223838946 L 293.388671875 122.64957874126344 L 300.37109375 129.53041478675627 L 309.892578125 138.87011914623506 L 314.716796875 143.22668609755038 L 318.779296875 146.54888109091567 L 322.4609375 149.21334494585673 L 325.888671875 151.34930982318792 L 328.935546875 152.93789487614515 L 331.6015625 154.07044084204927 L 334.140625 154.9141165673651 L 336.42578125 155.47062118342004 L 338.583984375 155.81571735019276 L 340.7421875 155.98303767134638 L 342.900390625 155.97142992201032 L 345.05859375 155.78097403711052 L 347.216796875 155.4129815609102 L 349.501953125 154.8326697578124 L 351.9140625 154.01225714805395 L 354.453125 152.92571088562434 L 357.24609375 151.47864667304407 L 360.29296875 149.61828257144364 L 363.720703125 147.2051221084209 L 367.529296875 144.17561674234193 L 371.845703125 140.3788907497121 L 377.05078125 135.43104016188823 L 395.458984375 117.59037369553171 L 399.6484375 114.08557898325601 L 403.330078125 111.34319349716965 L 406.7578125 109.1246306270829 L 409.8046875 107.45567186751558 L 412.59765625 106.19697198813813 L 415.13671875 105.29050211035147 L 417.548828125 104.6473434363636 L 419.833984375 104.23910696929607 L 421.9921875 104.03611909436205 L 424.150390625 104.01192736988708 L 426.30859375 104.16669838834724 L 428.466796875 104.49936634365586 L 430.625 105.00764037066816 L 432.91015625 105.73330810529878 L 435.44921875 106.7590255371135 L 438.115234375 108.07417835437231 L 441.03515625 109.77829254376911 L 444.3359375 112.01021452432276 L 448.017578125 114.8394637817939 L 452.080078125 118.31112352754525 L 456.904296875 122.79627822794862 L 464.013671875 129.8101510787481 L 473.28125 138.8944175621707 L 478.10546875 143.24893801516455 L 482.16796875 146.56881350521402 L 485.849609375 149.2307540632922 L 489.27734375 151.3640552455175 L 492.32421875 152.95005618585577 L 494.990234375 154.08020293881498 L 497.529296875 154.92149797263272 L 499.814453125 155.47579916539863 L 501.97265625 155.81877732429254 L 504.130859375 155.98395856554072 L 506.2890625 155.97020539470736 L 508.447265625 155.7776125208234 L 510.60546875 155.40750620418802 L 512.890625 154.82499762160143 L 515.302734375 154.00233077740256 L 517.841796875 152.9135042263408 L 520 151.81585975598776" stroke-linecap="round" stroke-linejoin="round" stroke-miterlimit="10" stroke-width="2.5" stroke-dasharray=""/></g></g></g><g id="labels-ca4f5cf5"/></g></svg>