<svg version="1.1" xmlns="http://www.w3.org/2000/svg" xmlns:xlink="http://www.w3.org/1999/xlink" width="520" height="260"><defs/><g transform="scale(1,1)"><g id="background-50ef44a7"><rect fill="white" stroke="none" x="0" y="0" width="520" height="260" class="dcg-svg-background"/></g><g id="background-images-50ef44a7"/><g id="graphpaper-50ef44a7"><g id="grid-50ef44a7"><g><path fill="none" stroke="rgb(0,0,0)" class="dcg-svg-minor-gridline" paint-order="fill stroke markers" d=" M 26.5 0 L 26.5 260" stroke-opacity="0.12" stroke-miterlimit="10" stroke-dasharray=""/><path fill="none" stroke="rgb(0,0,0)" class="dcg-svg-minor-gridline" paint-order="fill stroke markers" d=" M 52.5 0 L 52.5 260" stroke-opacity="0.12" stroke-miterlimit="10" stroke-dasharray=""/><path fill="none" stroke="rgb(0,0,0)" class="dcg-svg-minor-gridline" paint-order="fill stroke markers" d=" M 78.5 0 L 78.5 260" stroke-opacity="0.12" stroke-miterlimit="10" stroke-dasharray=""/><path fill="none" stroke="rgb(0,0,0)" class="dcg-svg-minor-gridline" paint-order="fill stroke markers" d=" M 104.5 0 L 104.5 260" stroke-opacity="0.12" stroke-miterlimit="10" stroke-dasharray=""/><path fill="none" stroke="rgb(0,0,0)" class="dcg-svg-minor-gridline" paint-order="fill stroke markers" d=" M 130.5 0 L 130.5 260" stroke-opacity="0.12" stroke-miterlimit="10" stroke-dasharray=""/><path fill="none" stroke="rgb(0,0,0)" class="dcg-svg-minor-gridline" paint-order="fill stroke markers" d=" M 156.5 0 L 156.5 260" stroke-opacity="0.12" stroke-miterlimit="10" stroke-dasharray=""/><path fill="none" stroke="rgb(0,0,0)" class="dcg-svg-minor-gridline" paint-order="fill stroke markers" d=" M 182.5 0 L 182.5 260" stroke-opacity="0.12" stroke-miterlimit="10" stroke-dasharray=""/><path fill="none" stroke="rgb(0,0,0)" class="dcg-svg-minor-gridline" paint-order="fill stroke markers" d=" M 208.5 0 L 208.5 260" stroke-opacity="0.12" stroke-miterlimit="10" stroke-dasharray=""/><path fill="none" stroke="rgb(0,0,0)" class="dcg-svg-minor-gridline" paint-order="fill stroke markers" d=" M 234.5 0 L 234.5 260" stroke-opacity="0.12" stroke-miterlimit="10" stroke-dasharray=""/><path fill="none" stroke="rgb(0,0,0)" class="dcg-svg-minor-gridline" paint-order="fill stroke markers" d=" M 286.5 0 L 286.5 260" stroke-opacity="0.12" stroke-miterlimit="10" stroke-dasharray=""/><path fill="none" stroke="rgb(0,0,0)" class="dcg-svg-minor-gridline" paint-order="fill stroke markers" d=" M 312.5 0 L 312.5 260" stroke-opacity="0.12" stroke-miterlimit="10" stroke-dasharray=""/><path fill="none" stroke="rgb(0,0,0)" class="dcg-svg-minor-gridline" paint-order="fill stroke markers" d=" M 338.5 0 L 338.5 260" stroke-opacity="0.12" stroke-miterlimit="10" stroke-dasharray=""/><path fill="none" stroke="rgb(0,0,0)" class="dcg-svg-minor-gridline" paint-order="fill stroke markers" d=" M 364.5 0 L 364.5 260" stroke-opacity="0.12" stroke-miterlimit="10" stroke-dasharray=""/><path fill="none" stroke="rgb(0,0,0)" class="dcg-svg-minor-gridline" paint-order="fill stroke markers" d=" M 390.5 0 L 390.5 260" stroke-opacity="0.12" stroke-miterlimit="10" stroke-dasharray=""/><path fill="none" stroke="rgb(0,0,0)" class="dcg-svg-minor-gridline" paint-order="fill stroke markers" d=" M 416.5 0 L 416.5 260" stroke-opacity="0.12" stroke-miterlimit="10" stroke-dasharray=""/><path fill="none" stroke="rgb(0,0,0)" class="dcg-svg-minor-gridline" paint-order="fill stroke markers" d=" M 442.5 0 L 442.5 260" stroke-opacity="0.12" stroke-miterlimit="10" stroke-dasharray=""/><path fill="none" stroke="rgb(0,0,0)" class="dcg-svg-minor-gridline" paint-order="fill stroke markers" d=" M 468.5 0 L 468.5 260" stroke-opacity="0.12" stroke-miterlimit="10" stroke-dasharray=""/><path fill="none" stroke="rgb(0,0,0)" class="dcg-svg-minor-gridline" paint-order="fill stroke markers" d=" M 494.5 0 L 494.5 260" stroke-opacity="0.12" stroke-miterlimit="10" stroke-dasharray=""/><path fill="none" stroke="rgb(0,0,0)" class="dcg-svg-minor-gridline" paint-order="fill stroke markers" d=" M 0 234.5 L 520 234.5" stroke-opacity="0.12" stroke-miterlimit="10" stroke-dasharray=""/><path fill="none" stroke="rgb(0,0,0)" class="dcg-svg-minor-gridline" paint-order="fill stroke markers" d=" M 0 208.5 L 520 208.5" stroke-opacity="0.12" stroke-miterlimit="10" stroke-dasharray=""/><path fill="none" stroke="rgb(0,0,0)" class="dcg-svg-minor-gridline" paint-order="fill stroke markers" d=" M 0 182.5 L 520 182.5" stroke-opacity="0.12" stroke-miterlimit="10" stroke-dasharray=""/><path fill="none" stroke="rgb(0,0,0)" class="dcg-svg-minor-gridline" paint-order="fill stroke markers" d=" M 0 156.5 L 520 156.5" stroke-opacity="0.12" stroke-miterlimit="10" stroke-dasharray=""/><path fill="none" stroke="rgb(0,0,0)" class="dcg-svg-minor-gridline" paint-order="fill stroke markers" d=" M 0 104.5 L 520 104.5" stroke-opacity="0.12" stroke-miterlimit="10" stroke-dasharray=""/><path fill="none" stroke="rgb(0,0,0)" class="dcg-svg-minor-gridline" paint-order="fill stroke markers" d=" M 0 78.5 L 520 78.5" stroke-opacity="0.12" stroke-miterlimit="10" stroke-dasharray=""/><path fill="none" stroke="rgb(0,0,0)" class="dcg-svg-minor-gridline" paint-order="fill stroke markers" d=" M 0 52.5 L 520 52.5" stroke-opacity="0.12" stroke-miterlimit="10" stroke-dasharray=""/><path fill="none" stroke="rgb(0,0,0)" class="dcg-svg-minor-gridline" paint-order="fill stroke markers" d=" M 0 26.5 L 520 26.5" stroke-opacity="0.12" stroke-miterlimit="10" stroke-dasharray=""/><path fill="none" stroke="rgb(0,0,0)" class="dcg-svg-major-gridline" paint-order="fill stroke markers" d=" M 130.5 0 L 130.5 260" stroke-opacity="0.31818181818181823" stroke-miterlimit="10" stroke-dasharray=""/><path fill="none" stroke="rgb(0,0,0)" class="dcg-svg-major-gridline" paint-order="fill stroke markers" d=" M 390.5 0 L 390.5 260" stroke-opacity="0.31818181818181823" stroke-miterlimit="10" stroke-dasharray=""/></g></g><g id="axis-50ef44a7"><g id="yaxis-50ef44a7"><title>Y axis</title><g><path fill="none" stroke="rgb(0,0,0)" class="dcg-svg-axis-line" paint-order="fill stroke markers" d=" M 259.75 0 L 259.75 260" stroke-opacity="0.9" stroke-miterlimit="10" stroke-width="1.5" stroke-dasharray=""/></g></g><g id="xaxis-50ef44a7"><title>X axis</title><g><path fill="none" stroke="rgb(0,0,0)" class="dcg-svg-axis-line" paint-order="fill stroke markers" d=" M 0 129.75 L 520 129.75" stroke-opacity="0.9" stroke-miterlimit="10" stroke-width="1.5" stroke-dasharray=""/></g></g><g><g class="dcg-svg-axis-value"><text fill="none" stroke="#ffffff" font-family="Arial" font-size="14px" font-style="normal" font-weight="normal" text-decoration="normal" x="251.10693359375" y="145.808" text-anchor="middle" stroke-miterlimit="2" stroke-width="3" stroke-dasharray="">0</text><text fill="#000000" stroke="none" font-family="Arial" font-size="14px" font-style="normal" font-weight="normal" text-decoration="normal" x="251.10693359375" y="145.808" text-anchor="middle">0</text></g><g class="dcg-svg-axis-value dcg-svg-offcenter-axis-value"><text fill="none" stroke="#ffffff" font-family="Arial" font-size="14px" font-style="normal" font-weight="normal" text-decoration="normal" x="13.1171875" y="145.808" text-anchor="middle" stroke-miterlimit="2" stroke-width="3" stroke-dasharray="">-10</text><text fill="#000000" stroke="none" font-family="Arial" font-size="14px" font-style="normal" font-weight="normal" text-decoration="normal" x="13.1171875" y="145.808" text-anchor="middle">-10</text></g><g class="dcg-svg-axis-value"><text fill="none" stroke="#ffffff" font-family="Arial" font-size="14px" font-style="normal" font-weight="normal" text-decoration="normal" x="127.6689453125" y="145.808" text-anchor="middle" stroke-miterlimit="2" stroke-width="3" stroke-dasharray="">-5</text><text fill="#000000" stroke="none" font-family="Arial" font-size="14px" font-style="normal" font-weight="normal" text-decoration="normal" x="127.6689453125" y="145.808" text-anchor="middle">-5</text></g><g class="dcg-svg-axis-value"><text fill="none" stroke="#ffffff" font-family="Arial" font-size="14px" font-style="normal" font-weight="normal" text-decoration="normal" x="390" y="145.808" text-anchor="middle" stroke-miterlimit="2" stroke-width="3" stroke-dasharray="">5</text><text fill="#000000" stroke="none" font-family="Arial" font-size="14px" font-style="normal" font-weight="normal" text-decoration="normal" x="390" y="145.808" text-anchor="middle">5</text></g><g class="dcg-svg-axis-value dcg-svg-offcenter-axis-value"><text fill="none" stroke="#ffffff" font-family="Arial" font-size="14px" font-style="normal" font-weight="normal" text-decoration="normal" x="509.2138671875" y="145.808" text-anchor="middle" stroke-miterlimit="2" stroke-width="3" stroke-dasharray="">10</text><text fill="#000000" stroke="none" font-family="Arial" font-size="14px" font-style="normal" font-weight="normal" text-decoration="normal" x="509.2138671875" y="145.808" text-anchor="middle">10</text></g><g class="dcg-svg-axis-value dcg-svg-offcenter-axis-value"><text fill="none" stroke="#ffffff" font-family="Arial" font-size="14px" font-style="normal" font-weight="normal" text-decoration="normal" x="248.77587890625" y="253.808" text-anchor="middle" stroke-miterlimit="2" stroke-width="3" stroke-dasharray="">-5</text><text fill="#000000" stroke="none" font-family="Arial" font-size="14px" font-style="normal" font-weight="normal" text-decoration="normal" x="248.77587890625" y="253.808" text-anchor="middle">-5</text></g><g class="dcg-svg-axis-value dcg-svg-offcenter-axis-value"><text fill="none" stroke="#ffffff" font-family="Arial" font-size="14px" font-style="normal" font-weight="normal" text-decoration="normal" x="251.10693359375" y="13.808" text-anchor="middle" stroke-miterlimit="2" stroke-width="3" stroke-dasharray="">5</text><text fill="#000000" stroke="none" font-family="Arial" font-size="14px" font-style="normal" font-weight="normal" text-decoration="normal" x="251.10693359375" y="13.808" text-anchor="middle">5</text></g></g></g></g><g id="expressions-50ef44a7"><g id="sketch-50ef44a7"><title>Expression 1</title><path fill="#2d70b3" stroke="none" paint-order="stroke fill markers" d="" fill-opacity="0.4"/><g><path fill="none" stroke="#2d70b3" class="dcg-svg-curve" paint-order="fill stroke markers" d=" M 0 84.27733646527842 L 0 84.27733646527842 L 4.31640625 80.9129674182989 L 9.6484375 76.3865435493754 L 26.9140625 61.4328043311974 L 31.103515625 58.31600874068525 L 34.78515625 55.90489978948112 L 38.0859375 54.05329136503903 L 41.005859375 52.69007389001328 L 43.671875 51.68998125810812 L 46.083984375 50.99842858620376 L 48.369140625 50.53825524458669 L 50.52734375 50.28318028297852 L 52.685546875 50.20624613040161 L 54.716796875 50.29877115757823 L 56.875 50.57351583836267 L 59.033203125 51.03008669846504 L 61.318359375 51.71038065970258 L 63.73046875 52.64497733003995 L 66.26953125 53.863302826558396 L 69.0625 55.471493554308 L 72.109375 57.529971386537255 L 75.41015625 60.09272494151456 L 78.96484375 63.201877239652035 L 82.900390625 67.0094211292588 L 87.34375 71.6798424292053 L 93.056640625 78.08225598582956 L 108.92578125 96.08462125153402 L 113.49609375 100.74927281240028 L 117.431640625 104.40254561647498 L 120.986328125 107.3544285171514 L 124.287109375 109.76149929872861 L 127.4609375 111.74584586747727 L 130.380859375 113.26828576140393 L 133.046875 114.3945826571578 L 135.458984375 115.19165269230544 L 137.744140625 115.75012923412032 L 140.029296875 116.1169870950459 L 142.1875 116.28867390089192 L 144.345703125 116.29297181671694 L 146.50390625 116.13349036620131 L 148.7890625 115.79148835919877 L 151.201171875 115.24509691792869 L 153.740234375 114.47526941700698 L 156.533203125 113.41421715592753 L 159.580078125 112.02504927498325 L 163.134765625 110.1395269821869 L 167.32421875 107.62336013317251 L 173.037109375 103.85322595565455 L 185.478515625 95.55246435774197 L 189.66796875 93.13423101541117 L 193.095703125 91.43136011429722 L 196.015625 90.22403796903036 L 198.681640625 89.34823561287004 L 201.09375 88.76363431611007 L 203.251953125 88.4226655198162 L 205.283203125 88.26981804693234 L 207.314453125 88.28937943468017 L 209.21875 88.47204548522744 L 211.123046875 88.82064648523509 L 213.154296875 89.38255303304274 L 215.185546875 90.14778797713237 L 217.34375 91.19135387714456 L 219.62890625 92.56378619805241 L 222.16796875 94.42233553530903 L 224.580078125 96.52442479164796 L 226.9921875 98.9661502218933 L 229.53125 101.91777587196965 L 232.0703125 105.27889139523664 L 234.609375 109.07360942663236 L 237.1484375 113.33492321617425 L 239.6875 118.1100067284018 L 242.099609375 123.18572510059361 L 244.384765625 128.5628127229163 L 246.54296875 134.25926451469684 L 248.57421875 140.31626979509326 L 250.478515625 146.80810512280425 L 252.12890625 153.31597219314256 L 253.65234375 160.37549746859315 L 254.921875 167.41611474012117 L 256.064453125 175.16867838169998 L 257.080078125 183.93624370629752 L 257.841796875 192.55360874151364 L 258.4765625 202.24274239611293 L 258.984375 213.29203440571246 L 259.365234375 225.89279293043262 L 259.619140625 239.42811596237485 L 259.8488532124633 265.5" stroke-linecap="round" stroke-linejoin="round" stroke-miterlimit="10" stroke-width="2.5" stroke-dasharray=""/></g></g></g><g id="labels-50ef44a7"/></g></svg>