<svg version="1.1" xmlns="http://www.w3.org/2000/svg" xmlns:xlink="http://www.w3.org/1999/xlink" width="520" height="260"><defs/><g transform="scale(1,1)"><g id="background-aa8ad44f"><rect fill="white" stroke="none" x="0" y="0" width="520" height="260" class="dcg-svg-background"/></g><g id="background-images-aa8ad44f"/><g id="graphpaper-aa8ad44f"><g id="grid-aa8ad44f"><g><path fill="none" stroke="rgb(0,0,0)" class="dcg-svg-minor-gridline" paint-order="fill stroke markers" d=" M 26.5 0 L 26.5 260" stroke-opacity="0.12" stroke-miterlimit="10" stroke-dasharray=""/><path fill="none" stroke="rgb(0,0,0)" class="dcg-svg-minor-gridline" paint-order="fill stroke markers" d=" M 52.5 0 L 52.5 260" stroke-opacity="0.12" stroke-miterlimit="10" stroke-dasharray=""/><path fill="none" stroke="rgb(0,0,0)" class="dcg-svg-minor-gridline" paint-order="fill stroke markers" d=" M 78.5 0 L 78.5 260" stroke-opacity="0.12" stroke-miterlimit="10" stroke-dasharray=""/><path fill="none" stroke="rgb(0,0,0)" class="dcg-svg-minor-gridline" paint-order="fill stroke markers" d=" M 104.5 0 L 104.5 260" stroke-opacity="0.12" stroke-miterlimit="10" stroke-dasharray=""/><path fill="none" stroke="rgb(0,0,0)" class="dcg-svg-minor-gridline" paint-order="fill stroke markers" d=" M 130.5 0 L 130.5 260" stroke-opacity="0.12" stroke-miterlimit="10" stroke-dasharray=""/><path fill="none" stroke="rgb(0,0,0)" class="dcg-svg-minor-gridline" paint-order="fill stroke markers" d=" M 156.5 0 L 156.5 260" stroke-opacity="0.12" stroke-miterlimit="10" stroke-dasharray=""/><path fill="none" stroke="rgb(0,0,0)" class="dcg-svg-minor-gridline" paint-order="fill stroke markers" d=" M 182.5 0 L 182.5 260" stroke-opacity="0.12" stroke-miterlimit="10" stroke-dasharray=""/><path fill="none" stroke="rgb(0,0,0)" class="dcg-svg-minor-gridline" paint-order="fill stroke markers" d=" M 208.5 0 L 208.5 260" stroke-opacity="0.12" stroke-miterlimit="10" stroke-dasharray=""/><path fill="none" stroke="rgb(0,0,0)" class="dcg-svg-minor-gridline" paint-order="fill stroke markers" d=" M 234.5 0 L 234.5 260" stroke-opacity="0.12" stroke-miterlimit="10" stroke-dasharray=""/><path fill="none" stroke="rgb(0,0,0)" class="dcg-svg-minor-gridline" paint-order="fill stroke markers" d=" M 286.5 0 L 286.5 260" stroke-opacity="0.12" stroke-miterlimit="10" stroke-dasharray=""/><path fill="none" stroke="rgb(0,0,0)" class="dcg-svg-minor-gridline" paint-order="fill stroke markers" d=" M 312.5 0 L 312.5 260" stroke-opacity="0.12" stroke-miterlimit="10" stroke-dasharray=""/><path fill="none" stroke="rgb(0,0,0)" class="dcg-svg-minor-gridline" paint-order="fill stroke markers" d=" M 338.5 0 L 338.5 260" stroke-opacity="0.12" stroke-miterlimit="10" stroke-dasharray=""/><path fill="none" stroke="rgb(0,0,0)" class="dcg-svg-minor-gridline" paint-order="fill stroke markers" d=" M 364.5 0 L 364.5 260" stroke-opacity="0.12" stroke-miterlimit="10" stroke-dasharray=""/><path fill="none" stroke="rgb(0,0,0)" class="dcg-svg-minor-gridline" paint-order="fill stroke markers" d=" M 390.5 0 L 390.5 260" stroke-opacity="0.12" stroke-miterlimit="10" stroke-dasharray=""/><path fill="none" stroke="rgb(0,0,0)" class="dcg-svg-minor-gridline" paint-order="fill stroke markers" d=" M 416.5 0 L 416.5 260" stroke-opacity="0.12" stroke-miterlimit="10" stroke-dasharray=""/><path fill="none" stroke="rgb(0,0,0)" class="dcg-svg-minor-gridline" paint-order="fill stroke markers" d=" M 442.5 0 L 442.5 260" stroke-opacity="0.12" stroke-miterlimit="10" stroke-dasharray=""/><path fill="none" stroke="rgb(0,0,0)" class="dcg-svg-minor-gridline" paint-order="fill stroke markers" d=" M 468.5 0 L 468.5 260" stroke-opacity="0.12" stroke-miterlimit="10" stroke-dasharray=""/><path fill="none" stroke="rgb(0,0,0)" class="dcg-svg-minor-gridline" paint-order="fill stroke markers" d=" M 494.5 0 L 494.5 260" stroke-opacity="0.12" stroke-miterlimit="10" stroke-dasharray=""/><path fill="none" stroke="rgb(0,0,0)" class="dcg-svg-minor-gridline" paint-order="fill stroke markers" d=" M 0 234.5 L 520 234.5" stroke-opacity="0.12" stroke-miterlimit="10" stroke-dasharray=""/><path fill="none" stroke="rgb(0,0,0)" class="dcg-svg-minor-gridline" paint-order="fill stroke markers" d=" M 0 208.5 L 520 208.5" stroke-opacity="0.12" stroke-miterlimit="10" stroke-dasharray=""/><path fill="none" stroke="rgb(0,0,0)" class="dcg-svg-minor-gridline" paint-order="fill stroke markers" d=" M 0 182.5 L 520 182.5" stroke-opacity="0.12" stroke-miterlimit="10" stroke-dasharray=""/><path fill="none" stroke="rgb(0,0,0)" class="dcg-svg-minor-gridline" paint-order="fill stroke markers" d=" M 0 156.5 L 520 156.5" stroke-opacity="0.12" stroke-miterlimit="10" stroke-dasharray=""/><path fill="none" stroke="rgb(0,0,0)" class="dcg-svg-minor-gridline" paint-order="fill stroke markers" d=" M 0 104.5 L 520 104.5" stroke-opacity="0.12" stroke-miterlimit="10" stroke-dasharray=""/><path fill="none" stroke="rgb(0,0,0)" class="dcg-svg-minor-gridline" paint-order="fill stroke markers" d=" M 0 78.5 L 520 78.5" stroke-opacity="0.12" stroke-miterlimit="10" stroke-dasharray=""/><path fill="none" stroke="rgb(0,0,0)" class="dcg-svg-minor-gridline" paint-order="fill stroke markers" d=" M 0 52.5 L 520 52.5" stroke-opacity="0.12" stroke-miterlimit="10" stroke-dasharray=""/><path fill="none" stroke="rgb(0,0,0)" class="dcg-svg-minor-gridline" paint-order="fill stroke markers" d=" M 0 26.5 L 520 26.5" stroke-opacity="0.12" stroke-miterlimit="10" stroke-dasharray=""/><path fill="none" stroke="rgb(0,0,0)" class="dcg-svg-major-gridline" paint-order="fill stroke markers" d=" M 130.5 0 L 130.5 260" stroke-opacity="0.31818181818181823" stroke-miterlimit="10" stroke-dasharray=""/><path fill="none" stroke="rgb(0,0,0)" class="dcg-svg-major-gridline" paint-order="fill stroke markers" d=" M 390.5 0 L 390.5 260" stroke-opacity="0.31818181818181823" stroke-miterlimit="10" stroke-dasharray=""/></g></g><g id="axis-aa8ad44f"><g id="yaxis-aa8ad44f"><title>Y axis</title><g><path fill="none" stroke="rgb(0,0,0)" class="dcg-svg-axis-line" paint-order="fill stroke markers" d=" M 259.75 0 L 259.75 260" stroke-opacity="0.9" stroke-miterlimit="10" stroke-width="1.5" stroke-dasharray=""/></g></g><g id="xaxis-aa8ad44f"><title>X axis</title><g><path fill="none" stroke="rgb(0,0,0)" class="dcg-svg-axis-line" paint-order="fill stroke markers" d=" M 0 129.75 L 520 129.75" stroke-opacity="0.9" stroke-miterlimit="10" stroke-width="1.5" stroke-dasharray=""/></g></g><g><g class="dcg-svg-axis-value"><text fill="none" stroke="#ffffff" font-family="Arial" font-size="14px" font-style="normal" font-weight="normal" text-decoration="normal" x="251.10693359375" y="145.808" text-anchor="middle" stroke-miterlimit="2" stroke-width="3" stroke-dasharray="">0</text><text fill="#000000" stroke="none" font-family="Arial" font-size="14px" font-style="normal" font-weight="normal" text-decoration="normal" x="251.10693359375" y="145.808" text-anchor="middle">0</text></g><g class="dcg-svg-axis-value dcg-svg-offcenter-axis-value"><text fill="none" stroke="#ffffff" font-family="Arial" font-size="14px" font-style="normal" font-weight="normal" text-decoration="normal" x="13.1171875" y="145.808" text-anchor="middle" stroke-miterlimit="2" stroke-width="3" stroke-dasharray="">-10</text><text fill="#000000" stroke="none" font-family="Arial" font-size="14px" font-style="normal" font-weight="normal" text-decoration="normal" x="13.1171875" y="145.808" text-anchor="middle">-10</text></g><g class="dcg-svg-axis-value"><text fill="none" stroke="#ffffff" font-family="Arial" font-size="14px" font-style="normal" font-weight="normal" text-decoration="normal" x="127.6689453125" y="145.808" text-anchor="middle" stroke-miterlimit="2" stroke-width="3" stroke-dasharray="">-5</text><text fill="#000000" stroke="none" font-family="Arial" font-size="14px" font-style="normal" font-weight="normal" text-decoration="normal" x="127.6689453125" y="145.808" text-anchor="middle">-5</text></g><g class="dcg-svg-axis-value"><text fill="none" stroke="#ffffff" font-family="Arial" font-size="14px" font-style="normal" font-weight="normal" text-decoration="normal" x="390" y="145.808" text-anchor="middle" stroke-miterlimit="2" stroke-width="3" stroke-dasharray="">5</text><text fill="#000000" stroke="none" font-family="Arial" font-size="14px" font-style="normal" font-weight="normal" text-decoration="normal" x="390" y="145.808" text-anchor="middle">5</text></g><g class="dcg-svg-axis-value dcg-svg-offcenter-axis-value"><text fill="none" stroke="#ffffff" font-family="Arial" font-size="14px" font-style="normal" font-weight="normal" text-decoration="normal" x="509.2138671875" y="145.808" text-anchor="middle" stroke-miterlimit="2" stroke-width="3" stroke-dasharray="">10</text><text fill="#000000" stroke="none" font-family="Arial" font-size="14px" font-style="normal" font-weight="normal" text-decoration="normal" x="509.2138671875" y="145.808" text-anchor="middle">10</text></g><g class="dcg-svg-axis-value dcg-svg-offcenter-axis-value"><text fill="none" stroke="#ffffff" font-family="Arial" font-size="14px" font-style="normal" font-weight="normal" text-decoration="normal" x="248.77587890625" y="253.808" text-anchor="middle" stroke-miterlimit="2" stroke-width="3" stroke-dasharray="">-5</text><text fill="#000000" stroke="none" font-family="Arial" font-size="14px" font-style="normal" font-weight="normal" text-decoration="normal" x="248.77587890625" y="253.808" text-anchor="middle">-5</text></g><g class="dcg-svg-axis-value dcg-svg-offcenter-axis-value"><text fill="none" stroke="#ffffff" font-family="Arial" font-size="14px" font-style="normal" font-weight="normal" text-decoration="normal" x="251.10693359375" y="13.808" text-anchor="middle" stroke-miterlimit="2" stroke-width="3" stroke-dasharray="">5</text><text fill="#000000" stroke="none" font-family="Arial" font-size="14px" font-style="normal" font-weight="normal" text-decoration="normal" x="251.10693359375" y="13.808" text-anchor="middle">5</text></g></g></g></g><g id="expressions-aa8ad44f"><g id="sketch-aa8ad44f"><title>Expression 1</title><path fill="#2d70b3" stroke="none" paint-order="stroke fill markers" d="" fill-opacity="0.4"/><g><path fill="none" stroke="#2d70b3" class="dcg-svg-curve" paint-order="fill stroke markers" d=" M 0 146.85738151393625 L 0 146.85738151393625 L 2.666015625 143.29499015096383 L 5.712890625 139.6529888435718 L 9.521484375 135.51482979534785 L 15.48828125 129.46741729955977 L 22.08984375 122.68133039376016 L 25.771484375 118.51397742520703 L 28.69140625 114.8256960292442 L 31.23046875 111.203827931675 L 33.388671875 107.69933572712465 L 35.419921875 103.91225890512445 L 37.197265625 100.07648242671982 L 38.84765625 95.93164388542007 L 40.37109375 91.44277366969227 L 41.767578125 86.58340931162758 L 43.1640625 80.76547357003297 L 44.43359375 74.34481104614639 L 45.576171875 67.29955105698717 L 46.71875 58.58281239277271 L 47.734375 48.855657807787466 L 48.75 36.425950652669215 L 49.638671875 22.280952714756353 L 50.52734375 3.466873246239061 L 50.838708012854795 -5.5" stroke-linecap="round" stroke-linejoin="round" stroke-miterlimit="10" stroke-width="2.5" stroke-dasharray=""/></g><g><path fill="none" stroke="#2d70b3" class="dcg-svg-curve" paint-order="fill stroke markers" d=" M 60.74887760547985 265.5 L 60.74887760547985 265.5 L 60.9375 259.7731949996896 L 61.826171875 240.0946768105752 L 62.841796875 223.59021150687676 L 63.857421875 211.15678282359232 L 65 200.35636053608997 L 66.142578125 191.85296229018513 L 67.412109375 184.2730409516926 L 68.80859375 177.540011770351 L 70.205078125 172.01225417409916 L 71.728515625 166.98166873453155 L 73.37890625 162.39983018005495 L 75.15625 158.21264404291992 L 77.060546875 154.3650471427523 L 79.21875 150.59605650521232 L 81.50390625 147.11062628988083 L 84.169921875 143.5196932589844 L 87.216796875 139.85547503796474 L 91.025390625 135.70059029616604 L 96.865234375 129.77194178976822 L 103.720703125 122.73585554455575 L 107.40234375 118.57434057888022 L 110.322265625 114.89338716341918 L 112.861328125 111.28068823004044 L 115.01953125 107.78692772763455 L 117.05078125 104.01350251660736 L 118.828125 100.19372692073784 L 120.478515625 96.06863545378445 L 122.001953125 91.60402732052485 L 123.3984375 86.77429513570414 L 124.794921875 80.99643680409852 L 126.064453125 74.62581498845674 L 127.20703125 67.64246971651525 L 128.349609375 59.012464510495136 L 129.365234375 49.3952992497842 L 130.380859375 37.12636006011931 L 131.26953125 23.191839536297906 L 132.158203125 4.702964447464865 L 132.51981062812834 -5.5" stroke-linecap="round" stroke-linejoin="round" stroke-miterlimit="10" stroke-width="2.5" stroke-dasharray=""/></g><g><path fill="none" stroke="#2d70b3" class="dcg-svg-curve" paint-order="fill stroke markers" d=" M 142.4263537380113 265.5 L 142.4263537380113 265.5 L 142.568359375 261.0959168626798 L 143.45703125 241.05953742638928 L 144.47265625 224.30072051733538 L 145.48828125 211.70316551733785 L 146.630859375 200.77928586817973 L 147.7734375 192.19115966247668 L 149.04296875 184.54495641436438 L 150.439453125 177.7603461253962 L 151.8359375 172.19536384303706 L 153.359375 167.13491136611492 L 155.009765625 162.52919102373008 L 156.787109375 158.32294593110691 L 158.69140625 154.4601622774432 L 160.849609375 150.6784535785457 L 163.134765625 147.1831616930373 L 165.80078125 143.58397594272188 L 168.84765625 139.9133305385375 L 172.65625 135.75359260046943 L 178.369140625 129.94945031797317 L 185.3515625 122.79032149187174 L 189.033203125 118.63460067400341 L 191.953125 114.96092553736563 L 194.4921875 111.35733365326365 L 196.650390625 107.87422922287111 L 198.681640625 104.11435341624707 L 200.458984375 100.31044993798972 L 202.109375 96.20493360217422 L 203.6328125 91.7643576522662 L 205.029296875 86.96395092901076 L 206.42578125 81.22571354831045 L 207.6953125 74.9045013925967 L 208.837890625 67.98220519481215 L 209.98046875 59.43757928612837 L 210.99609375 49.92847436616307 L 212.01171875 37.81710805849204 L 212.900390625 24.08829139365875 L 213.7890625 5.916107751403828 L 214.20193761365653 -5.5" stroke-linecap="round" stroke-linejoin="round" stroke-miterlimit="10" stroke-width="2.5" stroke-dasharray=""/></g><g><path fill="none" stroke="#2d70b3" class="dcg-svg-curve" paint-order="fill stroke markers" d=" M 224.12664026147263 265.5 L 224.12664026147263 265.5 L 224.453125 255.92633302593097 L 225.341796875 237.27221296608553 L 226.357421875 221.50160170283846 L 227.373046875 209.5446973507854 L 228.515625 199.10451709036917 L 229.658203125 190.8493717111149 L 230.927734375 183.46431388213702 L 232.32421875 176.8833779302181 L 233.720703125 171.46565411965008 L 235.244140625 166.52353598348137 L 236.89453125 162.01256355660382 L 238.671875 157.88201977148765 L 240.576171875 154.0796155079669 L 242.734375 150.34851102166812 L 245.146484375 146.71250667967396 L 247.8125 143.16625329490196 L 250.859375 139.53680528695241 L 254.66796875 135.4080603424684 L 260.888671875 129.110981899261 L 267.109375 122.70797577622346 L 270.791015625 118.54348042328644 L 273.7109375 114.85878529963871 L 276.25 111.24140453423648 L 278.408203125 107.74216473031419 L 280.439453125 103.96177015426778 L 282.216796875 100.13382698674951 L 283.8671875 95.99865737083886 L 285.390625 91.52166916072912 L 286.787109375 86.67682001684926 L 288.18359375 80.87852133078552 L 289.453125 74.48238542199365 L 290.595703125 67.46748268923466 L 291.73828125 58.79328813873721 L 292.75390625 49.120112086538725 L 293.76953125 36.76935179629109 L 294.658203125 22.727787033914467 L 295.546875 4.0736669740690274 L 295.88265728634394 -5.5" stroke-linecap="round" stroke-linejoin="round" stroke-miterlimit="10" stroke-width="2.5" stroke-dasharray=""/></g><g><path fill="none" stroke="#2d70b3" class="dcg-svg-curve" paint-order="fill stroke markers" d=" M 305.79131155848376 265.5 L 305.79131155848376 265.5 L 305.95703125 260.41618010104503 L 306.845703125 240.5640607474481 L 307.861328125 223.93607960425015 L 308.876953125 211.42288375245838 L 310.01953125 200.56242071387163 L 311.162109375 192.01779480518786 L 312.431640625 184.4056072958667 L 313.828125 177.64745871351 L 315.224609375 172.10156732219176 L 316.748046875 167.05642845126204 L 318.3984375 162.46295022265036 L 320.17578125 158.2664731498328 L 322.080078125 154.41147171918345 L 324.23828125 150.6362793578757 L 326.5234375 147.14603981221555 L 329.189453125 143.5510819237846 L 332.236328125 139.88372933061166 L 336.044921875 135.72647860056028 L 341.884765625 129.79663922149064 L 348.740234375 122.76247193996885 L 352.421875 118.60379313832001 L 355.341796875 114.9264016751257 L 357.880859375 111.31815967133558 L 360.0390625 107.82961454265649 L 362.0703125 104.06282152712832 L 363.84765625 100.25081617010062 L 365.498046875 96.13530938426507 L 367.021484375 91.6824705837158 L 368.41796875 86.86710324638757 L 369.814453125 81.10865810601206 L 371.083984375 74.76225328281463 L 372.2265625 67.80884033752332 L 373.369140625 59.22071413182026 L 374.384765625 49.65657932546891 L 375.400390625 37.46501536867156 L 376.2890625 23.631577664635756 L 377.177734375 5.298465353841223 L 377.56426044777857 -5.5" stroke-linecap="round" stroke-linejoin="round" stroke-miterlimit="10" stroke-width="2.5" stroke-dasharray=""/></g><g><path fill="none" stroke="#2d70b3" class="dcg-svg-curve" paint-order="fill stroke markers" d=" M 387.4896206766801 265.5 L 387.4896206766801 265.5 L 387.96875 252.2924148714179 L 388.857421875 234.58339075794456 L 389.873046875 219.49764178431718 L 390.888671875 207.9895615505371 L 392.03125 197.89118212530153 L 393.173828125 189.87301512318749 L 394.443359375 182.6749011738694 L 395.83984375 176.24051603714565 L 397.236328125 170.92920574681662 L 398.759765625 166.07290605869662 L 400.41015625 161.63086149151528 L 402.1875 157.55553704060472 L 404.091796875 153.7972743516078 L 406.25 150.1032324057727 L 408.662109375 146.49737352314588 L 411.328125 142.97482868716295 L 414.501953125 139.2206411772347 L 418.4375 134.9850923723276 L 425.419921875 127.93859293107522 L 430.87890625 122.26730149304234 L 434.43359375 118.20779768155641 L 437.353515625 114.48177127076458 L 439.765625 111.00806326458562 L 441.923828125 107.47602998464828 L 443.955078125 103.65389075683098 L 445.732421875 99.77697644597067 L 447.3828125 95.58130819070833 L 448.90625 91.02989969422129 L 450.302734375 86.09403401625787 L 451.69921875 80.1724354727978 L 452.96875 73.62205186904195 L 454.111328125 66.41588830306597 L 455.25390625 57.47307370254289 L 456.26953125 47.458210281793384 L 457.28515625 34.60615140011926 L 458.173828125 19.905323189424806 L 458.935546875 3.4382786420807037 L 459.2457720087816 -5.5" stroke-linecap="round" stroke-linejoin="round" stroke-miterlimit="10" stroke-width="2.5" stroke-dasharray=""/></g><g><path fill="none" stroke="#2d70b3" class="dcg-svg-curve" paint-order="fill stroke markers" d=" M 469.15600064210804 265.5 L 469.15600064210804 265.5 L 469.345703125 259.74319049533636 L 470.234375 240.0727567375379 L 471.25 223.5740493473308 L 472.265625 211.14434219221255 L 473.408203125 200.34672291231533 L 474.55078125 191.84525040866117 L 475.8203125 184.26683687869024 L 477.216796875 177.53498198192995 L 478.61328125 172.00807237650847 L 480.13671875 166.97816767956223 L 481.787109375 162.39687370131014 L 483.564453125 158.21012233795295 L 485.46875 154.36287199373348 L 487.626953125 150.59417165611927 L 489.912109375 147.10896658537834 L 492.578125 143.51822198293362 L 495.625 139.85415049317353 L 499.43359375 135.69937647460722 L 505.2734375 129.77078354188086 L 512.12890625 122.7346069661613 L 515.810546875 118.57295873583769 L 518.73046875 114.89183798419178 L 520 113.14261848606375" stroke-linecap="round" stroke-linejoin="round" stroke-miterlimit="10" stroke-width="2.5" stroke-dasharray=""/></g></g></g><g id="labels-aa8ad44f"/></g></svg>