<svg version="1.1" xmlns="http://www.w3.org/2000/svg" xmlns:xlink="http://www.w3.org/1999/xlink" width="520" height="260"><defs/><g transform="scale(1,1)"><g id="background-62d0e52d"><rect fill="white" stroke="none" x="0" y="0" width="520" height="260" class="dcg-svg-background"/></g><g id="background-images-62d0e52d"/><g id="graphpaper-62d0e52d"><g id="grid-62d0e52d"><g><path fill="none" stroke="rgb(0,0,0)" class="dcg-svg-minor-gridline" paint-order="fill stroke markers" d=" M 26.5 0 L 26.5 260" stroke-opacity="0.12" stroke-miterlimit="10" stroke-dasharray=""/><path fill="none" stroke="rgb(0,0,0)" class="dcg-svg-minor-gridline" paint-order="fill stroke markers" d=" M 52.5 0 L 52.5 260" stroke-opacity="0.12" stroke-miterlimit="10" stroke-dasharray=""/><path fill="none" stroke="rgb(0,0,0)" class="dcg-svg-minor-gridline" paint-order="fill stroke markers" d=" M 78.5 0 L 78.5 260" stroke-opacity="0.12" stroke-miterlimit="10" stroke-dasharray=""/><path fill="none" stroke="rgb(0,0,0)" class="dcg-svg-minor-gridline" paint-order="fill stroke markers" d=" M 104.5 0 L 104.5 260" stroke-opacity="0.12" stroke-miterlimit="10" stroke-dasharray=""/><path fill="none" stroke="rgb(0,0,0)" class="dcg-svg-minor-gridline" paint-order="fill stroke markers" d=" M 130.5 0 L 130.5 260" stroke-opacity="0.12" stroke-miterlimit="10" stroke-dasharray=""/><path fill="none" stroke="rgb(0,0,0)" class="dcg-svg-minor-gridline" paint-order="fill stroke markers" d=" M 156.5 0 L 156.5 260" stroke-opacity="0.12" stroke-miterlimit="10" stroke-dasharray=""/><path fill="none" stroke="rgb(0,0,0)" class="dcg-svg-minor-gridline" paint-order="fill stroke markers" d=" M 182.5 0 L 182.5 260" stroke-opacity="0.12" stroke-miterlimit="10" stroke-dasharray=""/><path fill="none" stroke="rgb(0,0,0)" class="dcg-svg-minor-gridline" paint-order="fill stroke markers" d=" M 208.5 0 L 208.5 260" stroke-opacity="0.12" stroke-miterlimit="10" stroke-dasharray=""/><path fill="none" stroke="rgb(0,0,0)" class="dcg-svg-minor-gridline" paint-order="fill stroke markers" d=" M 234.5 0 L 234.5 260" stroke-opacity="0.12" stroke-miterlimit="10" stroke-dasharray=""/><path fill="none" stroke="rgb(0,0,0)" class="dcg-svg-minor-gridline" paint-order="fill stroke markers" d=" M 286.5 0 L 286.5 260" stroke-opacity="0.12" stroke-miterlimit="10" stroke-dasharray=""/><path fill="none" stroke="rgb(0,0,0)" class="dcg-svg-minor-gridline" paint-order="fill stroke markers" d=" M 312.5 0 L 312.5 260" stroke-opacity="0.12" stroke-miterlimit="10" stroke-dasharray=""/><path fill="none" stroke="rgb(0,0,0)" class="dcg-svg-minor-gridline" paint-order="fill stroke markers" d=" M 338.5 0 L 338.5 260" stroke-opacity="0.12" stroke-miterlimit="10" stroke-dasharray=""/><path fill="none" stroke="rgb(0,0,0)" class="dcg-svg-minor-gridline" paint-order="fill stroke markers" d=" M 364.5 0 L 364.5 260" stroke-opacity="0.12" stroke-miterlimit="10" stroke-dasharray=""/><path fill="none" stroke="rgb(0,0,0)" class="dcg-svg-minor-gridline" paint-order="fill stroke markers" d=" M 390.5 0 L 390.5 260" stroke-opacity="0.12" stroke-miterlimit="10" stroke-dasharray=""/><path fill="none" stroke="rgb(0,0,0)" class="dcg-svg-minor-gridline" paint-order="fill stroke markers" d=" M 416.5 0 L 416.5 260" stroke-opacity="0.12" stroke-miterlimit="10" stroke-dasharray=""/><path fill="none" stroke="rgb(0,0,0)" class="dcg-svg-minor-gridline" paint-order="fill stroke markers" d=" M 442.5 0 L 442.5 260" stroke-opacity="0.12" stroke-miterlimit="10" stroke-dasharray=""/><path fill="none" stroke="rgb(0,0,0)" class="dcg-svg-minor-gridline" paint-order="fill stroke markers" d=" M 468.5 0 L 468.5 260" stroke-opacity="0.12" stroke-miterlimit="10" stroke-dasharray=""/><path fill="none" stroke="rgb(0,0,0)" class="dcg-svg-minor-gridline" paint-order="fill stroke markers" d=" M 494.5 0 L 494.5 260" stroke-opacity="0.12" stroke-miterlimit="10" stroke-dasharray=""/><path fill="none" stroke="rgb(0,0,0)" class="dcg-svg-minor-gridline" paint-order="fill stroke markers" d=" M 0 234.5 L 520 234.5" stroke-opacity="0.12" stroke-miterlimit="10" stroke-dasharray=""/><path fill="none" stroke="rgb(0,0,0)" class="dcg-svg-minor-gridline" paint-order="fill stroke markers" d=" M 0 208.5 L 520 208.5" stroke-opacity="0.12" stroke-miterlimit="10" stroke-dasharray=""/><path fill="none" stroke="rgb(0,0,0)" class="dcg-svg-minor-gridline" paint-order="fill stroke markers" d=" M 0 182.5 L 520 182.5" stroke-opacity="0.12" stroke-miterlimit="10" stroke-dasharray=""/><path fill="none" stroke="rgb(0,0,0)" class="dcg-svg-minor-gridline" paint-order="fill stroke markers" d=" M 0 156.5 L 520 156.5" stroke-opacity="0.12" stroke-miterlimit="10" stroke-dasharray=""/><path fill="none" stroke="rgb(0,0,0)" class="dcg-svg-minor-gridline" paint-order="fill stroke markers" d=" M 0 104.5 L 520 104.5" stroke-opacity="0.12" stroke-miterlimit="10" stroke-dasharray=""/><path fill="none" stroke="rgb(0,0,0)" class="dcg-svg-minor-gridline" paint-order="fill stroke markers" d=" M 0 78.5 L 520 78.5" stroke-opacity="0.12" stroke-miterlimit="10" stroke-dasharray=""/><path fill="none" stroke="rgb(0,0,0)" class="dcg-svg-minor-gridline" paint-order="fill stroke markers" d=" M 0 52.5 L 520 52.5" stroke-opacity="0.12" stroke-miterlimit="10" stroke-dasharray=""/><path fill="none" stroke="rgb(0,0,0)" class="dcg-svg-minor-gridline" paint-order="fill stroke markers" d=" M 0 26.5 L 520 26.5" stroke-opacity="0.12" stroke-miterlimit="10" stroke-dasharray=""/><path fill="none" stroke="rgb(0,0,0)" class="dcg-svg-major-gridline" paint-order="fill stroke markers" d=" M 130.5 0 L 130.5 260" stroke-opacity="0.31818181818181823" stroke-miterlimit="10" stroke-dasharray=""/><path fill="none" stroke="rgb(0,0,0)" class="dcg-svg-major-gridline" paint-order="fill stroke markers" d=" M 390.5 0 L 390.5 260" stroke-opacity="0.31818181818181823" stroke-miterlimit="10" stroke-dasharray=""/></g></g><g id="axis-62d0e52d"><g id="yaxis-62d0e52d"><title>Y axis</title><g><path fill="none" stroke="rgb(0,0,0)" class="dcg-svg-axis-line" paint-order="fill stroke markers" d=" M 259.75 0 L 259.75 260" stroke-opacity="0.9" stroke-miterlimit="10" stroke-width="1.5" stroke-dasharray=""/></g></g><g id="xaxis-62d0e52d"><title>X axis</title><g><path fill="none" stroke="rgb(0,0,0)" class="dcg-svg-axis-line" paint-order="fill stroke markers" d=" M 0 129.75 L 520 129.75" stroke-opacity="0.9" stroke-miterlimit="10" stroke-width="1.5" stroke-dasharray=""/></g></g><g><g class="dcg-svg-axis-value"><text fill="none" stroke="#ffffff" font-family="Arial" font-size="14px" font-style="normal" font-weight="normal" text-decoration="normal" x="251.10693359375" y="145.808" text-anchor="middle" stroke-miterlimit="2" stroke-width="3" stroke-dasharray="">0</text><text fill="#000000" stroke="none" font-family="Arial" font-size="14px" font-style="normal" font-weight="normal" text-decoration="normal" x="251.10693359375" y="145.808" text-anchor="middle">0</text></g><g class="dcg-svg-axis-value dcg-svg-offcenter-axis-value"><text fill="none" stroke="#ffffff" font-family="Arial" font-size="14px" font-style="normal" font-weight="normal" text-decoration="normal" x="13.1171875" y="145.808" text-anchor="middle" stroke-miterlimit="2" stroke-width="3" stroke-dasharray="">-10</text><text fill="#000000" stroke="none" font-family="Arial" font-size="14px" font-style="normal" font-weight="normal" text-decoration="normal" x="13.1171875" y="145.808" text-anchor="middle">-10</text></g><g class="dcg-svg-axis-value"><text fill="none" stroke="#ffffff" font-family="Arial" font-size="14px" font-style="normal" font-weight="normal" text-decoration="normal" x="127.6689453125" y="145.808" text-anchor="middle" stroke-miterlimit="2" stroke-width="3" stroke-dasharray="">-5</text><text fill="#000000" stroke="none" font-family="Arial" font-size="14px" font-style="normal" font-weight="normal" text-decoration="normal" x="127.6689453125" y="145.808" text-anchor="middle">-5</text></g><g class="dcg-svg-axis-value"><text fill="none" stroke="#ffffff" font-family="Arial" font-size="14px" font-style="normal" font-weight="normal" text-decoration="normal" x="390" y="145.808" text-anchor="middle" stroke-miterlimit="2" stroke-width="3" stroke-dasharray="">5</text><text fill="#000000" stroke="none" font-family="Arial" font-size="14px" font-style="normal" font-weight="normal" text-decoration="normal" x="390" y="145.808" text-anchor="middle">5</text></g><g class="dcg-svg-axis-value dcg-svg-offcenter-axis-value"><text fill="none" stroke="#ffffff" font-family="Arial" font-size="14px" font-style="normal" font-weight="normal" text-decoration="normal" x="509.2138671875" y="145.808" text-anchor="middle" stroke-miterlimit="2" stroke-width="3" stroke-dasharray="">10</text><text fill="#000000" stroke="none" font-family="Arial" font-size="14px" font-style="normal" font-weight="normal" text-decoration="normal" x="509.2138671875" y="145.808" text-anchor="middle">10</text></g><g class="dcg-svg-axis-value dcg-svg-offcenter-axis-value"><text fill="none" stroke="#ffffff" font-family="Arial" font-size="14px" font-style="normal" font-weight="normal" text-decoration="normal" x="248.77587890625" y="253.808" text-anchor="middle" stroke-miterlimit="2" stroke-width="3" stroke-dasharray="">-5</text><text fill="#000000" stroke="none" font-family="Arial" font-size="14px" font-style="normal" font-weight="normal" text-decoration="normal" x="248.77587890625" y="253.808" text-anchor="middle">-5</text></g><g class="dcg-svg-axis-value dcg-svg-offcenter-axis-value"><text fill="none" stroke="#ffffff" font-family="Arial" font-size="14px" font-style="normal" font-weight="normal" text-decoration="normal" x="251.10693359375" y="13.808" text-anchor="middle" stroke-miterlimit="2" stroke-width="3" stroke-dasharray="">5</text><text fill="#000000" stroke="none" font-family="Arial" font-size="14px" font-style="normal" font-weight="normal" text-decoration="normal" x="251.10693359375" y="13.808" text-anchor="middle">5</text></g></g></g></g><g id="expressions-62d0e52d"><g id="sketch-62d0e52d"><title>Expression 1</title><path fill="#0000ff" stroke="none" paint-order="stroke fill markers" d="" fill-opacity="0.4"/><g><path fill="none" stroke="#0000ff" class="dcg-svg-curve" paint-order="fill stroke markers" d=" M 234 130 L 234 130 L 234.228515625 133.4395629241418 L 234.736328125 136.14384923255233 L 235.498046875 138.6979476349483 L 236.513671875 141.15313369438536 L 237.783203125 143.50607036169257 L 239.1796875 145.57287986861593 L 240.830078125 147.56456931741843 L 242.734375 149.43960373462832 L 244.765625 151.06926240662864 L 247.05078125 152.54590281547067 L 249.3359375 153.71239698967807 L 251.62109375 154.61288138462686 L 253.779296875 155.24485794435404 L 255.9375 155.68065602257855 L 258.095703125 155.93016878872686 L 260.25390625 155.99876019382867 L 262.412109375 155.88786836267207 L 264.5703125 155.59516055140784 L 266.728515625 155.11428034971598 L 268.88671875 154.4341201981655 L 271.044921875 153.53741066419894 L 273.203125 152.39815818843985 L 275.361328125 150.97688247180892 L 277.392578125 149.32610219795424 L 279.296875 147.4249997197812 L 280.947265625 145.40169025904927 L 282.34375 143.29499288971226 L 283.486328125 141.15313369438536 L 284.501953125 138.6979476349483 L 285.263671875 136.14384923255233 L 285.771484375 133.4395629241418 L 285.8984375 132.29585170657725 L 286 130" stroke-linecap="round" stroke-linejoin="round" stroke-miterlimit="10" stroke-width="2.5" stroke-dasharray=""/></g><path fill="#0000ff" stroke="none" paint-order="stroke fill markers" d="" fill-opacity="0.4"/><g><path fill="none" stroke="#0000ff" class="dcg-svg-curve" paint-order="fill stroke markers" d=" M 234 130 L 234 130 L 234.228515625 126.5604370758582 L 234.736328125 123.85615076744766 L 235.498046875 121.30205236505171 L 236.513671875 118.84686630561464 L 237.783203125 116.49392963830743 L 239.1796875 114.42712013138406 L 240.830078125 112.43543068258158 L 242.734375 110.5603962653717 L 244.765625 108.93073759337136 L 247.05078125 107.45409718452933 L 249.3359375 106.28760301032193 L 251.62109375 105.38711861537315 L 253.779296875 104.75514205564596 L 255.9375 104.31934397742145 L 258.095703125 104.06983121127313 L 260.25390625 104.00123980617131 L 262.412109375 104.11213163732793 L 264.5703125 104.40483944859216 L 266.728515625 104.885719650284 L 268.88671875 105.56587980183451 L 271.044921875 106.46258933580106 L 273.203125 107.60184181156015 L 275.361328125 109.02311752819108 L 277.392578125 110.67389780204576 L 279.296875 112.5750002802188 L 280.947265625 114.59830974095073 L 282.34375 116.70500711028772 L 283.486328125 118.84686630561464 L 284.501953125 121.30205236505171 L 285.263671875 123.85615076744766 L 285.771484375 126.5604370758582 L 285.8984375 127.70414829342273 L 286 130" stroke-linecap="round" stroke-linejoin="round" stroke-miterlimit="10" stroke-width="2.5" stroke-dasharray=""/></g></g><g id="sketch-62d0e52d"><title>Expression 2</title><path fill="#00ff00" stroke="none" paint-order="stroke fill markers" d="" fill-opacity="0.4"/><g><path fill="none" stroke="#00ff00" class="dcg-svg-curve" paint-order="fill stroke markers" d=" M 208 130 L 208 130 L 208.203125 132.29585170657725 L 208.7109375 134.28462565083268 L 209.47265625 136.14384923255233 L 210.48828125 137.94653550959313 L 211.7578125 139.70426897317418 L 213.408203125 141.5456102476086 L 215.439453125 143.40109755020953 L 217.8515625 145.22751798807502 L 220.64453125 146.99372736826572 L 223.69140625 148.61240191308917 L 226.9921875 150.0903230061443 L 230.419921875 151.38351571958466 L 234.1015625 152.54590281547067 L 237.91015625 153.53741066419894 L 241.845703125 154.36401806442424 L 245.908203125 155.02709162504576 L 249.970703125 155.5118266897586 L 254.16015625 155.83551927567737 L 258.349609375 155.98690156013657 L 262.5390625 155.96898708854994 L 266.728515625 155.7814229508581 L 270.91796875 155.42045415789232 L 274.98046875 154.8977185502521 L 278.916015625 154.21871359545526 L 282.724609375 153.38585111105465 L 286.40625 152.39815818843985 L 289.9609375 151.25054248790542 L 293.388671875 149.9323643255359 L 296.5625 148.48772291109697 L 299.609375 146.84560337379887 L 302.40234375 145.05025950363344 L 304.814453125 143.18772906063793 L 306.845703125 141.285832919244 L 308.49609375 139.38254884068306 L 309.765625 137.53960490276802 L 310.78125 135.5960845337946 L 311.416015625 133.88565751352832 L 311.796875 132.29585170657725 L 312 130" stroke-linecap="round" stroke-linejoin="round" stroke-miterlimit="10" stroke-width="2.5" stroke-dasharray=""/></g><path fill="#00ff00" stroke="none" paint-order="stroke fill markers" d="" fill-opacity="0.4"/><g><path fill="none" stroke="#00ff00" class="dcg-svg-curve" paint-order="fill stroke markers" d=" M 208 130 L 208 130 L 208.203125 127.70414829342273 L 208.7109375 125.7153743491673 L 209.47265625 123.85615076744766 L 210.48828125 122.05346449040687 L 211.7578125 120.29573102682582 L 213.408203125 118.45438975239139 L 215.439453125 116.59890244979047 L 217.8515625 114.77248201192498 L 220.64453125 113.00627263173428 L 223.69140625 111.38759808691083 L 226.9921875 109.9096769938557 L 230.419921875 108.61648428041534 L 234.1015625 107.45409718452933 L 237.91015625 106.46258933580106 L 241.845703125 105.63598193557576 L 245.908203125 104.97290837495424 L 249.970703125 104.48817331024141 L 254.16015625 104.16448072432264 L 258.349609375 104.01309843986344 L 262.5390625 104.03101291145006 L 266.728515625 104.2185770491419 L 270.91796875 104.57954584210766 L 274.98046875 105.10228144974789 L 278.916015625 105.78128640454474 L 282.724609375 106.61414888894535 L 286.40625 107.60184181156015 L 289.9609375 108.74945751209458 L 293.388671875 110.0676356744641 L 296.5625 111.51227708890303 L 299.609375 113.15439662620113 L 302.40234375 114.94974049636656 L 304.814453125 116.81227093936207 L 306.845703125 118.71416708075601 L 308.49609375 120.61745115931696 L 309.765625 122.46039509723197 L 310.78125 124.4039154662054 L 311.416015625 126.1143424864717 L 311.796875 127.70414829342273 L 312 130" stroke-linecap="round" stroke-linejoin="round" stroke-miterlimit="10" stroke-width="2.5" stroke-dasharray=""/></g></g><g id="sketch-62d0e52d"><title>Expression 3</title><path fill="#ffa500" stroke="none" paint-order="stroke fill markers" d="" fill-opacity="0.4"/><g><path fill="none" stroke="#ffa500" class="dcg-svg-curve" paint-order="fill stroke markers" d=" M 208 130 L 208 130 L 208.203125 134.59170341315453 L 208.7109375 138.5692513016654 L 209.47265625 142.28769846510468 L 210.48828125 145.89307101918627 L 211.7578125 149.40853794634836 L 213.28125 152.83327393164416 L 214.931640625 155.93921709007134 L 216.8359375 158.997650051273 L 218.994140625 161.9768587718951 L 221.279296875 164.70889150499647 L 223.818359375 167.34821122468048 L 226.611328125 169.8647286510718 L 229.53125 172.13852481325728 L 232.705078125 174.26044780430544 L 236.005859375 176.13329833935273 L 239.1796875 177.64991697162066 L 242.353515625 178.91422685888924 L 245.52734375 179.94539239078352 L 248.57421875 180.7291979320307 L 251.62109375 181.32050204405363 L 254.66796875 181.72590688184232 L 257.71484375 181.94976478207658 L 260.634765625 181.99612555374983 L 263.5546875 181.87835961918364 L 266.474609375 181.5953431371588 L 269.39453125 181.14433284922947 L 272.44140625 180.48971588870808 L 275.48828125 179.63983424550185 L 278.53515625 178.58444177705542 L 281.58203125 177.30978680066127 L 284.62890625 175.79756518559378 L 287.67578125 174.02330215013575 L 290.72265625 171.95376494361784 L 293.642578125 169.65068646446454 L 296.435546875 167.10055153120607 L 298.974609375 164.423535903015 L 301.259765625 161.64856616926062 L 303.41796875 158.6160792147356 L 305.322265625 155.49298410576807 L 306.97265625 152.30626738877072 L 308.369140625 149.08995115758484 L 309.51171875 145.89307101918627 L 310.52734375 142.28769846510468 L 311.2890625 138.5692513016654 L 311.796875 134.59170341315453 L 312 130" stroke-linecap="round" stroke-linejoin="round" stroke-miterlimit="10" stroke-width="2.5" stroke-dasharray=""/></g><path fill="#ffa500" stroke="none" paint-order="stroke fill markers" d="" fill-opacity="0.4"/><g><path fill="none" stroke="#ffa500" class="dcg-svg-curve" paint-order="fill stroke markers" d=" M 208 130 L 208 130 L 208.203125 125.40829658684547 L 208.7109375 121.43074869833463 L 209.47265625 117.71230153489532 L 210.48828125 114.10692898081373 L 211.7578125 110.59146205365165 L 213.28125 107.16672606835586 L 214.931640625 104.06078290992865 L 216.8359375 101.00234994872699 L 218.994140625 98.0231412281049 L 221.279296875 95.29110849500354 L 223.818359375 92.65178877531952 L 226.611328125 90.1352713489282 L 229.53125 87.86147518674271 L 232.705078125 85.73955219569456 L 236.005859375 83.86670166064728 L 239.1796875 82.35008302837933 L 242.353515625 81.08577314111076 L 245.52734375 80.05460760921648 L 248.57421875 79.2708020679693 L 251.62109375 78.67949795594639 L 254.66796875 78.27409311815768 L 257.71484375 78.05023521792342 L 260.634765625 78.00387444625015 L 263.5546875 78.12164038081636 L 266.474609375 78.40465686284118 L 269.39453125 78.85566715077053 L 272.44140625 79.51028411129192 L 275.48828125 80.36016575449815 L 278.53515625 81.4155582229446 L 281.58203125 82.69021319933873 L 284.62890625 84.20243481440622 L 287.67578125 85.97669784986424 L 290.72265625 88.04623505638217 L 293.642578125 90.34931353553546 L 296.435546875 92.89944846879392 L 298.974609375 95.576464096985 L 301.259765625 98.35143383073938 L 303.41796875 101.3839207852644 L 305.322265625 104.50701589423193 L 306.97265625 107.69373261122928 L 308.369140625 110.91004884241516 L 309.51171875 114.10692898081373 L 310.52734375 117.71230153489532 L 311.2890625 121.43074869833463 L 311.796875 125.40829658684547 L 312 130" stroke-linecap="round" stroke-linejoin="round" stroke-miterlimit="10" stroke-width="2.5" stroke-dasharray=""/></g></g></g><g id="labels-62d0e52d"/></g></svg>