<svg version="1.1" xmlns="http://www.w3.org/2000/svg" xmlns:xlink="http://www.w3.org/1999/xlink" width="520" height="260"><defs/><g transform="scale(1,1)"><g id="background-df4f5e68"><rect fill="white" stroke="none" x="0" y="0" width="520" height="260" class="dcg-svg-background"/></g><g id="background-images-df4f5e68"/><g id="graphpaper-df4f5e68"><g id="grid-df4f5e68"><g><path fill="none" stroke="rgb(0,0,0)" class="dcg-svg-minor-gridline" paint-order="fill stroke markers" d=" M 26.5 0 L 26.5 260" stroke-opacity="0.12" stroke-miterlimit="10" stroke-dasharray=""/><path fill="none" stroke="rgb(0,0,0)" class="dcg-svg-minor-gridline" paint-order="fill stroke markers" d=" M 52.5 0 L 52.5 260" stroke-opacity="0.12" stroke-miterlimit="10" stroke-dasharray=""/><path fill="none" stroke="rgb(0,0,0)" class="dcg-svg-minor-gridline" paint-order="fill stroke markers" d=" M 78.5 0 L 78.5 260" stroke-opacity="0.12" stroke-miterlimit="10" stroke-dasharray=""/><path fill="none" stroke="rgb(0,0,0)" class="dcg-svg-minor-gridline" paint-order="fill stroke markers" d=" M 104.5 0 L 104.5 260" stroke-opacity="0.12" stroke-miterlimit="10" stroke-dasharray=""/><path fill="none" stroke="rgb(0,0,0)" class="dcg-svg-minor-gridline" paint-order="fill stroke markers" d=" M 130.5 0 L 130.5 260" stroke-opacity="0.12" stroke-miterlimit="10" stroke-dasharray=""/><path fill="none" stroke="rgb(0,0,0)" class="dcg-svg-minor-gridline" paint-order="fill stroke markers" d=" M 156.5 0 L 156.5 260" stroke-opacity="0.12" stroke-miterlimit="10" stroke-dasharray=""/><path fill="none" stroke="rgb(0,0,0)" class="dcg-svg-minor-gridline" paint-order="fill stroke markers" d=" M 182.5 0 L 182.5 260" stroke-opacity="0.12" stroke-miterlimit="10" stroke-dasharray=""/><path fill="none" stroke="rgb(0,0,0)" class="dcg-svg-minor-gridline" paint-order="fill stroke markers" d=" M 208.5 0 L 208.5 260" stroke-opacity="0.12" stroke-miterlimit="10" stroke-dasharray=""/><path fill="none" stroke="rgb(0,0,0)" class="dcg-svg-minor-gridline" paint-order="fill stroke markers" d=" M 234.5 0 L 234.5 260" stroke-opacity="0.12" stroke-miterlimit="10" stroke-dasharray=""/><path fill="none" stroke="rgb(0,0,0)" class="dcg-svg-minor-gridline" paint-order="fill stroke markers" d=" M 286.5 0 L 286.5 260" stroke-opacity="0.12" stroke-miterlimit="10" stroke-dasharray=""/><path fill="none" stroke="rgb(0,0,0)" class="dcg-svg-minor-gridline" paint-order="fill stroke markers" d=" M 312.5 0 L 312.5 260" stroke-opacity="0.12" stroke-miterlimit="10" stroke-dasharray=""/><path fill="none" stroke="rgb(0,0,0)" class="dcg-svg-minor-gridline" paint-order="fill stroke markers" d=" M 338.5 0 L 338.5 260" stroke-opacity="0.12" stroke-miterlimit="10" stroke-dasharray=""/><path fill="none" stroke="rgb(0,0,0)" class="dcg-svg-minor-gridline" paint-order="fill stroke markers" d=" M 364.5 0 L 364.5 260" stroke-opacity="0.12" stroke-miterlimit="10" stroke-dasharray=""/><path fill="none" stroke="rgb(0,0,0)" class="dcg-svg-minor-gridline" paint-order="fill stroke markers" d=" M 390.5 0 L 390.5 260" stroke-opacity="0.12" stroke-miterlimit="10" stroke-dasharray=""/><path fill="none" stroke="rgb(0,0,0)" class="dcg-svg-minor-gridline" paint-order="fill stroke markers" d=" M 416.5 0 L 416.5 260" stroke-opacity="0.12" stroke-miterlimit="10" stroke-dasharray=""/><path fill="none" stroke="rgb(0,0,0)" class="dcg-svg-minor-gridline" paint-order="fill stroke markers" d=" M 442.5 0 L 442.5 260" stroke-opacity="0.12" stroke-miterlimit="10" stroke-dasharray=""/><path fill="none" stroke="rgb(0,0,0)" class="dcg-svg-minor-gridline" paint-order="fill stroke markers" d=" M 468.5 0 L 468.5 260" stroke-opacity="0.12" stroke-miterlimit="10" stroke-dasharray=""/><path fill="none" stroke="rgb(0,0,0)" class="dcg-svg-minor-gridline" paint-order="fill stroke markers" d=" M 494.5 0 L 494.5 260" stroke-opacity="0.12" stroke-miterlimit="10" stroke-dasharray=""/><path fill="none" stroke="rgb(0,0,0)" class="dcg-svg-minor-gridline" paint-order="fill stroke markers" d=" M 0 234.5 L 520 234.5" stroke-opacity="0.12" stroke-miterlimit="10" stroke-dasharray=""/><path fill="none" stroke="rgb(0,0,0)" class="dcg-svg-minor-gridline" paint-order="fill stroke markers" d=" M 0 208.5 L 520 208.5" stroke-opacity="0.12" stroke-miterlimit="10" stroke-dasharray=""/><path fill="none" stroke="rgb(0,0,0)" class="dcg-svg-minor-gridline" paint-order="fill stroke markers" d=" M 0 182.5 L 520 182.5" stroke-opacity="0.12" stroke-miterlimit="10" stroke-dasharray=""/><path fill="none" stroke="rgb(0,0,0)" class="dcg-svg-minor-gridline" paint-order="fill stroke markers" d=" M 0 156.5 L 520 156.5" stroke-opacity="0.12" stroke-miterlimit="10" stroke-dasharray=""/><path fill="none" stroke="rgb(0,0,0)" class="dcg-svg-minor-gridline" paint-order="fill stroke markers" d=" M 0 104.5 L 520 104.5" stroke-opacity="0.12" stroke-miterlimit="10" stroke-dasharray=""/><path fill="none" stroke="rgb(0,0,0)" class="dcg-svg-minor-gridline" paint-order="fill stroke markers" d=" M 0 78.5 L 520 78.5" stroke-opacity="0.12" stroke-miterlimit="10" stroke-dasharray=""/><path fill="none" stroke="rgb(0,0,0)" class="dcg-svg-minor-gridline" paint-order="fill stroke markers" d=" M 0 52.5 L 520 52.5" stroke-opacity="0.12" stroke-miterlimit="10" stroke-dasharray=""/><path fill="none" stroke="rgb(0,0,0)" class="dcg-svg-minor-gridline" paint-order="fill stroke markers" d=" M 0 26.5 L 520 26.5" stroke-opacity="0.12" stroke-miterlimit="10" stroke-dasharray=""/><path fill="none" stroke="rgb(0,0,0)" class="dcg-svg-major-gridline" paint-order="fill stroke markers" d=" M 130.5 0 L 130.5 260" stroke-opacity="0.31818181818181823" stroke-miterlimit="10" stroke-dasharray=""/><path fill="none" stroke="rgb(0,0,0)" class="dcg-svg-major-gridline" paint-order="fill stroke markers" d=" M 390.5 0 L 390.5 260" stroke-opacity="0.31818181818181823" stroke-miterlimit="10" stroke-dasharray=""/></g></g><g id="axis-df4f5e68"><g id="yaxis-df4f5e68"><title>Y axis</title><g><path fill="none" stroke="rgb(0,0,0)" class="dcg-svg-axis-line" paint-order="fill stroke markers" d=" M 259.75 0 L 259.75 260" stroke-opacity="0.9" stroke-miterlimit="10" stroke-width="1.5" stroke-dasharray=""/></g></g><g id="xaxis-df4f5e68"><title>X axis</title><g><path fill="none" stroke="rgb(0,0,0)" class="dcg-svg-axis-line" paint-order="fill stroke markers" d=" M 0 129.75 L 520 129.75" stroke-opacity="0.9" stroke-miterlimit="10" stroke-width="1.5" stroke-dasharray=""/></g></g><g><g class="dcg-svg-axis-value"><text fill="none" stroke="#ffffff" font-family="Arial" font-size="14px" font-style="normal" font-weight="normal" text-decoration="normal" x="251.10693359375" y="145.808" text-anchor="middle" stroke-miterlimit="2" stroke-width="3" stroke-dasharray="">0</text><text fill="#000000" stroke="none" font-family="Arial" font-size="14px" font-style="normal" font-weight="normal" text-decoration="normal" x="251.10693359375" y="145.808" text-anchor="middle">0</text></g><g class="dcg-svg-axis-value dcg-svg-offcenter-axis-value"><text fill="none" stroke="#ffffff" font-family="Arial" font-size="14px" font-style="normal" font-weight="normal" text-decoration="normal" x="13.1171875" y="145.808" text-anchor="middle" stroke-miterlimit="2" stroke-width="3" stroke-dasharray="">-10</text><text fill="#000000" stroke="none" font-family="Arial" font-size="14px" font-style="normal" font-weight="normal" text-decoration="normal" x="13.1171875" y="145.808" text-anchor="middle">-10</text></g><g class="dcg-svg-axis-value"><text fill="none" stroke="#ffffff" font-family="Arial" font-size="14px" font-style="normal" font-weight="normal" text-decoration="normal" x="127.6689453125" y="145.808" text-anchor="middle" stroke-miterlimit="2" stroke-width="3" stroke-dasharray="">-5</text><text fill="#000000" stroke="none" font-family="Arial" font-size="14px" font-style="normal" font-weight="normal" text-decoration="normal" x="127.6689453125" y="145.808" text-anchor="middle">-5</text></g><g class="dcg-svg-axis-value"><text fill="none" stroke="#ffffff" font-family="Arial" font-size="14px" font-style="normal" font-weight="normal" text-decoration="normal" x="390" y="145.808" text-anchor="middle" stroke-miterlimit="2" stroke-width="3" stroke-dasharray="">5</text><text fill="#000000" stroke="none" font-family="Arial" font-size="14px" font-style="normal" font-weight="normal" text-decoration="normal" x="390" y="145.808" text-anchor="middle">5</text></g><g class="dcg-svg-axis-value dcg-svg-offcenter-axis-value"><text fill="none" stroke="#ffffff" font-family="Arial" font-size="14px" font-style="normal" font-weight="normal" text-decoration="normal" x="509.2138671875" y="145.808" text-anchor="middle" stroke-miterlimit="2" stroke-width="3" stroke-dasharray="">10</text><text fill="#000000" stroke="none" font-family="Arial" font-size="14px" font-style="normal" font-weight="normal" text-decoration="normal" x="509.2138671875" y="145.808" text-anchor="middle">10</text></g><g class="dcg-svg-axis-value dcg-svg-offcenter-axis-value"><text fill="none" stroke="#ffffff" font-family="Arial" font-size="14px" font-style="normal" font-weight="normal" text-decoration="normal" x="248.77587890625" y="253.808" text-anchor="middle" stroke-miterlimit="2" stroke-width="3" stroke-dasharray="">-5</text><text fill="#000000" stroke="none" font-family="Arial" font-size="14px" font-style="normal" font-weight="normal" text-decoration="normal" x="248.77587890625" y="253.808" text-anchor="middle">-5</text></g><g class="dcg-svg-axis-value dcg-svg-offcenter-axis-value"><text fill="none" stroke="#ffffff" font-family="Arial" font-size="14px" font-style="normal" font-weight="normal" text-decoration="normal" x="251.10693359375" y="13.808" text-anchor="middle" stroke-miterlimit="2" stroke-width="3" stroke-dasharray="">5</text><text fill="#000000" stroke="none" font-family="Arial" font-size="14px" font-style="normal" font-weight="normal" text-decoration="normal" x="251.10693359375" y="13.808" text-anchor="middle">5</text></g></g></g></g><g id="expressions-df4f5e68"><g id="sketch-df4f5e68"><title>Expression 1</title><path fill="#2d70b3" stroke="none" paint-order="stroke fill markers" d="" fill-opacity="0.4"/><g><path fill="none" stroke="#2d70b3" class="dcg-svg-curve" paint-order="fill stroke markers" d=" M 0 115.85545111687638 L 0 115.85545111687638 L 4.31640625 119.65508389875906 L 9.6484375 124.72944575869667 L 27.67578125 142.21863008139874 L 31.865234375 145.74237753858216 L 35.546875 148.50511727539427 L 38.974609375 150.745369572718 L 42.1484375 152.49940478740638 L 44.94140625 153.76671376447874 L 47.48046875 154.68137608788825 L 49.892578125 155.33256703527505 L 52.177734375 155.74857354493602 L 54.3359375 155.95898814909577 L 56.494140625 155.9906402959889 L 58.65234375 155.8433120181228 L 60.810546875 155.5180178683308 L 62.96875 155.01699793321472 L 65.25390625 154.29882502020376 L 67.79296875 153.28114178101458 L 70.458984375 151.97401159419 L 73.37890625 150.27810031761467 L 76.6796875 148.05459058877676 L 80.361328125 145.2334881219142 L 84.423828125 141.76911757281718 L 89.248046875 137.29006817435314 L 96.23046875 130.40669667656366 L 105.625 121.19012038782557 L 110.44921875 116.82850159074142 L 114.51171875 113.50057394831339 L 118.193359375 110.82986972368367 L 121.62109375 108.68731437472715 L 124.66796875 107.0923336919827 L 127.333984375 105.95384826105699 L 129.873046875 105.10427772893085 L 132.158203125 104.54231628245434 L 134.31640625 104.19197400990817 L 136.474609375 104.01935461764889 L 138.6328125 104.02564682176029 L 140.791015625 104.21080729197611 L 142.94921875 104.57356095006702 L 145.234375 105.14842754084457 L 147.646484375 105.96325156513453 L 150.185546875 107.04414355656836 L 152.978515625 108.48532185409643 L 156.025390625 110.33974092207652 L 159.453125 112.74690524477575 L 163.26171875 115.77072877152632 L 167.578125 119.56241017275612 L 172.783203125 124.50633381203062 L 191.4453125 142.57612408307787 L 195.634765625 146.06412656408324 L 199.31640625 148.7885364211391 L 202.744140625 150.98798470604197 L 205.791015625 152.6383007997273 L 208.583984375 153.87877261213188 L 211.123046875 154.7679080455817 L 213.53515625 155.39408083236285 L 215.8203125 155.78589435685456 L 217.978515625 155.97319227877148 L 220.13671875 155.98162992893415 L 222.294921875 155.81114920280217 L 224.453125 155.462924088874 L 226.73828125 154.9031646983561 L 229.150390625 154.10385277880687 L 231.689453125 153.0386633481853 L 234.482421875 151.61384093535568 L 237.529296875 149.7759546781676 L 240.95703125 147.38548231527426 L 244.765625 144.3774993603937 L 248.955078125 140.7157137523184 L 254.16015625 135.79086472046396 L 264.31640625 125.70339399155856 L 270.537109375 119.74897836981656 L 275.107421875 115.72844819827442 L 279.04296875 112.61451768472574 L 282.59765625 110.14186281692014 L 285.8984375 108.1767956259367 L 288.818359375 106.73038001496846 L 291.484375 105.6653898031107 L 293.896484375 104.9218502806918 L 296.181640625 104.41632409486219 L 298.33984375 104.12018238324946 L 300.498046875 104.00225793358126 L 302.65625 104.0633628138887 L 304.814453125 104.30307623509891 L 306.97265625 104.71974744873246 L 309.2578125 105.35059812879399 L 311.669921875 106.22281477955215 L 314.208984375 107.36169920027272 L 317.001953125 108.86315365034918 L 320.17578125 110.86405480953944 L 323.73046875 113.44159710852692 L 327.5390625 116.54478453455935 L 331.982421875 120.52440041843329 L 337.568359375 125.90408405425976 L 352.9296875 140.90066624213813 L 357.373046875 144.75624497484606 L 361.181640625 147.72277724221462 L 364.736328125 150.15020643592555 L 367.91015625 152.00098995112313 L 370.830078125 153.41508790436535 L 373.49609375 154.4489592984135 L 375.908203125 155.16329940679228 L 378.193359375 155.64048329757725 L 380.3515625 155.90945084597345 L 382.5221134900019 156 L 384.66796875 155.9114984311189 L 386.826171875 155.6445643674976 L 388.984375 155.20103307614391 L 391.26953125 154.54234082076294 L 393.681640625 153.64163670374472 L 396.34765625 152.409926046436 L 399.267578125 150.79133531058295 L 402.44140625 148.73564307383444 L 405.99609375 146.10384309944916 L 409.931640625 142.8417263579562 L 414.501953125 138.69033204729033 L 420.46875 132.8880954449465 L 433.41796875 120.19363153220515 L 437.98828125 116.13373860446345 L 441.923828125 112.97584780588609 L 445.478515625 110.45635285039549 L 448.779296875 108.442515465683 L 451.69921875 106.94936503948047 L 454.365234375 105.8392787596434 L 456.77734375 105.0533506326746 L 459.0625 104.50661752030548 L 461.220703125 104.17091263800941 L 463.37890625 104.0130756717995 L 465.537109375 104.0341935409256 L 467.6953125 104.2341208205293 L 469.853515625 104.61148074308899 L 472.138671875 105.20152604679487 L 474.55078125 106.03192503668201 L 477.08984375 107.12857116987564 L 479.8828125 108.58614423877 L 482.9296875 110.45711670929288 L 486.357421875 112.88096860682441 L 490.166015625 115.92059374223656 L 494.482421875 119.72628775431097 L 499.814453125 124.80542043238589 L 517.71484375 142.17501049207573 L 520 144.1445488831236" stroke-linecap="round" stroke-linejoin="round" stroke-miterlimit="10" stroke-width="2.5" stroke-dasharray=""/></g></g></g><g id="labels-df4f5e68"/></g></svg>