<svg version="1.1" xmlns="http://www.w3.org/2000/svg" xmlns:xlink="http://www.w3.org/1999/xlink" width="520" height="260"><defs/><g transform="scale(1,1)"><g id="background-d12a34cb"><rect fill="white" stroke="none" x="0" y="0" width="520" height="260" class="dcg-svg-background"/></g><g id="background-images-d12a34cb"/><g id="graphpaper-d12a34cb"><g id="grid-d12a34cb"><g><path fill="none" stroke="rgb(0,0,0)" class="dcg-svg-minor-gridline" paint-order="fill stroke markers" d=" M 26.5 0 L 26.5 260" stroke-opacity="0.12" stroke-miterlimit="10" stroke-dasharray=""/><path fill="none" stroke="rgb(0,0,0)" class="dcg-svg-minor-gridline" paint-order="fill stroke markers" d=" M 52.5 0 L 52.5 260" stroke-opacity="0.12" stroke-miterlimit="10" stroke-dasharray=""/><path fill="none" stroke="rgb(0,0,0)" class="dcg-svg-minor-gridline" paint-order="fill stroke markers" d=" M 78.5 0 L 78.5 260" stroke-opacity="0.12" stroke-miterlimit="10" stroke-dasharray=""/><path fill="none" stroke="rgb(0,0,0)" class="dcg-svg-minor-gridline" paint-order="fill stroke markers" d=" M 104.5 0 L 104.5 260" stroke-opacity="0.12" stroke-miterlimit="10" stroke-dasharray=""/><path fill="none" stroke="rgb(0,0,0)" class="dcg-svg-minor-gridline" paint-order="fill stroke markers" d=" M 130.5 0 L 130.5 260" stroke-opacity="0.12" stroke-miterlimit="10" stroke-dasharray=""/><path fill="none" stroke="rgb(0,0,0)" class="dcg-svg-minor-gridline" paint-order="fill stroke markers" d=" M 156.5 0 L 156.5 260" stroke-opacity="0.12" stroke-miterlimit="10" stroke-dasharray=""/><path fill="none" stroke="rgb(0,0,0)" class="dcg-svg-minor-gridline" paint-order="fill stroke markers" d=" M 182.5 0 L 182.5 260" stroke-opacity="0.12" stroke-miterlimit="10" stroke-dasharray=""/><path fill="none" stroke="rgb(0,0,0)" class="dcg-svg-minor-gridline" paint-order="fill stroke markers" d=" M 208.5 0 L 208.5 260" stroke-opacity="0.12" stroke-miterlimit="10" stroke-dasharray=""/><path fill="none" stroke="rgb(0,0,0)" class="dcg-svg-minor-gridline" paint-order="fill stroke markers" d=" M 234.5 0 L 234.5 260" stroke-opacity="0.12" stroke-miterlimit="10" stroke-dasharray=""/><path fill="none" stroke="rgb(0,0,0)" class="dcg-svg-minor-gridline" paint-order="fill stroke markers" d=" M 286.5 0 L 286.5 260" stroke-opacity="0.12" stroke-miterlimit="10" stroke-dasharray=""/><path fill="none" stroke="rgb(0,0,0)" class="dcg-svg-minor-gridline" paint-order="fill stroke markers" d=" M 312.5 0 L 312.5 260" stroke-opacity="0.12" stroke-miterlimit="10" stroke-dasharray=""/><path fill="none" stroke="rgb(0,0,0)" class="dcg-svg-minor-gridline" paint-order="fill stroke markers" d=" M 338.5 0 L 338.5 260" stroke-opacity="0.12" stroke-miterlimit="10" stroke-dasharray=""/><path fill="none" stroke="rgb(0,0,0)" class="dcg-svg-minor-gridline" paint-order="fill stroke markers" d=" M 364.5 0 L 364.5 260" stroke-opacity="0.12" stroke-miterlimit="10" stroke-dasharray=""/><path fill="none" stroke="rgb(0,0,0)" class="dcg-svg-minor-gridline" paint-order="fill stroke markers" d=" M 390.5 0 L 390.5 260" stroke-opacity="0.12" stroke-miterlimit="10" stroke-dasharray=""/><path fill="none" stroke="rgb(0,0,0)" class="dcg-svg-minor-gridline" paint-order="fill stroke markers" d=" M 416.5 0 L 416.5 260" stroke-opacity="0.12" stroke-miterlimit="10" stroke-dasharray=""/><path fill="none" stroke="rgb(0,0,0)" class="dcg-svg-minor-gridline" paint-order="fill stroke markers" d=" M 442.5 0 L 442.5 260" stroke-opacity="0.12" stroke-miterlimit="10" stroke-dasharray=""/><path fill="none" stroke="rgb(0,0,0)" class="dcg-svg-minor-gridline" paint-order="fill stroke markers" d=" M 468.5 0 L 468.5 260" stroke-opacity="0.12" stroke-miterlimit="10" stroke-dasharray=""/><path fill="none" stroke="rgb(0,0,0)" class="dcg-svg-minor-gridline" paint-order="fill stroke markers" d=" M 494.5 0 L 494.5 260" stroke-opacity="0.12" stroke-miterlimit="10" stroke-dasharray=""/><path fill="none" stroke="rgb(0,0,0)" class="dcg-svg-minor-gridline" paint-order="fill stroke markers" d=" M 0 234.5 L 520 234.5" stroke-opacity="0.12" stroke-miterlimit="10" stroke-dasharray=""/><path fill="none" stroke="rgb(0,0,0)" class="dcg-svg-minor-gridline" paint-order="fill stroke markers" d=" M 0 208.5 L 520 208.5" stroke-opacity="0.12" stroke-miterlimit="10" stroke-dasharray=""/><path fill="none" stroke="rgb(0,0,0)" class="dcg-svg-minor-gridline" paint-order="fill stroke markers" d=" M 0 182.5 L 520 182.5" stroke-opacity="0.12" stroke-miterlimit="10" stroke-dasharray=""/><path fill="none" stroke="rgb(0,0,0)" class="dcg-svg-minor-gridline" paint-order="fill stroke markers" d=" M 0 156.5 L 520 156.5" stroke-opacity="0.12" stroke-miterlimit="10" stroke-dasharray=""/><path fill="none" stroke="rgb(0,0,0)" class="dcg-svg-minor-gridline" paint-order="fill stroke markers" d=" M 0 104.5 L 520 104.5" stroke-opacity="0.12" stroke-miterlimit="10" stroke-dasharray=""/><path fill="none" stroke="rgb(0,0,0)" class="dcg-svg-minor-gridline" paint-order="fill stroke markers" d=" M 0 78.5 L 520 78.5" stroke-opacity="0.12" stroke-miterlimit="10" stroke-dasharray=""/><path fill="none" stroke="rgb(0,0,0)" class="dcg-svg-minor-gridline" paint-order="fill stroke markers" d=" M 0 52.5 L 520 52.5" stroke-opacity="0.12" stroke-miterlimit="10" stroke-dasharray=""/><path fill="none" stroke="rgb(0,0,0)" class="dcg-svg-minor-gridline" paint-order="fill stroke markers" d=" M 0 26.5 L 520 26.5" stroke-opacity="0.12" stroke-miterlimit="10" stroke-dasharray=""/><path fill="none" stroke="rgb(0,0,0)" class="dcg-svg-major-gridline" paint-order="fill stroke markers" d=" M 130.5 0 L 130.5 260" stroke-opacity="0.31818181818181823" stroke-miterlimit="10" stroke-dasharray=""/><path fill="none" stroke="rgb(0,0,0)" class="dcg-svg-major-gridline" paint-order="fill stroke markers" d=" M 390.5 0 L 390.5 260" stroke-opacity="0.31818181818181823" stroke-miterlimit="10" stroke-dasharray=""/></g></g><g id="axis-d12a34cb"><g id="yaxis-d12a34cb"><title>Y axis</title><g><path fill="none" stroke="rgb(0,0,0)" class="dcg-svg-axis-line" paint-order="fill stroke markers" d=" M 259.75 0 L 259.75 260" stroke-opacity="0.9" stroke-miterlimit="10" stroke-width="1.5" stroke-dasharray=""/></g></g><g id="xaxis-d12a34cb"><title>X axis</title><g><path fill="none" stroke="rgb(0,0,0)" class="dcg-svg-axis-line" paint-order="fill stroke markers" d=" M 0 129.75 L 520 129.75" stroke-opacity="0.9" stroke-miterlimit="10" stroke-width="1.5" stroke-dasharray=""/></g></g><g><g class="dcg-svg-axis-value"><text fill="none" stroke="#ffffff" font-family="Arial" font-size="14px" font-style="normal" font-weight="normal" text-decoration="normal" x="251.10693359375" y="145.808" text-anchor="middle" stroke-miterlimit="2" stroke-width="3" stroke-dasharray="">0</text><text fill="#000000" stroke="none" font-family="Arial" font-size="14px" font-style="normal" font-weight="normal" text-decoration="normal" x="251.10693359375" y="145.808" text-anchor="middle">0</text></g><g class="dcg-svg-axis-value dcg-svg-offcenter-axis-value"><text fill="none" stroke="#ffffff" font-family="Arial" font-size="14px" font-style="normal" font-weight="normal" text-decoration="normal" x="13.1171875" y="145.808" text-anchor="middle" stroke-miterlimit="2" stroke-width="3" stroke-dasharray="">-10</text><text fill="#000000" stroke="none" font-family="Arial" font-size="14px" font-style="normal" font-weight="normal" text-decoration="normal" x="13.1171875" y="145.808" text-anchor="middle">-10</text></g><g class="dcg-svg-axis-value"><text fill="none" stroke="#ffffff" font-family="Arial" font-size="14px" font-style="normal" font-weight="normal" text-decoration="normal" x="127.6689453125" y="145.808" text-anchor="middle" stroke-miterlimit="2" stroke-width="3" stroke-dasharray="">-5</text><text fill="#000000" stroke="none" font-family="Arial" font-size="14px" font-style="normal" font-weight="normal" text-decoration="normal" x="127.6689453125" y="145.808" text-anchor="middle">-5</text></g><g class="dcg-svg-axis-value"><text fill="none" stroke="#ffffff" font-family="Arial" font-size="14px" font-style="normal" font-weight="normal" text-decoration="normal" x="390" y="145.808" text-anchor="middle" stroke-miterlimit="2" stroke-width="3" stroke-dasharray="">5</text><text fill="#000000" stroke="none" font-family="Arial" font-size="14px" font-style="normal" font-weight="normal" text-decoration="normal" x="390" y="145.808" text-anchor="middle">5</text></g><g class="dcg-svg-axis-value dcg-svg-offcenter-axis-value"><text fill="none" stroke="#ffffff" font-family="Arial" font-size="14px" font-style="normal" font-weight="normal" text-decoration="normal" x="509.2138671875" y="145.808" text-anchor="middle" stroke-miterlimit="2" stroke-width="3" stroke-dasharray="">10</text><text fill="#000000" stroke="none" font-family="Arial" font-size="14px" font-style="normal" font-weight="normal" text-decoration="normal" x="509.2138671875" y="145.808" text-anchor="middle">10</text></g><g class="dcg-svg-axis-value dcg-svg-offcenter-axis-value"><text fill="none" stroke="#ffffff" font-family="Arial" font-size="14px" font-style="normal" font-weight="normal" text-decoration="normal" x="248.77587890625" y="253.808" text-anchor="middle" stroke-miterlimit="2" stroke-width="3" stroke-dasharray="">-5</text><text fill="#000000" stroke="none" font-family="Arial" font-size="14px" font-style="normal" font-weight="normal" text-decoration="normal" x="248.77587890625" y="253.808" text-anchor="middle">-5</text></g><g class="dcg-svg-axis-value dcg-svg-offcenter-axis-value"><text fill="none" stroke="#ffffff" font-family="Arial" font-size="14px" font-style="normal" font-weight="normal" text-decoration="normal" x="251.10693359375" y="13.808" text-anchor="middle" stroke-miterlimit="2" stroke-width="3" stroke-dasharray="">5</text><text fill="#000000" stroke="none" font-family="Arial" font-size="14px" font-style="normal" font-weight="normal" text-decoration="normal" x="251.10693359375" y="13.808" text-anchor="middle">5</text></g></g></g></g><g id="expressions-d12a34cb"><g id="sketch-d12a34cb"><title>Expression 1</title><path fill="#0000ff" stroke="none" paint-order="stroke fill markers" d="" fill-opacity="0.4"/><g><path fill="none" stroke="#0000ff" class="dcg-svg-curve" paint-order="fill stroke markers" d=" M 261.8141819657381 265.5 L 261.8141819657381 265.5 L 262.412109375 248.81763407044724 L 263.30078125 230.7408986854409 L 264.443359375 213.02413936414985 L 265.712890625 197.46524904225305 L 267.109375 183.38524805700416 L 268.759765625 169.382260407602 L 270.537109375 156.46400757880835 L 272.568359375 143.63040344183568 L 274.7265625 131.65571708237897 L 277.01171875 120.41081583663839 L 279.423828125 109.82939519189307 L 281.8359375 100.36003101992584 L 284.248046875 91.86208864613407 L 286.66015625 84.24049218966134 L 289.072265625 77.42866818415251 L 291.484375 71.37824725024066 L 293.76953125 66.31526385678117 L 295.927734375 62.10812147184197 L 298.0859375 58.44067547890158 L 300.1171875 55.46729976364682 L 302.1484375 52.94450579565661 L 304.052734375 50.977182383712034 L 305.95703125 49.38381873300507 L 307.861328125 48.15325878325396 L 309.638671875 47.321756118209606 L 311.162109375 46.8448956939726 L 312.55859375 46.593055982680895 L 313.9222530363716 46.51289497215936 L 315.3515625 46.59897164294985 L 316.875 46.875470069587664 L 318.3984375 47.33488999411715 L 320.17578125 48.091091335533235 L 322.080078125 49.14968170230533 L 324.365234375 50.73493712969031 L 326.77734375 52.74783054930812 L 329.443359375 55.33215862170344 L 332.36328125 58.53281149663468 L 335.791015625 62.685805315164245 L 340.107421875 68.3398058099284 L 354.326171875 87.29388882445062 L 357.75390625 91.26991071723809 L 360.80078125 94.42185754353133 L 363.466796875 96.82843431185508 L 366.005859375 98.77562015712672 L 368.41796875 100.28409789249886 L 370.576171875 101.3315850944861 L 372.48046875 102.00619487991072 L 374.2578125 102.41640529232062 L 375.908203125 102.60209546724455 L 377.431640625 102.60301718395135 L 378.955078125 102.4376242099184 L 380.478515625 102.10396097070817 L 382.12890625 101.55106451049076 L 383.90625 100.73203943368789 L 385.810546875 99.59724564557587 L 387.96875 97.99131546707987 L 390.126953125 96.04991662496619 L 392.412109375 93.63636890915998 L 394.82421875 90.70143520282238 L 397.36328125 87.20029715403734 L 400.029296875 83.09495180605848 L 402.94921875 78.13156957309985 L 406.123046875 72.23763235438639 L 409.8046875 64.83965723036812 L 414.12109375 55.55529545294388 L 419.833984375 42.60198350901133 L 432.40234375 13.912788259449272 L 436.71875 4.791434779488483 L 440.400390625 -2.4165664561434994 L 442.12310713636367 -5.5 L 494.0992350407274 -5.5 L 494.609375 -4.70485585666907 L 498.798828125 2.3176787875167832 L 505.01953125 13.302056333272901 L 513.3984375 28.025333335240376 L 517.587890625 34.87563246341729 L 520 38.55467293055685" stroke-linecap="round" stroke-linejoin="round" stroke-miterlimit="10" stroke-width="2.5" stroke-dasharray=""/></g></g><g id="sketch-d12a34cb"><title>Expression 2</title><path fill="#ff0000" stroke="none" paint-order="stroke fill markers" d="" fill-opacity="0.4"/><g><path fill="none" stroke="#ff0000" class="dcg-svg-curve" paint-order="fill stroke markers" d=" M 260.125591090379 265.5 L 260.125591090379 265.5 L 260.126953125 199.12296430088247 L 260.5078125 180.91072380920775 L 261.015625 171.64601720285623 L 261.650390625 165.01745769635238 L 262.412109375 159.70440851761182 L 263.30078125 155.18522467136023 L 264.443359375 150.75603484103746 L 265.712890625 146.86631226056326 L 267.236328125 143.05514130260707 L 268.88671875 139.59865511763417 L 270.791015625 136.19004047825487 L 272.94921875 132.8515562797758 L 275.361328125 129.59961145166892 L 277.900390625 126.59286255029681 L 280.693359375 123.6792857758308 L 283.61328125 121.00253851557257 L 286.66015625 118.56012304741533 L 289.833984375 116.3594192151085 L 293.0078125 114.48307511094666 L 296.0546875 112.96940389825659 L 298.974609375 111.7708892807554 L 301.767578125 110.84594950259427 L 304.560546875 110.12904317008568 L 307.2265625 109.63096085617042 L 309.892578125 109.30684010131769 L 312.685546875 109.14468971734009 L 315.478515625 109.15370802423486 L 318.3984375 109.33372249852928 L 321.4453125 109.69232319989432 L 324.74609375 110.25762821741932 L 328.427734375 111.07659438869075 L 332.6171875 112.20677111803644 L 337.6953125 113.78367108406411 L 346.455078125 116.75357777454428 L 354.072265625 119.24599170017174 L 359.0234375 120.65784335853796 L 363.212890625 121.65365538259049 L 366.89453125 122.34287033168965 L 370.322265625 122.80592756008693 L 373.623046875 123.07366233070826 L 376.796875 123.15567788753842 L 379.84375 123.06588420684668 L 382.890625 122.80711772213472 L 385.9375 122.37803924667139 L 389.111328125 121.75123078743589 L 392.412109375 120.90909222728999 L 395.83984375 119.8376188975519 L 399.521484375 118.47735811755602 L 403.583984375 116.74809549780323 L 408.154296875 114.55592486656744 L 413.61328125 111.66888465180205 L 421.484375 107.19635056412224 L 433.41796875 100.4279098555526 L 439.00390625 97.56165704260412 L 443.57421875 95.47299078332944 L 447.63671875 93.85759455049529 L 451.318359375 92.61806022453256 L 454.74609375 91.6737863359941 L 457.919921875 90.99084838250616 L 460.966796875 90.51504334923251 L 464.013671875 90.2191704247671 L 466.93359375 90.10568221068579 L 469.853515625 90.15766871102076 L 472.900390625 90.38504657318988 L 475.947265625 90.78352752145099 L 479.12109375 91.37182689960808 L 482.548828125 92.19236093632013 L 486.23046875 93.26786079473479 L 490.419921875 94.70387006492189 L 495.244140625 96.58230777325628 L 501.591796875 99.29986460184068 L 516.953125 105.96805644532554 L 520 107.13866823263922" stroke-linecap="round" stroke-linejoin="round" stroke-miterlimit="10" stroke-width="2.5" stroke-dasharray=""/></g></g></g><g id="labels-d12a34cb"/></g></svg>