<svg version="1.1" xmlns="http://www.w3.org/2000/svg" xmlns:xlink="http://www.w3.org/1999/xlink" width="520" height="260"><defs/><g transform="scale(1,1)"><g id="background-9262bd6a"><rect fill="white" stroke="none" x="0" y="0" width="520" height="260" class="dcg-svg-background"/></g><g id="background-images-9262bd6a"/><g id="graphpaper-9262bd6a"><g id="grid-9262bd6a"><g><path fill="none" stroke="rgb(0,0,0)" class="dcg-svg-minor-gridline" paint-order="fill stroke markers" d=" M 26.5 0 L 26.5 260" stroke-opacity="0.12" stroke-miterlimit="10" stroke-dasharray=""/><path fill="none" stroke="rgb(0,0,0)" class="dcg-svg-minor-gridline" paint-order="fill stroke markers" d=" M 52.5 0 L 52.5 260" stroke-opacity="0.12" stroke-miterlimit="10" stroke-dasharray=""/><path fill="none" stroke="rgb(0,0,0)" class="dcg-svg-minor-gridline" paint-order="fill stroke markers" d=" M 78.5 0 L 78.5 260" stroke-opacity="0.12" stroke-miterlimit="10" stroke-dasharray=""/><path fill="none" stroke="rgb(0,0,0)" class="dcg-svg-minor-gridline" paint-order="fill stroke markers" d=" M 104.5 0 L 104.5 260" stroke-opacity="0.12" stroke-miterlimit="10" stroke-dasharray=""/><path fill="none" stroke="rgb(0,0,0)" class="dcg-svg-minor-gridline" paint-order="fill stroke markers" d=" M 130.5 0 L 130.5 260" stroke-opacity="0.12" stroke-miterlimit="10" stroke-dasharray=""/><path fill="none" stroke="rgb(0,0,0)" class="dcg-svg-minor-gridline" paint-order="fill stroke markers" d=" M 156.5 0 L 156.5 260" stroke-opacity="0.12" stroke-miterlimit="10" stroke-dasharray=""/><path fill="none" stroke="rgb(0,0,0)" class="dcg-svg-minor-gridline" paint-order="fill stroke markers" d=" M 182.5 0 L 182.5 260" stroke-opacity="0.12" stroke-miterlimit="10" stroke-dasharray=""/><path fill="none" stroke="rgb(0,0,0)" class="dcg-svg-minor-gridline" paint-order="fill stroke markers" d=" M 208.5 0 L 208.5 260" stroke-opacity="0.12" stroke-miterlimit="10" stroke-dasharray=""/><path fill="none" stroke="rgb(0,0,0)" class="dcg-svg-minor-gridline" paint-order="fill stroke markers" d=" M 234.5 0 L 234.5 260" stroke-opacity="0.12" stroke-miterlimit="10" stroke-dasharray=""/><path fill="none" stroke="rgb(0,0,0)" class="dcg-svg-minor-gridline" paint-order="fill stroke markers" d=" M 286.5 0 L 286.5 260" stroke-opacity="0.12" stroke-miterlimit="10" stroke-dasharray=""/><path fill="none" stroke="rgb(0,0,0)" class="dcg-svg-minor-gridline" paint-order="fill stroke markers" d=" M 312.5 0 L 312.5 260" stroke-opacity="0.12" stroke-miterlimit="10" stroke-dasharray=""/><path fill="none" stroke="rgb(0,0,0)" class="dcg-svg-minor-gridline" paint-order="fill stroke markers" d=" M 338.5 0 L 338.5 260" stroke-opacity="0.12" stroke-miterlimit="10" stroke-dasharray=""/><path fill="none" stroke="rgb(0,0,0)" class="dcg-svg-minor-gridline" paint-order="fill stroke markers" d=" M 364.5 0 L 364.5 260" stroke-opacity="0.12" stroke-miterlimit="10" stroke-dasharray=""/><path fill="none" stroke="rgb(0,0,0)" class="dcg-svg-minor-gridline" paint-order="fill stroke markers" d=" M 390.5 0 L 390.5 260" stroke-opacity="0.12" stroke-miterlimit="10" stroke-dasharray=""/><path fill="none" stroke="rgb(0,0,0)" class="dcg-svg-minor-gridline" paint-order="fill stroke markers" d=" M 416.5 0 L 416.5 260" stroke-opacity="0.12" stroke-miterlimit="10" stroke-dasharray=""/><path fill="none" stroke="rgb(0,0,0)" class="dcg-svg-minor-gridline" paint-order="fill stroke markers" d=" M 442.5 0 L 442.5 260" stroke-opacity="0.12" stroke-miterlimit="10" stroke-dasharray=""/><path fill="none" stroke="rgb(0,0,0)" class="dcg-svg-minor-gridline" paint-order="fill stroke markers" d=" M 468.5 0 L 468.5 260" stroke-opacity="0.12" stroke-miterlimit="10" stroke-dasharray=""/><path fill="none" stroke="rgb(0,0,0)" class="dcg-svg-minor-gridline" paint-order="fill stroke markers" d=" M 494.5 0 L 494.5 260" stroke-opacity="0.12" stroke-miterlimit="10" stroke-dasharray=""/><path fill="none" stroke="rgb(0,0,0)" class="dcg-svg-minor-gridline" paint-order="fill stroke markers" d=" M 0 234.5 L 520 234.5" stroke-opacity="0.12" stroke-miterlimit="10" stroke-dasharray=""/><path fill="none" stroke="rgb(0,0,0)" class="dcg-svg-minor-gridline" paint-order="fill stroke markers" d=" M 0 208.5 L 520 208.5" stroke-opacity="0.12" stroke-miterlimit="10" stroke-dasharray=""/><path fill="none" stroke="rgb(0,0,0)" class="dcg-svg-minor-gridline" paint-order="fill stroke markers" d=" M 0 182.5 L 520 182.5" stroke-opacity="0.12" stroke-miterlimit="10" stroke-dasharray=""/><path fill="none" stroke="rgb(0,0,0)" class="dcg-svg-minor-gridline" paint-order="fill stroke markers" d=" M 0 156.5 L 520 156.5" stroke-opacity="0.12" stroke-miterlimit="10" stroke-dasharray=""/><path fill="none" stroke="rgb(0,0,0)" class="dcg-svg-minor-gridline" paint-order="fill stroke markers" d=" M 0 104.5 L 520 104.5" stroke-opacity="0.12" stroke-miterlimit="10" stroke-dasharray=""/><path fill="none" stroke="rgb(0,0,0)" class="dcg-svg-minor-gridline" paint-order="fill stroke markers" d=" M 0 78.5 L 520 78.5" stroke-opacity="0.12" stroke-miterlimit="10" stroke-dasharray=""/><path fill="none" stroke="rgb(0,0,0)" class="dcg-svg-minor-gridline" paint-order="fill stroke markers" d=" M 0 52.5 L 520 52.5" stroke-opacity="0.12" stroke-miterlimit="10" stroke-dasharray=""/><path fill="none" stroke="rgb(0,0,0)" class="dcg-svg-minor-gridline" paint-order="fill stroke markers" d=" M 0 26.5 L 520 26.5" stroke-opacity="0.12" stroke-miterlimit="10" stroke-dasharray=""/><path fill="none" stroke="rgb(0,0,0)" class="dcg-svg-major-gridline" paint-order="fill stroke markers" d=" M 130.5 0 L 130.5 260" stroke-opacity="0.31818181818181823" stroke-miterlimit="10" stroke-dasharray=""/><path fill="none" stroke="rgb(0,0,0)" class="dcg-svg-major-gridline" paint-order="fill stroke markers" d=" M 390.5 0 L 390.5 260" stroke-opacity="0.31818181818181823" stroke-miterlimit="10" stroke-dasharray=""/></g></g><g id="axis-9262bd6a"><g id="yaxis-9262bd6a"><title>Y axis</title><g><path fill="none" stroke="rgb(0,0,0)" class="dcg-svg-axis-line" paint-order="fill stroke markers" d=" M 259.75 0 L 259.75 260" stroke-opacity="0.9" stroke-miterlimit="10" stroke-width="1.5" stroke-dasharray=""/></g></g><g id="xaxis-9262bd6a"><title>X axis</title><g><path fill="none" stroke="rgb(0,0,0)" class="dcg-svg-axis-line" paint-order="fill stroke markers" d=" M 0 129.75 L 520 129.75" stroke-opacity="0.9" stroke-miterlimit="10" stroke-width="1.5" stroke-dasharray=""/></g></g><g><g class="dcg-svg-axis-value"><text fill="none" stroke="#ffffff" font-family="Arial" font-size="14px" font-style="normal" font-weight="normal" text-decoration="normal" x="251.10693359375" y="145.808" text-anchor="middle" stroke-miterlimit="2" stroke-width="3" stroke-dasharray="">0</text><text fill="#000000" stroke="none" font-family="Arial" font-size="14px" font-style="normal" font-weight="normal" text-decoration="normal" x="251.10693359375" y="145.808" text-anchor="middle">0</text></g><g class="dcg-svg-axis-value dcg-svg-offcenter-axis-value"><text fill="none" stroke="#ffffff" font-family="Arial" font-size="14px" font-style="normal" font-weight="normal" text-decoration="normal" x="13.1171875" y="145.808" text-anchor="middle" stroke-miterlimit="2" stroke-width="3" stroke-dasharray="">-10</text><text fill="#000000" stroke="none" font-family="Arial" font-size="14px" font-style="normal" font-weight="normal" text-decoration="normal" x="13.1171875" y="145.808" text-anchor="middle">-10</text></g><g class="dcg-svg-axis-value"><text fill="none" stroke="#ffffff" font-family="Arial" font-size="14px" font-style="normal" font-weight="normal" text-decoration="normal" x="127.6689453125" y="145.808" text-anchor="middle" stroke-miterlimit="2" stroke-width="3" stroke-dasharray="">-5</text><text fill="#000000" stroke="none" font-family="Arial" font-size="14px" font-style="normal" font-weight="normal" text-decoration="normal" x="127.6689453125" y="145.808" text-anchor="middle">-5</text></g><g class="dcg-svg-axis-value"><text fill="none" stroke="#ffffff" font-family="Arial" font-size="14px" font-style="normal" font-weight="normal" text-decoration="normal" x="390" y="145.808" text-anchor="middle" stroke-miterlimit="2" stroke-width="3" stroke-dasharray="">5</text><text fill="#000000" stroke="none" font-family="Arial" font-size="14px" font-style="normal" font-weight="normal" text-decoration="normal" x="390" y="145.808" text-anchor="middle">5</text></g><g class="dcg-svg-axis-value dcg-svg-offcenter-axis-value"><text fill="none" stroke="#ffffff" font-family="Arial" font-size="14px" font-style="normal" font-weight="normal" text-decoration="normal" x="509.2138671875" y="145.808" text-anchor="middle" stroke-miterlimit="2" stroke-width="3" stroke-dasharray="">10</text><text fill="#000000" stroke="none" font-family="Arial" font-size="14px" font-style="normal" font-weight="normal" text-decoration="normal" x="509.2138671875" y="145.808" text-anchor="middle">10</text></g><g class="dcg-svg-axis-value dcg-svg-offcenter-axis-value"><text fill="none" stroke="#ffffff" font-family="Arial" font-size="14px" font-style="normal" font-weight="normal" text-decoration="normal" x="248.77587890625" y="253.808" text-anchor="middle" stroke-miterlimit="2" stroke-width="3" stroke-dasharray="">-5</text><text fill="#000000" stroke="none" font-family="Arial" font-size="14px" font-style="normal" font-weight="normal" text-decoration="normal" x="248.77587890625" y="253.808" text-anchor="middle">-5</text></g><g class="dcg-svg-axis-value dcg-svg-offcenter-axis-value"><text fill="none" stroke="#ffffff" font-family="Arial" font-size="14px" font-style="normal" font-weight="normal" text-decoration="normal" x="251.10693359375" y="13.808" text-anchor="middle" stroke-miterlimit="2" stroke-width="3" stroke-dasharray="">5</text><text fill="#000000" stroke="none" font-family="Arial" font-size="14px" font-style="normal" font-weight="normal" text-decoration="normal" x="251.10693359375" y="13.808" text-anchor="middle">5</text></g></g></g></g><g id="expressions-9262bd6a"><g id="sketch-9262bd6a"><title>Expression 1</title><path fill="#0000ff" stroke="none" paint-order="stroke fill markers" d="" fill-opacity="0.4"/><g><path fill="none" stroke="#0000ff" class="dcg-svg-curve" paint-order="fill stroke markers" d=" M 260.34591190563725 265.5 L 260.34591190563725 265.5 L 260.5078125 250.0971523134525 L 261.015625 231.82144761841548 L 261.650390625 218.88096784246392 L 262.412109375 208.63367224137482 L 263.30078125 200.03491539270476 L 264.31640625 192.55360874151364 L 265.458984375 185.8790235355484 L 266.85546875 179.26330911778751 L 268.37890625 173.2923369876537 L 270.029296875 167.8054477406241 L 271.93359375 162.35448416875357 L 273.96484375 157.2834249863268 L 276.25 152.2485196758578 L 278.7890625 147.27574913411365 L 281.58203125 142.38008095650974 L 284.62890625 137.57121883507372 L 287.802734375 133.0304031848172 L 291.23046875 128.5628127229163 L 294.912109375 124.18477880235123 L 298.720703125 120.0464283164673 L 302.783203125 116.0139841972092 L 306.97265625 112.22358006038696 L 311.2890625 108.67377479767498 L 315.732421875 105.3683591101256 L 320.302734375 102.31509092105449 L 324.873046875 99.59558756109868 L 329.189453125 97.32091154762797 L 333.37890625 95.37648560095371 L 337.44140625 93.73115803567163 L 341.50390625 92.31556349780962 L 345.439453125 91.15719833560053 L 349.375 90.20252568094645 L 353.18359375 89.4669429096538 L 356.9921875 88.91084570003795 L 360.80078125 88.5282817542593 L 364.736328125 88.30858212728918 L 368.671875 88.26008347569325 L 372.734375 88.3812916311336 L 376.923828125 88.67894098668327 L 381.240234375 89.1578558558803 L 385.810546875 89.84196551202686 L 390.634765625 90.74494325408064 L 395.83984375 91.90605530744321 L 401.552734375 93.37474427149232 L 408.02734375 95.24294343262441 L 415.64453125 97.65040407989879 L 426.5625 101.3315323466121 L 443.447265625 107.01662333609234 L 451.318359375 109.44404968251105 L 457.919921875 111.28243855008117 L 463.88671875 112.74808743573132 L 469.345703125 113.89870784519157 L 474.423828125 114.78654141873446 L 479.248046875 115.45286932666149 L 483.9453125 115.92487688406986 L 488.515625 116.2082026461603 L 492.958984375 116.31089075246896 L 497.275390625 116.24295085099472 L 501.591796875 116.00656621373761 L 505.908203125 115.59983202593281 L 510.224609375 115.02208963336054 L 514.66796875 114.24935904270198 L 519.23828125 113.26828576140393 L 520 113.086645417955" stroke-linecap="round" stroke-linejoin="round" stroke-miterlimit="10" stroke-width="2.5" stroke-dasharray=""/></g></g><g id="sketch-9262bd6a"><title>Expression 2</title><path fill="#ff0000" stroke="none" paint-order="stroke fill markers" d="" fill-opacity="0.4"/><g><path fill="none" stroke="#ff0000" class="dcg-svg-curve" paint-order="fill stroke markers" d=" M 260.12679509597416 265.5 L 260.12679509597416 265.5 L 260.126953125 250.0971523134525 L 260.5078125 213.29203440571246 L 261.015625 194.2563901079257 L 261.650390625 180.37044934272046 L 262.412109375 168.99905578874004 L 263.427734375 157.88298688618062 L 264.5703125 148.22606801609356 L 265.966796875 138.72823343745839 L 267.490234375 130.1698170027686 L 269.140625 122.34601402395319 L 270.91796875 115.18001550996293 L 272.6953125 109.07360942663236 L 274.47265625 103.88391929131639 L 276.123046875 99.8098277421841 L 277.7734375 96.40542745102468 L 279.296875 93.82719296614633 L 280.693359375 91.91928239538201 L 282.08984375 90.42972239130827 L 283.359375 89.42434991982532 L 284.62890625 88.73734052088804 L 285.771484375 88.37943610189863 L 286.787109375 88.25903708700045 L 287.802734375 88.31600663827955 L 288.818359375 88.54141025826969 L 289.9609375 88.98450717942754 L 291.357421875 89.77836081635357 L 293.0078125 91.0383809889444 L 294.912109375 92.8645681460245 L 297.0703125 95.3199465626083 L 299.86328125 98.91383166994824 L 307.98828125 109.6295414033398 L 310.2734375 112.08737979034834 L 312.177734375 113.77499949850696 L 313.955078125 114.99772608682888 L 315.478515625 115.74278522429697 L 316.748046875 116.13349036620131 L 317.890625 116.29729373024426 L 319.033203125 116.27722072336569 L 320.17578125 116.06911500964208 L 321.318359375 115.67036894922845 L 322.587890625 115.00251135554461 L 324.111328125 113.89010808994541 L 325.634765625 112.44428061128438 L 327.28515625 110.51432753777138 L 329.0625 108.03547011875307 L 331.09375 104.73549076928552 L 333.37890625 100.50113241133008 L 336.044921875 94.9973347581699 L 339.599609375 87.03227106819276 L 347.34375 69.50256137551857 L 350.13671875 63.91086604789524 L 352.421875 59.884009323589154 L 354.453125 56.80978722435168 L 356.23046875 54.56021623436291 L 357.880859375 52.86962201266503 L 359.404296875 51.66731555289955 L 360.927734375 50.82011358858213 L 362.197265625 50.38985693379739 L 363.33984375 50.217907323674325 L 364.35546875 50.235534197895404 L 365.37109375 50.41185707330823 L 366.513671875 50.7965642029956 L 367.783203125 51.44922911160141 L 369.306640625 52.532526680744326 L 370.95703125 54.05329136503903 L 372.734375 56.0600305365398 L 374.765625 58.76469214436894 L 377.177734375 62.442483476580634 L 380.224609375 67.59415253370204 L 389.111328125 82.93248789379197 L 391.5234375 86.42810721769087 L 393.5546875 88.94166757408613 L 395.33203125 90.75818130185947 L 396.982421875 92.08757188788428 L 398.505859375 92.98548018837135 L 399.775390625 93.47996903131737 L 400.91796875 93.7214175294298 L 401.93359375 93.77108676488069 L 402.94921875 93.66395399361426 L 404.091796875 93.35542205290581 L 405.361328125 92.78012482370514 L 406.7578125 91.8685624747879 L 408.28125 90.54993525244086 L 409.931640625 88.75607690173179 L 411.708984375 86.42659282538449 L 413.740234375 83.3071103834148 L 416.025390625 79.29621300622395 L 418.818359375 73.83182458182893 L 422.880859375 65.233885474957 L 428.59375 53.19206321950601 L 431.38671875 47.898602647549694 L 433.671875 44.07824013754245 L 435.703125 41.16247223315855 L 437.48046875 39.03461704401039 L 439.130859375 37.44488123303071 L 440.654296875 36.32690395593893 L 442.05078125 35.60777389196144 L 443.3203125 35.21305227211077 L 444.462890625 35.07055916419195 L 445.478515625 35.113046655088894 L 446.494140625 35.31357758991277 L 447.63671875 35.7254370914051 L 448.90625 36.40908633577678 L 450.4296875 37.53211228171983 L 452.080078125 39.10092417417319 L 453.857421875 41.167492458331566 L 455.888671875 43.95365471918376 L 458.173828125 47.5393008562901 L 461.09375 52.63023402012924 L 471.630859375 71.5223642500302 L 473.916015625 74.85115998865932 L 475.8203125 77.21571758848185 L 477.59765625 79.03387082354149 L 479.248046875 80.3518449788188 L 480.771484375 81.23007246001765 L 482.041015625 81.70278778849766 L 483.18359375 81.92141370156045 L 484.19921875 81.9489021045642 L 485.21484375 81.81839796690502 L 486.357421875 81.48286068548944 L 487.626953125 80.87762251492624 L 489.0234375 79.93447242559043 L 490.546875 78.58462466726762 L 492.197265625 76.76277285036888 L 493.974609375 74.41231848866528 L 496.005859375 71.28360471906305 L 498.291015625 67.28497276683387 L 501.083984375 61.87345042602014 L 505.654296875 52.36693479456642 L 510.3515625 42.77190794850074 L 513.14453125 37.63326079522959 L 515.4296875 33.941069520075345 L 517.4609375 31.13998195473586 L 519.23828125 29.112734764387667 L 520 28.374384368677923" stroke-linecap="round" stroke-linejoin="round" stroke-miterlimit="10" stroke-width="2.5" stroke-dasharray=""/></g></g></g><g id="labels-9262bd6a"/></g></svg>