<svg version="1.1" xmlns="http://www.w3.org/2000/svg" xmlns:xlink="http://www.w3.org/1999/xlink" width="520" height="260"><defs/><g transform="scale(1,1)"><g id="background-3be681ff"><rect fill="white" stroke="none" x="0" y="0" width="520" height="260" class="dcg-svg-background"/></g><g id="background-images-3be681ff"/><g id="graphpaper-3be681ff"><g id="grid-3be681ff"><g><path fill="none" stroke="rgb(0,0,0)" class="dcg-svg-minor-gridline" paint-order="fill stroke markers" d=" M 26.5 0 L 26.5 260" stroke-opacity="0.12" stroke-miterlimit="10" stroke-dasharray=""/><path fill="none" stroke="rgb(0,0,0)" class="dcg-svg-minor-gridline" paint-order="fill stroke markers" d=" M 52.5 0 L 52.5 260" stroke-opacity="0.12" stroke-miterlimit="10" stroke-dasharray=""/><path fill="none" stroke="rgb(0,0,0)" class="dcg-svg-minor-gridline" paint-order="fill stroke markers" d=" M 78.5 0 L 78.5 260" stroke-opacity="0.12" stroke-miterlimit="10" stroke-dasharray=""/><path fill="none" stroke="rgb(0,0,0)" class="dcg-svg-minor-gridline" paint-order="fill stroke markers" d=" M 104.5 0 L 104.5 260" stroke-opacity="0.12" stroke-miterlimit="10" stroke-dasharray=""/><path fill="none" stroke="rgb(0,0,0)" class="dcg-svg-minor-gridline" paint-order="fill stroke markers" d=" M 130.5 0 L 130.5 260" stroke-opacity="0.12" stroke-miterlimit="10" stroke-dasharray=""/><path fill="none" stroke="rgb(0,0,0)" class="dcg-svg-minor-gridline" paint-order="fill stroke markers" d=" M 156.5 0 L 156.5 260" stroke-opacity="0.12" stroke-miterlimit="10" stroke-dasharray=""/><path fill="none" stroke="rgb(0,0,0)" class="dcg-svg-minor-gridline" paint-order="fill stroke markers" d=" M 182.5 0 L 182.5 260" stroke-opacity="0.12" stroke-miterlimit="10" stroke-dasharray=""/><path fill="none" stroke="rgb(0,0,0)" class="dcg-svg-minor-gridline" paint-order="fill stroke markers" d=" M 208.5 0 L 208.5 260" stroke-opacity="0.12" stroke-miterlimit="10" stroke-dasharray=""/><path fill="none" stroke="rgb(0,0,0)" class="dcg-svg-minor-gridline" paint-order="fill stroke markers" d=" M 234.5 0 L 234.5 260" stroke-opacity="0.12" stroke-miterlimit="10" stroke-dasharray=""/><path fill="none" stroke="rgb(0,0,0)" class="dcg-svg-minor-gridline" paint-order="fill stroke markers" d=" M 286.5 0 L 286.5 260" stroke-opacity="0.12" stroke-miterlimit="10" stroke-dasharray=""/><path fill="none" stroke="rgb(0,0,0)" class="dcg-svg-minor-gridline" paint-order="fill stroke markers" d=" M 312.5 0 L 312.5 260" stroke-opacity="0.12" stroke-miterlimit="10" stroke-dasharray=""/><path fill="none" stroke="rgb(0,0,0)" class="dcg-svg-minor-gridline" paint-order="fill stroke markers" d=" M 338.5 0 L 338.5 260" stroke-opacity="0.12" stroke-miterlimit="10" stroke-dasharray=""/><path fill="none" stroke="rgb(0,0,0)" class="dcg-svg-minor-gridline" paint-order="fill stroke markers" d=" M 364.5 0 L 364.5 260" stroke-opacity="0.12" stroke-miterlimit="10" stroke-dasharray=""/><path fill="none" stroke="rgb(0,0,0)" class="dcg-svg-minor-gridline" paint-order="fill stroke markers" d=" M 390.5 0 L 390.5 260" stroke-opacity="0.12" stroke-miterlimit="10" stroke-dasharray=""/><path fill="none" stroke="rgb(0,0,0)" class="dcg-svg-minor-gridline" paint-order="fill stroke markers" d=" M 416.5 0 L 416.5 260" stroke-opacity="0.12" stroke-miterlimit="10" stroke-dasharray=""/><path fill="none" stroke="rgb(0,0,0)" class="dcg-svg-minor-gridline" paint-order="fill stroke markers" d=" M 442.5 0 L 442.5 260" stroke-opacity="0.12" stroke-miterlimit="10" stroke-dasharray=""/><path fill="none" stroke="rgb(0,0,0)" class="dcg-svg-minor-gridline" paint-order="fill stroke markers" d=" M 468.5 0 L 468.5 260" stroke-opacity="0.12" stroke-miterlimit="10" stroke-dasharray=""/><path fill="none" stroke="rgb(0,0,0)" class="dcg-svg-minor-gridline" paint-order="fill stroke markers" d=" M 494.5 0 L 494.5 260" stroke-opacity="0.12" stroke-miterlimit="10" stroke-dasharray=""/><path fill="none" stroke="rgb(0,0,0)" class="dcg-svg-minor-gridline" paint-order="fill stroke markers" d=" M 0 234.5 L 520 234.5" stroke-opacity="0.12" stroke-miterlimit="10" stroke-dasharray=""/><path fill="none" stroke="rgb(0,0,0)" class="dcg-svg-minor-gridline" paint-order="fill stroke markers" d=" M 0 208.5 L 520 208.5" stroke-opacity="0.12" stroke-miterlimit="10" stroke-dasharray=""/><path fill="none" stroke="rgb(0,0,0)" class="dcg-svg-minor-gridline" paint-order="fill stroke markers" d=" M 0 182.5 L 520 182.5" stroke-opacity="0.12" stroke-miterlimit="10" stroke-dasharray=""/><path fill="none" stroke="rgb(0,0,0)" class="dcg-svg-minor-gridline" paint-order="fill stroke markers" d=" M 0 156.5 L 520 156.5" stroke-opacity="0.12" stroke-miterlimit="10" stroke-dasharray=""/><path fill="none" stroke="rgb(0,0,0)" class="dcg-svg-minor-gridline" paint-order="fill stroke markers" d=" M 0 104.5 L 520 104.5" stroke-opacity="0.12" stroke-miterlimit="10" stroke-dasharray=""/><path fill="none" stroke="rgb(0,0,0)" class="dcg-svg-minor-gridline" paint-order="fill stroke markers" d=" M 0 78.5 L 520 78.5" stroke-opacity="0.12" stroke-miterlimit="10" stroke-dasharray=""/><path fill="none" stroke="rgb(0,0,0)" class="dcg-svg-minor-gridline" paint-order="fill stroke markers" d=" M 0 52.5 L 520 52.5" stroke-opacity="0.12" stroke-miterlimit="10" stroke-dasharray=""/><path fill="none" stroke="rgb(0,0,0)" class="dcg-svg-minor-gridline" paint-order="fill stroke markers" d=" M 0 26.5 L 520 26.5" stroke-opacity="0.12" stroke-miterlimit="10" stroke-dasharray=""/><path fill="none" stroke="rgb(0,0,0)" class="dcg-svg-major-gridline" paint-order="fill stroke markers" d=" M 130.5 0 L 130.5 260" stroke-opacity="0.31818181818181823" stroke-miterlimit="10" stroke-dasharray=""/><path fill="none" stroke="rgb(0,0,0)" class="dcg-svg-major-gridline" paint-order="fill stroke markers" d=" M 390.5 0 L 390.5 260" stroke-opacity="0.31818181818181823" stroke-miterlimit="10" stroke-dasharray=""/></g></g><g id="axis-3be681ff"><g id="yaxis-3be681ff"><title>Y axis</title><g><path fill="none" stroke="rgb(0,0,0)" class="dcg-svg-axis-line" paint-order="fill stroke markers" d=" M 259.75 0 L 259.75 260" stroke-opacity="0.9" stroke-miterlimit="10" stroke-width="1.5" stroke-dasharray=""/></g></g><g id="xaxis-3be681ff"><title>X axis</title><g><path fill="none" stroke="rgb(0,0,0)" class="dcg-svg-axis-line" paint-order="fill stroke markers" d=" M 0 129.75 L 520 129.75" stroke-opacity="0.9" stroke-miterlimit="10" stroke-width="1.5" stroke-dasharray=""/></g></g><g><g class="dcg-svg-axis-value"><text fill="none" stroke="#ffffff" font-family="Arial" font-size="14px" font-style="normal" font-weight="normal" text-decoration="normal" x="251.10693359375" y="145.808" text-anchor="middle" stroke-miterlimit="2" stroke-width="3" stroke-dasharray="">0</text><text fill="#000000" stroke="none" font-family="Arial" font-size="14px" font-style="normal" font-weight="normal" text-decoration="normal" x="251.10693359375" y="145.808" text-anchor="middle">0</text></g><g class="dcg-svg-axis-value dcg-svg-offcenter-axis-value"><text fill="none" stroke="#ffffff" font-family="Arial" font-size="14px" font-style="normal" font-weight="normal" text-decoration="normal" x="13.1171875" y="145.808" text-anchor="middle" stroke-miterlimit="2" stroke-width="3" stroke-dasharray="">-10</text><text fill="#000000" stroke="none" font-family="Arial" font-size="14px" font-style="normal" font-weight="normal" text-decoration="normal" x="13.1171875" y="145.808" text-anchor="middle">-10</text></g><g class="dcg-svg-axis-value"><text fill="none" stroke="#ffffff" font-family="Arial" font-size="14px" font-style="normal" font-weight="normal" text-decoration="normal" x="127.6689453125" y="145.808" text-anchor="middle" stroke-miterlimit="2" stroke-width="3" stroke-dasharray="">-5</text><text fill="#000000" stroke="none" font-family="Arial" font-size="14px" font-style="normal" font-weight="normal" text-decoration="normal" x="127.6689453125" y="145.808" text-anchor="middle">-5</text></g><g class="dcg-svg-axis-value"><text fill="none" stroke="#ffffff" font-family="Arial" font-size="14px" font-style="normal" font-weight="normal" text-decoration="normal" x="390" y="145.808" text-anchor="middle" stroke-miterlimit="2" stroke-width="3" stroke-dasharray="">5</text><text fill="#000000" stroke="none" font-family="Arial" font-size="14px" font-style="normal" font-weight="normal" text-decoration="normal" x="390" y="145.808" text-anchor="middle">5</text></g><g class="dcg-svg-axis-value dcg-svg-offcenter-axis-value"><text fill="none" stroke="#ffffff" font-family="Arial" font-size="14px" font-style="normal" font-weight="normal" text-decoration="normal" x="509.2138671875" y="145.808" text-anchor="middle" stroke-miterlimit="2" stroke-width="3" stroke-dasharray="">10</text><text fill="#000000" stroke="none" font-family="Arial" font-size="14px" font-style="normal" font-weight="normal" text-decoration="normal" x="509.2138671875" y="145.808" text-anchor="middle">10</text></g><g class="dcg-svg-axis-value dcg-svg-offcenter-axis-value"><text fill="none" stroke="#ffffff" font-family="Arial" font-size="14px" font-style="normal" font-weight="normal" text-decoration="normal" x="248.77587890625" y="253.808" text-anchor="middle" stroke-miterlimit="2" stroke-width="3" stroke-dasharray="">-5</text><text fill="#000000" stroke="none" font-family="Arial" font-size="14px" font-style="normal" font-weight="normal" text-decoration="normal" x="248.77587890625" y="253.808" text-anchor="middle">-5</text></g><g class="dcg-svg-axis-value dcg-svg-offcenter-axis-value"><text fill="none" stroke="#ffffff" font-family="Arial" font-size="14px" font-style="normal" font-weight="normal" text-decoration="normal" x="251.10693359375" y="13.808" text-anchor="middle" stroke-miterlimit="2" stroke-width="3" stroke-dasharray="">5</text><text fill="#000000" stroke="none" font-family="Arial" font-size="14px" font-style="normal" font-weight="normal" text-decoration="normal" x="251.10693359375" y="13.808" text-anchor="middle">5</text></g></g></g></g><g id="expressions-3be681ff"><g id="sketch-3be681ff"><title>Expression 1</title><path fill="#2d70b3" stroke="none" paint-order="stroke fill markers" d="" fill-opacity="0.4"/><g><path fill="none" stroke="#2d70b3" class="dcg-svg-curve" paint-order="fill stroke markers" d=" M 0 129.99881960182657 L 0 129.99881960182657 L 112.861328125 129.90938043809007 L 141.806640625 129.72412865515616 L 159.833984375 129.4481713041771 L 173.037109375 129.0831738040836 L 183.447265625 128.63206981684158 L 192.080078125 128.09421382734297 L 199.5703125 127.45970253611087 L 206.171875 126.7288863936136 L 212.01171875 125.91127248270321 L 217.34375 124.99118113885632 L 222.294921875 123.95810681029216 L 226.9921875 122.79068626090054 L 231.435546875 121.49310596429936 L 235.751953125 120.03045636590699 L 240.068359375 118.35055333947042 L 244.51171875 116.38409936367545 L 249.208984375 114.05250314448557 L 255.17578125 110.80238479398523 L 262.79296875 106.672616309789 L 265.712890625 105.36158155222691 L 267.87109375 104.61111093661356 L 269.6484375 104.19160202678525 L 271.171875 104.0150434569658 L 272.568359375 104.03351410755585 L 273.837890625 104.22591978993837 L 275.107421875 104.61046867698371 L 276.376953125 105.21245791208682 L 277.7734375 106.1568052549847 L 279.169921875 107.43021363685733 L 280.56640625 109.0656540584244 L 281.962890625 111.09249083906336 L 283.486328125 113.776850182006 L 285.009765625 116.97088182388055 L 286.66015625 121.00146638809011 L 288.564453125 126.33246465194777 L 290.9765625 133.88832890871498 L 295.419921875 147.97950780462034 L 296.81640625 151.57955127880464 L 297.958984375 153.88026472638344 L 298.84765625 155.1468515045649 L 299.609375 155.79901601843005 L 300.30506984289667 156 L 300.751953125 155.9132836795539 L 301.259765625 155.5972087133001 L 301.89453125 154.86114702990062 L 302.529296875 153.73100079240766 L 303.291015625 151.84031542414735 L 304.1796875 148.8943234452877 L 305.1953125 144.5866990366552 L 306.46484375 137.95680360188285 L 308.2421875 127.10675107866204 L 310.52734375 113.2705921000173 L 311.54296875 108.44886837147509 L 312.3046875 105.83380757176415 L 312.939453125 104.48301520868628 L 313.3203125 104.08317534243305 L 313.701171875 104.0156562953685 L 314.08203125 104.29629098191575 L 314.462890625 104.9366783781015 L 314.970703125 106.36097600115613 L 315.60546875 109.05542201070611 L 316.3671875 113.56528255506407 L 317.3828125 121.42539622525454 L 319.287109375 139.02701512517325 L 320.556640625 149.4288355198878 L 321.318359375 153.7236242629274 L 321.826171875 155.41233161868794 L 322.20703125 155.96223063725145 L 322.4609375 155.96284415399393 L 322.71484375 155.66000385261302 L 323.095703125 154.6261061899596 L 323.603515625 152.16769625835857 L 324.23828125 147.4469931857994 L 325.126953125 138.28345711671358 L 327.79296875 108.1546109631361 L 328.30078125 105.20470228956444 L 328.681640625 104.13382044804885 L 328.935546875 104.01706790621529 L 329.189453125 104.39858867200832 L 329.5703125 105.91816068149342 L 330.078125 109.6688291017602 L 330.712890625 116.81596947575136 L 331.728515625 131.8900559426085 L 332.87109375 148.3168613632162 L 333.505859375 154.13029393373318 L 333.88671875 155.77309230270495 L 334.08642743028344 156 L 334.267578125 155.81050351119455 L 334.521484375 154.90273249574142 L 334.90234375 152.15435979479506 L 335.41015625 146.1111692498272 L 336.171875 133.31316642667178 L 337.568359375 109.54841217406663 L 338.076171875 104.98320080698184 L 338.330078125 104.07945291009571 L 338.42983363152575 104 L 338.583984375 104.19145063198756 L 338.837890625 105.3446531529831 L 339.21875 108.97765597970212 L 339.7265625 116.93420803932119 L 341.7578125 154.3954761783113 L 342.01171875 155.7958652791334 L 342.15045556618327 156 L 342.265625 155.8578909192085 L 342.51953125 154.53879379101278 L 342.900390625 150.06052313680578 L 343.408203125 140.19596725335413 L 344.931640625 106.95573251437042 L 345.3125 104.11606667329116 L 345.40469728298746 104 L 345.56640625 104.35999810917389 L 345.8203125 106.37004978955227 L 346.201171875 112.46637688912085 L 346.8359375 128.45090013787697 L 347.724609375 150.70805872940892 L 348.10546875 155.3815236702254 L 348.2965637958533 156 L 348.486328125 155.38110933712898 L 348.740234375 152.644814775449 L 349.12109375 144.87663680728787 L 350.771484375 104.33645156233995 L 350.8987337183348 104 L 351.025390625 104.33659677187576 L 351.279296875 107.01518889178213 L 351.66015625 115.52424947516023 L 353.056640625 154.93660406230424 L 353.26399995168373 156 L 353.4375 155.24304108361238 L 353.69140625 151.47616572188628 L 354.072265625 140.8393634213785 L 355.087890625 107.38771462105494 L 355.341796875 104.23968052207283 L 355.431921784099 104 L 355.595703125 104.79643925230076 L 355.849609375 109.08298359378789 L 356.23046875 121.18307912190018 L 357.119140625 152.70725066074974 L 357.43290885363837 156 L 357.5 155.84405170100166 L 357.75390625 152.47414102839397 L 358.134765625 140.37163377983657 L 359.0234375 106.77351087779033 L 359.29084191717413 104 L 359.404296875 104.51420751752302 L 359.658203125 109.27354472704722 L 360.0390625 123.79858060750193 L 360.80078125 153.7636944349555 L 361.0248176541396 156 L 361.181640625 154.87990007826198 L 361.435546875 148.56854960618637 L 362.0703125 119.22795804774104 L 362.451171875 106.00788430794043 L 362.6503469356543 104 L 362.83203125 105.69882480560187 L 363.0859375 113.34912749270592 L 364.1015625 155.64246372315606 L 364.1801999362506 156 L 364.35546875 154.22294582255805 L 364.609375 145.85380464052352 L 365.498046875 105.03517422567005 L 365.62501606627563 104 L 365.751953125 105.04473883271766 L 366.005859375 112.98916894395539 L 366.89453125 155.2953842895235 L 366.99375313689666 156 L 367.1484375 154.28208394735873 L 367.40234375 144.69085302803217 L 368.1640625 105.32901244992678 L 368.29402407183784 104 L 368.41796875 105.22152040737059 L 368.671875 114.72394456657307 L 369.43359375 155.15217101046485 L 369.5323533455585 156 L 369.6875 153.904303065921 L 369.94140625 142.45896406432405 L 370.576171875 105.8042719724752 L 370.7143750715542 104 L 370.830078125 105.28139918040438 L 371.083984375 116.21630011043607 L 371.71875 154.35535638518942 L 371.84498798198734 156 L 371.97265625 154.30196518950547 L 372.2265625 141.99056394040653 L 372.861328125 104.51070698652556 L 372.92847808840213 104 L 373.115234375 107.90058511260168 L 373.49609375 133.31941529781287 L 373.876953125 154.97349310551618 L 373.9686167883583 156 L 374.130859375 152.79890893702694 L 374.51171875 126.88240085460109 L 374.892578125 104.7670883466704 L 374.968740089881 104 L 375.146484375 108.12585905879581 L 375.52734375 136.10977695489967 L 375.93181315357003 156 L 376.03515625 154.47607826869495 L 376.2890625 139.53570214901333 L 376.796875 104.61975280208168 L 376.8604833012241 104 L 377.05078125 109.42402409105419 L 377.7571238790745 156 L 377.939453125 150.6635653007618 L 378.6238708060319 104 L 378.701171875 105.05101933461023 L 378.955078125 121.27101068767408 L 379.3359375 153.0483225536464 L 379.4626532237057 156 L 379.58984375 152.9979890542088 L 379.970703125 120.30925568686385 L 380.2752193548124 104 L 380.3515625 105.16309148492894 L 380.60546875 123.17433790148695 L 380.986328125 154.7564152035881 L 381.0631584416909 156 L 381.240234375 149.56034764936666 L 381.8279194570546 104 L 382.001953125 110.58943010102665 L 382.57082714060004 156 L 382.63671875 154.96577803006645 L 382.890625 134.92457919037165 L 383.293095807384 104 L 383.3984375 106.76684809310532 L 383.9958412894699 156 L 384.16015625 149.07889614746625 L 384.6800913057216 104 L 384.794921875 107.63792408993203 L 385.34679450166834 156 L 385.4296875 153.98525120257415 L 385.9968283590092 104 L 386.064453125 105.4143938734703 L 386.318359375 130.32312935064596 L 386.6310061402374 156 L 386.69921875 154.4898781548247 L 386.953125 128.58357739871786 L 387.25008300627405 104 L 387.333984375 106.38376521929244 L 387.854761422545 156 L 387.96875 151.45206416431236 L 388.44569595056146 104 L 388.603515625 112.8633084327803 L 389.02349750696396 156 L 389.111328125 153.01740121650147 L 389.5887371595105 104 L 389.74609375 113.57086723403441 L 390.14194951913987 156 L 390.25390625 150.79291250429446 L 390.68363577861373 104 L 390.76171875 106.68276748581361 L 391.2142664410252 156 L 391.5234375 122.57950114395526 L 391.7342837753986 104 L 391.904296875 116.8564142657716 L 392.158203125 152.38473335047465 L 392.24410403149636 156 L 392.412109375 142.9629177057433 L 392.666015625 107.11730659173588 L 392.7441194416215 104 L 393.046875 139.18320237866914 L 393.23470003353543 156 L 393.30078125 153.65775172279342 L 393.7161952754836 104 L 393.80859375 108.68245984038609 L 394.18893557164654 156 L 394.31640625 147.02380434999006 L 394.6532336240467 104 L 394.951171875 141.88857160045575 L 395.1093856749703 156 L 395.205078125 150.44261817743052 L 395.55767264226745 104 L 395.83984375 140.94761832999967 L 395.9983611584256 156 L 396.09375 150.10114099402278 L 396.4317045230411 104 L 396.8579435772087 156 L 396.982421875 145.60145235110437 L 397.2773075073857 104 L 397.36328125 109.30717565513292 L 397.69001458544915 156 L 398.0962728509293 104 L 398.49628074075576 156 L 398.8902276712914 104 L 399.013671875 115.82680580898409 L 399.27829457692496 156 L 399.39453125 145.120474691923 L 399.6606544090571 104 L 399.775390625 114.91342828433748 L 400.03747259892384 156 L 400.15625 144.05352447003654 L 400.4089074873582 104 L 400.7751107242834 156 L 401.1362276404608 104 L 401.492397593773 156 L 401.84375429210775 104 L 401.93359375 112.07533946344921 L 402.19042609471387 156 L 402.53253629372915 104 L 402.87020337742626 156 L 402.94921875 149.1816921011558 L 403.20354127658186 104 L 403.53265959525186 156 L 403.8576638271219 104 L 404.17865555850165 156 L 404.49573265894094 104 L 404.80898946036143 156 L 405.11851692552574 104 L 405.424402806595 156 L 405.48828125 150.52799662477898 L 405.7267317944681 104 L 406.0255856595372 156 L 406.3210433844454 104 L 406.61318128938547 156 L 406.90207315043733 104 L 407.18779031140275 156 L 407.265625 146.92731009488696 L 407.4704017895623 104 L 407.74997437574507 156 L 408.0265727290765 104 L 408.3002594667382 156 L 408.57109524905286 104 L 408.8391388601832 156 L 408.916015625 146.01842108943114 L 409.1044472847135 104 L 409.169921875 111.52077764498823 L 409.36707578036265 156 L 409.6270779470618 104 L 409.88450579261234 156 L 410.13940979512444 104 L 410.3918389624254 156 L 410.6418408886109 104 L 410.88946180790356 156 L 411.1347466459709 104 L 411.201171875 112.95563653778322 L 411.3777390688451 156 L 411.61848152957776 104 L 411.8570153127548 156 L 412.09338057698744 104 L 412.3276163954889 156 L 412.5597607948407 104 L 412.78985079204233 156 L 413.01792242993605 104 L 413.2440108110925 156 L 413.46815013023405 104 L 413.69037370527394 156 L 413.91071400703925 104 L 414.1292026877451 156 L 414.3458706082829 104 L 414.5607478643801 156 L 414.7738638116887 104 L 414.98524708985326 156 L 415.19492564560824 104 L 415.4029267549522 156 L 415.60927704444134 104 L 415.8140025116449 156 L 416.01712854480155 104 L 416.21867994171384 156 L 416.41868092791583 104 L 416.6171551741477 156 L 416.8141258131676 104 L 417.0096154559323 156 L 417.2036462071736 104 L 417.396239680398 156 L 417.58741701233475 104 L 417.7771988768567 156 L 417.9656054983966 104 L 418.1526566648813 156 L 418.33837174020323 104 L 418.52276967625 156 L 418.7058690245108 104 L 418.88768794727594 156 L 419.0682442284491 104 L 419.24755528398464 156 L 419.4256381719696 104 L 419.6025096023611 156 L 419.77818594639604 104 L 419.9526832456837 156 L 420.1260172209966 104 L 420.2982032807694 156 L 420.4692565293185 104 L 420.63919177479295 156 L 420.8080235368672 104 L 420.9757660541859 156 L 421.14243329156983 104 L 421.30803894699227 156 L 421.47259645833515 104 L 421.6361190099318 156 L 421.7986195389062 104 L 421.9601107413149 156 L 422.120605078099 104 L 422.28011478085443 156 L 422.4386518574255 104 L 422.59622809732946 156 L 422.75285507701733 104 L 422.90854416497757 156 L 423.06330652668726 104 L 423.2171531294175 156 L 423.3700947468973 104 L 423.5221419638402 156 L 423.6733051803412 104 L 423.8235946161442 156 L 423.973020314789 104 L 424.12159214763835 156 L 424.26931981779154 104 L 424.41621286388664 156 L 424.5622806637964 104 L 424.70753243822105 156 L 424.8519772541807 104 L 424.99562402841195 156 L 425.13848153067056 104 L 425.2805583869447 156 L 425.42186308257953 104 L 425.56240396531916 156 L 425.70218924826503 104 L 425.84122701275646 156 L 425.9795252111741 104 L 426.11709166966887 156 L 426.25393409082005 104 L 426.39006005622264 156 L 426.52547702900824 104 L 426.6601923563002 156 L 426.7942132716054 104 L 426.92754689714536 156 L 427.0602002461266 104 L 427.192180224955 156 L 427.32349363539277 104 L 427.4541471766623 156 L 427.58414744749666 104 L 427.7135009481396 156 L 427.8422140822958 104 L 427.9702931590333 156 L 428.09774439463865 104 L 428.22457391442794 156 L 428.3507877545127 104 L 428.476391863524 156 L 428.60139210429463 104 L 428.7257942555014 156 L 428.84960401326776 104 L 428.9728269927291 156 L 429.09546872956065 104 L 429.21753468147006 156 L 429.33903022965427 104 L 429.4599606802233 156 L 429.5803312655906 104 L 429.7001471458316 156 L 429.8194134100112 104 L 429.9381350774803 156 L 430.29108167384805 104 L 430.40767379747865 156 L 430.52374541882443 104 L 430.63930116459545 156 L 430.7543456000847 104 L 430.8688832302505 156 L 430.98291850077516 104 L 431.0964557991 156 L 431.43412288279706 104 L 431.54571103691717 156 L 431.65682231712907 104 L 431.76746078195265 156 L 431.8776304383161 104 L 431.9873352424265 156 L 432.3136993602756 104 L 432.42158333249273 156 L 432.5290215019004 104 L 432.6360175376732 156 L 432.7425750638725 104 L 433.0596521643118 156 L 433.16449101603814 104 L 433.2689088270653 156 L 433.5796694986852 104 L 433.6824364308966 156 L 433.78479876783945 104 L 434.08948975478296 156 L 434.19026507474496 104 L 434.29065129983894 156 L 434.589505164908 104 L 434.6883645996013 156 L 434.78684956584164 104 L 435.080085756822 156 L 435.1771007947563 104 L 435.4659926558081 156 L 435.5615809987702 104 L 435.84625537550164 156 L 435.94045837710655 104 L 436.2210366395584 156 L 436.313893881116 104 L 436.46484375 119.43081153319643 L 436.5904922344474 156 L 436.864178972109 104 L 436.9547713982569 156 L 437.099609375 138.50240904243034 L 437.2246700156755 104 L 437.49179565305633 156 L 437.7562047114667 104 L 437.8437468817122 156 L 437.98828125 142.41177512401353 L 438.1046186354412 104 L 438.36289890507277 156 L 438.6186386718673 104 L 438.8718874273253 156 L 439.1226932306722 104 L 439.2578125 119.80497374379074 L 439.3711027635974 156 L 439.51171875 145.99640096648957 L 439.7799162174632 104 L 440.0221539945492 156 L 440.26215569871306 104 L 440.400390625 112.16997186085578 L 440.65730008235823 156 L 441.04652890828874 104 L 441.27729965405194 156 L 441.416015625 151.78246352973778 L 441.669921875 107.44172256925015 L 441.8079303164633 104 L 442.18042952460314 156 L 442.431640625 122.95360990424525 L 442.693122193116 104 L 443.19590029102005 156 L 443.447265625 134.12803537829004 L 443.701171875 107.72195032357344 L 443.82836390897353 104 L 443.955078125 107.63623553286237 L 444.71558910071286 156 L 444.84375 155.0743012574742 L 445.09765625 147.57756269294546 L 445.732421875 126.3335854258786 L 445.986328125 122.69504751411392 L 446.08776680388587 104 L 446.3671875 123.04512060110761 L 446.62109375 127.22152172325778 L 447.001953125 139.4779754567645 L 447.6321637338199 156 L 447.763671875 151.1205288714016 L 448.14453125 119.86397085172509 L 448.5166027510545 104 L 448.65234375 118.02591938227384 L 448.91926566628473 156 L 449.16015625 148.96277373681167 L 449.4279775466856 104 L 449.66796875 115.20960330281974 L 450.03651596370594 156 L 450.17578125 125.6279461319287 L 450.41648097233946 104 L 450.556640625 138.65816885851095 L 450.7909730433191 156 L 450.9375 110.69064080519888 L 450.94983300800016 104 L 451.21246150364925 156 L 451.4453125 131.9971575338214 L 451.67860944799156 104 L 451.9340142522681 156 L 452.1869345346364 104 L 452.4374181675459 156 L 452.48722661189754 104 L 452.73484753119016 156 L 453.07760202417705 104 L 453.3196894342373 156 L 453.36783759614525 104 L 453.70240103604146 156 L 453.7498463046818 104 L 454.0795608681562 156 L 454.12632347068995 104 L 454.2661087536359 156 L 454.589381124254 104 L 454.619140625 141.7152385830776 L 454.74609375 136.08243754705046 L 454.86330815322265 104 L 454.9086833828895 156 L 455.224111861671 104 L 455.25390625 142.92435336859424 L 455.579977126293 104 L 455.62411975149746 156 L 455.75609973032584 104 L 455.7999445973772 156 L 456.1048057116054 104 L 456.14806695286745 156 L 456.27742045351044 104 L 456.4061335876667 156 L 456.53421266440415 104 L 456.5767658653923 156 L 456.70400918624273 104 L 456.83063281313986 156 L 457.04031136889483 104 L 457.16531160966554 156 L 457.28971376087225 104 L 457.4135235186386 156 L 457.5367464980999 104 L 457.6593882349315 156 L 457.86251426808815 104 L 457.98363249953854 156 L 458.10418912975337 104 L 458.3038828917556 156 L 458.4229670693985 104 L 458.6202366045147 156 L 458.7378838640702 104 L 458.9327873254963 156 L 459.12624059892744 104 L 459.31826510545557 156 L 459.50888179502545 104 L 459.69811116015165 156 L 459.8859732491388 104 L 460.1467204201898 156 L 460.33138028732355 104 L 460.58772039192354 156 L 460.84155783351343 104 L 461.09294100727124 156 L 461.4126171655542 104 L 461.6015625 140.1956414966821 L 461.72841052140905 156 L 462.10924289602303 104 L 462.236328125 114.27545211603028 L 462.490234375 152.5028372770264 L 462.5522418173367 156 L 462.744140625 145.31395866941293 L 463.125 106.45820805555365 L 463.2522841049721 104 L 463.37890625 106.50274749308491 L 464.013671875 130.70232052922336 L 464.1890313848654 156 L 464.39453125 129.7661807229124 L 464.6484375 121.28415806498361 L 465.029296875 104.87612267542377 L 465.1544117398182 104 L 465.283203125 110.1456670696484 L 465.7885895210464 156 L 466.23228629545525 104 L 466.6107924202397 156 L 466.81234381715194 104 L 466.93359375 110.89642399638134 L 467.1825581772382 156 L 467.4358069326962 104 L 467.57544206961063 156 L 467.6953125 144.3600995909388 L 467.8800248925651 104 L 468.01730081864525 156 L 468.2082775429724 104 L 468.4517756806672 156 L 468.639598994892 104 L 468.77293262043196 156 L 468.9055859694132 104 L 469.0375659482416 156 L 469.2734546630585 104 L 469.4035850648371 156 L 469.5330674041604 104 L 469.6619081038872 156 L 469.7901134918628 104 L 469.917689802784 156 L 470.0446431800181 104 L 470.421825810311 156 L 470.5463471211218 104 L 470.62077465286234 156 L 470.74434902997393 104 L 470.8673388525016 156 L 470.9897496247563 104 L 471.2570416984868 156 L 471.37763560670487 104 L 471.4976727543614 156 L 471.7598197963909 104 L 471.87810935438677 156 L 472.01171875 143.58373060449256 L 472.13646739713465 104 L 472.39228341434443 156 L 472.6456069418017 104 L 472.8964860813167 156 L 473.02734375 150.02394747624427 L 473.2795086060837 104 L 473.408203125 110.58409362908345 L 473.7888945752264 156 L 473.916015625 151.52353035139157 L 474.423828125 115.17820596676398 L 474.67289348824653 104 L 474.931640625 112.61288381435428 L 475.185546875 123.805807397402 L 475.6097442385009 156 L 475.8203125 142.56783001346616 L 476.15606784075726 104 L 476.37539429472633 156 L 476.58203125 134.1627793847714 L 476.7890393829457 104 L 477.0418461615286 156 L 477.1384287391588 104 L 477.4260422915111 156 L 477.52121077258346 104 L 477.8046438119859 156 L 478.0105484158405 104 L 478.10546875 154.71937910696923 L 478.3440050706199 104 L 478.359375 152.59444197471402 L 478.454213642556 104 L 478.5822026492553 156 L 478.70956469539567 104 L 478.8363058934424 156 L 478.96243226690535 104 L 479.0879497520566 156 L 479.2484440888407 104 L 479.4079537915961 156 L 479.5664908681672 104 L 479.72406710807115 156 L 479.9153723189754 104 L 480.10528020179174 156 L 480.3279429592204 104 L 480.5487150237819 156 L 480.64453125 143.68989732365455 L 480.8346169990534 104 L 481.18350402321494 156 L 481.279296875 151.74822891555993 L 481.66015625 106.82169791533423 L 481.7870442975026 104 L 482.18705218732896 156 L 482.421875 106.60444705557897 L 482.5809991178647 104 L 482.67578125 104.6558782392798 L 482.802734375 110.98510906482872 L 483.214423196711 156 L 483.5631164696656 104 L 483.78803136704187 156 L 484.07015863555716 104 L 484.26144416164 156 L 484.45133264613446 104 L 484.581986187404 156 L 484.7695563682804 104 L 484.89862447668395 156 L 485.05550920940976 104 L 485.18316904034623 156 L 485.31020512369247 104 L 485.43662352510137 156 L 485.5624302221752 104 L 485.88119754128707 156 L 485.9774430240094 104 L 486.07333354366057 156 L 486.35890126795914 104 L 486.64136653968364 156 L 486.8678023971265 104 L 487.11856576228524 156 L 487.24609375 147.38595722877216 L 487.626953125 104.96004058936515 L 487.75432598089344 104 L 487.94587891019705 156 L 488.3623926719254 104 L 488.515625 113.05804035192466 L 488.7969777658084 156 L 489.0234375 132.32726849320963 L 489.272823989903 104 L 489.5254867834312 156 L 489.53745731771266 104 L 489.9058364234175 156 L 490.1056565751205 104 L 490.16413613193805 156 L 490.29233002677984 104 L 490.4198949570746 156 L 490.54683706454557 104 L 490.67316240139394 156 L 490.79887693203005 104 L 490.99197524206033 156 L 491.1161613227075 104 L 491.3069260973524 156 L 491.56281177422767 104 L 491.81620361034294 156 L 492.19712293940665 104 L 492.451171875 119.71628800833463 L 492.78465821123905 156 L 492.958984375 125.17249509935432 L 493.317849393635 104 L 493.466796875 124.7107141736265 L 493.6162301911453 156 L 493.720703125 149.35229916530432 L 493.95165313872553 104 L 494.1428304706622 156 L 494.292773216108 104 L 494.4418561933803 156 L 494.6491465852413 104 L 494.73748189105106 156 L 494.8645498131415 104 L 494.9909997443919 156 L 495.1168376668785 104 L 495.26128248283817 156 L 495.4812175934818 104 L 495.62365768677654 156 L 495.878099731922 104 L 496.005859375 117.68053100080307 L 496.25977504279115 156 L 496.7993652848801 104 L 497.021484375 141.43913162120805 L 497.2035185002629 156 L 497.40234375 138.34371664142589 L 497.60148545361244 104 L 497.65625 111.41848130569896 L 497.85476256566665 156 L 497.950191434892 104 L 498.2515193109533 156 L 498.291015625 120.60068891590939 L 498.6085626853889 156 L 498.73489918274925 104 L 498.8940491642096 156 L 499.068825750649 104 L 499.2589092419252 156 L 499.5129295417229 104 L 499.9255082052248 156 L 500.2207845525527 104 L 500.5284337731164 156 L 500.576171875 154.8953838238598 L 500.940770362503 104 L 501.16365082874216 156 L 501.3542675183121 104 L 501.5284091128132 156 L 501.6713906598377 104 L 501.8135902083089 156 L 501.92530622091914 104 L 502.24292380712006 156 L 502.3381888516924 104 L 502.60743279147067 156 L 502.9883130134633 104 L 503.19438132365303 156 L 503.49609375 105.92382445747273 L 503.51094367581163 104 L 503.75 118.00106719237485 L 503.8789070937203 156 L 504.22813541496805 104 L 504.2757046911753 156 L 504.5928640872188 104 L 504.6397713164366 156 L 504.76666599421367 104 L 504.89294436105513 156 L 505.01861237472076 104 L 505.20925798237874 156 L 505.4634590546425 104 L 505.908203125 152.88697487798981 L 506.03441710815196 156 L 506.162109375 152.24056080816143 L 506.2890625 143.35435622790953 L 506.59310591484103 104 L 506.8464951321755 156 L 506.9875664855772 104 L 507.1765030882068 156 L 507.3037167623125 104 L 507.430311030497 156 L 507.7470965585692 104 L 507.81236359421155 156 L 508.06593784275566 104 L 508.193359375 110.69214134304474 L 508.4792918243462 156 L 508.701171875 123.57371643991009 L 508.86342229548995 104 L 509.11827077456826 156 L 509.4041111185108 104 L 509.65373966291907 156 L 509.7804079922548 104 L 509.93924564657107 156 L 510.12966290279246 104 L 510.3831918826118 156 L 510.77213356180994 104 L 510.986328125 143.2818479242467 L 511.12405812667964 156 L 511.240234375 144.0909138159368 L 511.41975165692827 104 L 511.589418068782 156 L 511.74779937992025 104 L 511.8748271878063 156 L 512.0012373940318 104 L 512.2871750627482 156 L 512.5107148424975 104 L 512.763671875 138.7541965103695 L 512.8595484953764 156 L 513.1652060555429 104 L 513.4100379976235 156 L 513.7282154843675 104 L 513.7706606234876 156 L 513.9069588387309 104 L 514.0332180796561 156 L 514.2237802484119 104 L 514.4772384767937 156 L 514.75548674644 104 L 515.0128251903411 156 L 515.17578125 139.0141795905551 L 515.3387223143285 104 L 515.4935373345193 156 L 515.6123393689409 104 L 515.7393397898907 156 L 516.056310983531 104 L 516.3182454862643 156 L 516.4928285202114 104 L 516.758826293353 156 L 516.953125 135.86582967015178 L 517.1714010667519 104 L 517.20703125 139.8451951702274 L 517.5164025745914 104 L 517.683148023322 156 L 517.9132023028892 104 L 518.244594995634 156 L 518.4765625 112.7570963798326 L 518.5796511788193 104 L 518.8019414184106 156 L 518.9606673431779 104 L 519.0954026165655 156 L 519.2065138967774 104 L 519.365234375 118.81635685772564 L 519.4841236717828 156 L 519.619140625 150.37506533030728 L 519.8335508964792 104 L 520 147.90631225814798" stroke-linecap="round" stroke-linejoin="round" stroke-miterlimit="10" stroke-width="2.5" stroke-dasharray=""/></g></g></g><g id="labels-3be681ff"/></g></svg>