<svg version="1.1" xmlns="http://www.w3.org/2000/svg" xmlns:xlink="http://www.w3.org/1999/xlink" width="520" height="260"><defs/><g transform="scale(1,1)"><g id="background-01d4558b"><rect fill="white" stroke="none" x="0" y="0" width="520" height="260" class="dcg-svg-background"/></g><g id="background-images-01d4558b"/><g id="graphpaper-01d4558b"><g id="grid-01d4558b"><g><path fill="none" stroke="rgb(0,0,0)" class="dcg-svg-minor-gridline" paint-order="fill stroke markers" d=" M 26.5 0 L 26.5 260" stroke-opacity="0.12" stroke-miterlimit="10" stroke-dasharray=""/><path fill="none" stroke="rgb(0,0,0)" class="dcg-svg-minor-gridline" paint-order="fill stroke markers" d=" M 52.5 0 L 52.5 260" stroke-opacity="0.12" stroke-miterlimit="10" stroke-dasharray=""/><path fill="none" stroke="rgb(0,0,0)" class="dcg-svg-minor-gridline" paint-order="fill stroke markers" d=" M 78.5 0 L 78.5 260" stroke-opacity="0.12" stroke-miterlimit="10" stroke-dasharray=""/><path fill="none" stroke="rgb(0,0,0)" class="dcg-svg-minor-gridline" paint-order="fill stroke markers" d=" M 104.5 0 L 104.5 260" stroke-opacity="0.12" stroke-miterlimit="10" stroke-dasharray=""/><path fill="none" stroke="rgb(0,0,0)" class="dcg-svg-minor-gridline" paint-order="fill stroke markers" d=" M 130.5 0 L 130.5 260" stroke-opacity="0.12" stroke-miterlimit="10" stroke-dasharray=""/><path fill="none" stroke="rgb(0,0,0)" class="dcg-svg-minor-gridline" paint-order="fill stroke markers" d=" M 156.5 0 L 156.5 260" stroke-opacity="0.12" stroke-miterlimit="10" stroke-dasharray=""/><path fill="none" stroke="rgb(0,0,0)" class="dcg-svg-minor-gridline" paint-order="fill stroke markers" d=" M 182.5 0 L 182.5 260" stroke-opacity="0.12" stroke-miterlimit="10" stroke-dasharray=""/><path fill="none" stroke="rgb(0,0,0)" class="dcg-svg-minor-gridline" paint-order="fill stroke markers" d=" M 208.5 0 L 208.5 260" stroke-opacity="0.12" stroke-miterlimit="10" stroke-dasharray=""/><path fill="none" stroke="rgb(0,0,0)" class="dcg-svg-minor-gridline" paint-order="fill stroke markers" d=" M 234.5 0 L 234.5 260" stroke-opacity="0.12" stroke-miterlimit="10" stroke-dasharray=""/><path fill="none" stroke="rgb(0,0,0)" class="dcg-svg-minor-gridline" paint-order="fill stroke markers" d=" M 286.5 0 L 286.5 260" stroke-opacity="0.12" stroke-miterlimit="10" stroke-dasharray=""/><path fill="none" stroke="rgb(0,0,0)" class="dcg-svg-minor-gridline" paint-order="fill stroke markers" d=" M 312.5 0 L 312.5 260" stroke-opacity="0.12" stroke-miterlimit="10" stroke-dasharray=""/><path fill="none" stroke="rgb(0,0,0)" class="dcg-svg-minor-gridline" paint-order="fill stroke markers" d=" M 338.5 0 L 338.5 260" stroke-opacity="0.12" stroke-miterlimit="10" stroke-dasharray=""/><path fill="none" stroke="rgb(0,0,0)" class="dcg-svg-minor-gridline" paint-order="fill stroke markers" d=" M 364.5 0 L 364.5 260" stroke-opacity="0.12" stroke-miterlimit="10" stroke-dasharray=""/><path fill="none" stroke="rgb(0,0,0)" class="dcg-svg-minor-gridline" paint-order="fill stroke markers" d=" M 390.5 0 L 390.5 260" stroke-opacity="0.12" stroke-miterlimit="10" stroke-dasharray=""/><path fill="none" stroke="rgb(0,0,0)" class="dcg-svg-minor-gridline" paint-order="fill stroke markers" d=" M 416.5 0 L 416.5 260" stroke-opacity="0.12" stroke-miterlimit="10" stroke-dasharray=""/><path fill="none" stroke="rgb(0,0,0)" class="dcg-svg-minor-gridline" paint-order="fill stroke markers" d=" M 442.5 0 L 442.5 260" stroke-opacity="0.12" stroke-miterlimit="10" stroke-dasharray=""/><path fill="none" stroke="rgb(0,0,0)" class="dcg-svg-minor-gridline" paint-order="fill stroke markers" d=" M 468.5 0 L 468.5 260" stroke-opacity="0.12" stroke-miterlimit="10" stroke-dasharray=""/><path fill="none" stroke="rgb(0,0,0)" class="dcg-svg-minor-gridline" paint-order="fill stroke markers" d=" M 494.5 0 L 494.5 260" stroke-opacity="0.12" stroke-miterlimit="10" stroke-dasharray=""/><path fill="none" stroke="rgb(0,0,0)" class="dcg-svg-minor-gridline" paint-order="fill stroke markers" d=" M 0 234.5 L 520 234.5" stroke-opacity="0.12" stroke-miterlimit="10" stroke-dasharray=""/><path fill="none" stroke="rgb(0,0,0)" class="dcg-svg-minor-gridline" paint-order="fill stroke markers" d=" M 0 208.5 L 520 208.5" stroke-opacity="0.12" stroke-miterlimit="10" stroke-dasharray=""/><path fill="none" stroke="rgb(0,0,0)" class="dcg-svg-minor-gridline" paint-order="fill stroke markers" d=" M 0 182.5 L 520 182.5" stroke-opacity="0.12" stroke-miterlimit="10" stroke-dasharray=""/><path fill="none" stroke="rgb(0,0,0)" class="dcg-svg-minor-gridline" paint-order="fill stroke markers" d=" M 0 156.5 L 520 156.5" stroke-opacity="0.12" stroke-miterlimit="10" stroke-dasharray=""/><path fill="none" stroke="rgb(0,0,0)" class="dcg-svg-minor-gridline" paint-order="fill stroke markers" d=" M 0 104.5 L 520 104.5" stroke-opacity="0.12" stroke-miterlimit="10" stroke-dasharray=""/><path fill="none" stroke="rgb(0,0,0)" class="dcg-svg-minor-gridline" paint-order="fill stroke markers" d=" M 0 78.5 L 520 78.5" stroke-opacity="0.12" stroke-miterlimit="10" stroke-dasharray=""/><path fill="none" stroke="rgb(0,0,0)" class="dcg-svg-minor-gridline" paint-order="fill stroke markers" d=" M 0 52.5 L 520 52.5" stroke-opacity="0.12" stroke-miterlimit="10" stroke-dasharray=""/><path fill="none" stroke="rgb(0,0,0)" class="dcg-svg-minor-gridline" paint-order="fill stroke markers" d=" M 0 26.5 L 520 26.5" stroke-opacity="0.12" stroke-miterlimit="10" stroke-dasharray=""/><path fill="none" stroke="rgb(0,0,0)" class="dcg-svg-major-gridline" paint-order="fill stroke markers" d=" M 130.5 0 L 130.5 260" stroke-opacity="0.31818181818181823" stroke-miterlimit="10" stroke-dasharray=""/><path fill="none" stroke="rgb(0,0,0)" class="dcg-svg-major-gridline" paint-order="fill stroke markers" d=" M 390.5 0 L 390.5 260" stroke-opacity="0.31818181818181823" stroke-miterlimit="10" stroke-dasharray=""/></g></g><g id="axis-01d4558b"><g id="yaxis-01d4558b"><title>Y axis</title><g><path fill="none" stroke="rgb(0,0,0)" class="dcg-svg-axis-line" paint-order="fill stroke markers" d=" M 259.75 0 L 259.75 260" stroke-opacity="0.9" stroke-miterlimit="10" stroke-width="1.5" stroke-dasharray=""/></g></g><g id="xaxis-01d4558b"><title>X axis</title><g><path fill="none" stroke="rgb(0,0,0)" class="dcg-svg-axis-line" paint-order="fill stroke markers" d=" M 0 129.75 L 520 129.75" stroke-opacity="0.9" stroke-miterlimit="10" stroke-width="1.5" stroke-dasharray=""/></g></g><g><g class="dcg-svg-axis-value"><text fill="none" stroke="#ffffff" font-family="Arial" font-size="14px" font-style="normal" font-weight="normal" text-decoration="normal" x="251.10693359375" y="145.808" text-anchor="middle" stroke-miterlimit="2" stroke-width="3" stroke-dasharray="">0</text><text fill="#000000" stroke="none" font-family="Arial" font-size="14px" font-style="normal" font-weight="normal" text-decoration="normal" x="251.10693359375" y="145.808" text-anchor="middle">0</text></g><g class="dcg-svg-axis-value dcg-svg-offcenter-axis-value"><text fill="none" stroke="#ffffff" font-family="Arial" font-size="14px" font-style="normal" font-weight="normal" text-decoration="normal" x="13.1171875" y="145.808" text-anchor="middle" stroke-miterlimit="2" stroke-width="3" stroke-dasharray="">-10</text><text fill="#000000" stroke="none" font-family="Arial" font-size="14px" font-style="normal" font-weight="normal" text-decoration="normal" x="13.1171875" y="145.808" text-anchor="middle">-10</text></g><g class="dcg-svg-axis-value"><text fill="none" stroke="#ffffff" font-family="Arial" font-size="14px" font-style="normal" font-weight="normal" text-decoration="normal" x="127.6689453125" y="145.808" text-anchor="middle" stroke-miterlimit="2" stroke-width="3" stroke-dasharray="">-5</text><text fill="#000000" stroke="none" font-family="Arial" font-size="14px" font-style="normal" font-weight="normal" text-decoration="normal" x="127.6689453125" y="145.808" text-anchor="middle">-5</text></g><g class="dcg-svg-axis-value"><text fill="none" stroke="#ffffff" font-family="Arial" font-size="14px" font-style="normal" font-weight="normal" text-decoration="normal" x="390" y="145.808" text-anchor="middle" stroke-miterlimit="2" stroke-width="3" stroke-dasharray="">5</text><text fill="#000000" stroke="none" font-family="Arial" font-size="14px" font-style="normal" font-weight="normal" text-decoration="normal" x="390" y="145.808" text-anchor="middle">5</text></g><g class="dcg-svg-axis-value dcg-svg-offcenter-axis-value"><text fill="none" stroke="#ffffff" font-family="Arial" font-size="14px" font-style="normal" font-weight="normal" text-decoration="normal" x="509.2138671875" y="145.808" text-anchor="middle" stroke-miterlimit="2" stroke-width="3" stroke-dasharray="">10</text><text fill="#000000" stroke="none" font-family="Arial" font-size="14px" font-style="normal" font-weight="normal" text-decoration="normal" x="509.2138671875" y="145.808" text-anchor="middle">10</text></g><g class="dcg-svg-axis-value dcg-svg-offcenter-axis-value"><text fill="none" stroke="#ffffff" font-family="Arial" font-size="14px" font-style="normal" font-weight="normal" text-decoration="normal" x="248.77587890625" y="253.808" text-anchor="middle" stroke-miterlimit="2" stroke-width="3" stroke-dasharray="">-5</text><text fill="#000000" stroke="none" font-family="Arial" font-size="14px" font-style="normal" font-weight="normal" text-decoration="normal" x="248.77587890625" y="253.808" text-anchor="middle">-5</text></g><g class="dcg-svg-axis-value dcg-svg-offcenter-axis-value"><text fill="none" stroke="#ffffff" font-family="Arial" font-size="14px" font-style="normal" font-weight="normal" text-decoration="normal" x="251.10693359375" y="13.808" text-anchor="middle" stroke-miterlimit="2" stroke-width="3" stroke-dasharray="">5</text><text fill="#000000" stroke="none" font-family="Arial" font-size="14px" font-style="normal" font-weight="normal" text-decoration="normal" x="251.10693359375" y="13.808" text-anchor="middle">5</text></g></g></g></g><g id="expressions-01d4558b"><g id="sketch-01d4558b"><title>Expression 1</title><path fill="#2d70b3" stroke="none" paint-order="stroke fill markers" d="" fill-opacity="0.4"/><g><path fill="none" stroke="#2d70b3" class="dcg-svg-curve" paint-order="fill stroke markers" d=" M 0.1269531240587579 265.5 L 0.1269531240587579 265.5 L 0.126953125 115.97697857281207 L 2.412109375 117.93827305216627 L 7.109375 122.27270921485439 L 13.7109375 128.7563698067261 L 24.248046875 139.1040587372846 L 25.8984375 140.7861711435039 L 25.89843750003489 265.5" stroke-linecap="round" stroke-linejoin="round" stroke-miterlimit="10" stroke-width="2.5" stroke-dasharray=""/></g><g><path fill="none" stroke="#2d70b3" class="dcg-svg-curve" paint-order="fill stroke markers" d=" M 26.152343749938627 -5.5 L 26.152343749938627 -5.5 L 26.15234375 140.74225284063604 L 26.787109375 141.40446082226794 L 30.21484375 144.3921994979693 L 34.0234375 147.39910787604728 L 37.578125 149.8687979799141 L 40.87890625 151.82967875777356 L 43.798828125 153.27043451494453 L 46.46484375 154.3263287361239 L 48.75 155.01808420014692 L 50.654296875 155.40297764303892 L 51.416015625 155.41217920624737 L 51.669921875 155.27703267866232 L 51.796875 155.04291163299578 L 51.923828125 153.96161825918023 L 51.923828125004185 -5.5" stroke-linecap="round" stroke-linejoin="round" stroke-miterlimit="10" stroke-width="2.5" stroke-dasharray=""/></g><g><path fill="none" stroke="#2d70b3" class="dcg-svg-curve" paint-order="fill stroke markers" d=" M 52.17773437499667 265.5 L 52.17773437499667 265.5 L 52.177734375 156.51374862385606 L 52.431640625 156.1040220352897 L 52.939453125 155.9970594234188 L 54.58984375 156.03631327643174 L 57.001953125 156.01398464506056 L 59.16015625 155.81962150933657 L 61.318359375 155.45248607893495 L 63.603515625 154.87654309762314 L 66.015625 154.06488446011895 L 68.5546875 152.99464695433792 L 71.474609375 151.51400144224715 L 76.86488255068156 148.68534588126698 L 77.1875 148.77729663076252 L 77.44140625 149.11449368528756 L 77.6953125 150.32541720407522 L 77.822265625 152.43097038056928 L 77.94921875 165.5413973592481 L 77.94921875000013 265.5" stroke-linecap="round" stroke-linejoin="round" stroke-miterlimit="10" stroke-width="2.5" stroke-dasharray=""/></g><g><path fill="none" stroke="#2d70b3" class="dcg-svg-curve" paint-order="fill stroke markers" d=" M 78.20312499999926 -5.5 L 78.20312499999926 -5.5 L 78.203125 142.23719878528073 L 78.45703125 144.61036962114446 L 78.7109375 145.14769973942094 L 79.09296028012884 145.3108437945875 L 79.47265625 145.23214105596017 L 80.234375 144.83684690849452 L 81.884765625 143.6422868214406 L 84.931640625 141.06392511319254 L 89.12109375 137.156138361468 L 94.19921875 132.05292753442805 L 98.26171875 127.648854167102 L 100.29296875 125.12619946166407 L 101.435546875 123.34396585632042 L 102.197265625 121.68508480037951 L 102.705078125 119.97564738500382 L 103.0859375 117.80182215808104 L 103.33984375 115.19157145117326 L 103.59375 109.61912047684089 L 103.720703125 103.19682618627454 L 103.84765625 86.26968266667954 L 103.91062900761672 -5.5" stroke-linecap="round" stroke-linejoin="round" stroke-miterlimit="10" stroke-width="2.5" stroke-dasharray=""/></g><g><path fill="none" stroke="#2d70b3" class="dcg-svg-curve" paint-order="fill stroke markers" d=" M 104.22851562499989 265.5 L 104.22851562499989 265.5 L 104.228515625 147.54336736764597 L 104.482421875 134.33248358686515 L 104.86328125 128.8281228208668 L 105.37109375 125.94435093335056 L 106.005859375 124.06610537868778 L 106.767578125 122.60833474617333 L 107.91015625 121.00615328565844 L 109.560546875 119.17069677607562 L 111.845703125 117.03460770832038 L 114.51171875 114.89965379974413 L 117.177734375 113.10857373725912 L 119.3359375 111.95309582855559 L 120.986328125 111.30611236878583 L 122.255859375 111.00376156761891 L 123.271484375 110.93570946294587 L 124.16015625 111.0581425292094 L 124.921875 111.35937459454192 L 125.68359375 111.93331524274899 L 126.318359375 112.73422301355473 L 126.953125 114.01588474717454 L 127.4609375 115.62357596084547 L 127.96875 118.16327604282903 L 128.349609375 121.19297977239398 L 128.73046875 126.14687561347506 L 129.111328125 135.4935014493014 L 129.365234375 148.06592477614785 L 129.619140625 177.54429429172507 L 129.74609375 214.47082380859788 L 129.80451876160487 265.5" stroke-linecap="round" stroke-linejoin="round" stroke-miterlimit="10" stroke-width="2.5" stroke-dasharray=""/></g><g><path fill="none" stroke="#2d70b3" class="dcg-svg-curve" paint-order="fill stroke markers" d=" M 130.2635195252994 -5.5 L 130.2635195252994 -5.5 L 130.5078125 47.772713194689345 L 130.888671875 71.40102516084707 L 131.26953125 80.77035831550438 L 131.77734375 86.9296687924934 L 132.28515625 90.27821651701308 L 132.919921875 92.75029000858838 L 133.5546875 94.27490402856421 L 134.31640625 95.44750015573615 L 135.205078125 96.31319194554018 L 136.220703125 96.92992214927074 L 137.36328125 97.3496853755286 L 138.759765625 97.62869520647848 L 140.283203125 97.74352961531548 L 141.93359375 97.69335708087164 L 143.45703125 97.47792613361344 L 144.853515625 97.09245164645901 L 145.99609375 96.58532973630717 L 147.138671875 95.82396174305192 L 148.154296875 94.83202117267405 L 149.04296875 93.60276702823384 L 149.8046875 92.15592887710686 L 150.56640625 90.175472668955 L 151.328125 87.38922483078457 L 151.962890625 84.11297203719695 L 152.59765625 79.44074718043582 L 153.232421875 72.3995752810408 L 153.740234375 63.70886251052276 L 154.248046875 49.72796858793389 L 154.62890625 32.226073758809136 L 155.009765625 0.990617891751441 L 155.0520406458509 -5.5" stroke-linecap="round" stroke-linejoin="round" stroke-miterlimit="10" stroke-width="2.5" stroke-dasharray=""/></g><g><path fill="none" stroke="#2d70b3" class="dcg-svg-curve" paint-order="fill stroke markers" d=" M 156.80322135254406 265.5 L 156.80322135254406 265.5 L 156.9140625 239.99662130915902 L 157.294921875 204.16331020981661 L 157.802734375 180.22773719724873 L 158.310546875 167.08194117482287 L 158.9453125 157.33472675132873 L 159.580078125 151.3425056644816 L 160.21484375 147.42313887886118 L 160.9765625 144.35792953182315 L 161.73828125 142.42822975040428 L 162.373046875 141.4095577171966 L 163.0078125 140.78510379583054 L 163.76953125 140.438489824419 L 164.27734375 140.40637739642807 L 164.912109375 140.55530745552554 L 165.673828125 140.97703590549528 L 166.5625 141.76760569868878 L 167.578125 143.0357351537209 L 168.720703125 144.92048117023023 L 169.86328125 147.32255599069103 L 171.005859375 150.32308521181687 L 172.1484375 154.06706404677618 L 173.1640625 158.21145753844235 L 174.1796875 163.40613134477326 L 175.1953125 170.09817555011097 L 176.083984375 177.77419054162456 L 176.845703125 186.39885449711358 L 177.607421875 197.9452083110741 L 178.2421875 211.0808766450097 L 178.876953125 229.49064103173077 L 179.384765625 250.59968260386378 L 179.62706685741577 265.5" stroke-linecap="round" stroke-linejoin="round" stroke-miterlimit="10" stroke-width="2.5" stroke-dasharray=""/></g><g><path fill="none" stroke="#2d70b3" class="dcg-svg-curve" paint-order="fill stroke markers" d=" M 184.69819330876803 -5.5 L 184.69819330876803 -5.5 L 184.970703125 7.731851944575155 L 185.60546875 27.62607162701363 L 186.3671875 43.75303808510469 L 187.12890625 54.95025063710325 L 188.017578125 64.23092482428494 L 188.90625 70.87751580125521 L 189.794921875 75.72628648624105 L 190.68359375 79.25891438863576 L 191.572265625 81.7641786989289 L 192.333984375 83.22808723133429 L 193.095703125 84.13169858711696 L 193.73046875 84.48321868697195 L 194.23828125 84.50801863323103 L 194.74609375 84.3042329385582 L 195.380859375 83.71996950755161 L 196.015625 82.75107635209795 L 196.77734375 81.03659745359272 L 197.5390625 78.64471287853573 L 198.30078125 75.46152058506301 L 199.189453125 70.5285217867241 L 200.078125 63.91777746289645 L 200.966796875 55.04743024374373 L 201.728515625 44.955302433363684 L 202.490234375 31.59079524676706 L 203.251953125 13.407173807015155 L 203.8304510764792 -5.5" stroke-linecap="round" stroke-linejoin="round" stroke-miterlimit="10" stroke-width="2.5" stroke-dasharray=""/></g><g><path fill="none" stroke="#2d70b3" class="dcg-svg-curve" paint-order="fill stroke markers" d=" M 215.98399206662475 265.5 L 215.98399206662475 265.5 L 216.708984375 260.0877678574817 L 217.59765625 255.25067213902472 L 218.486328125 251.8317108093516 L 219.248046875 249.84483203338274 L 219.8828125 248.77888058129508 L 220.517578125 248.2116853185609 L 221.025390625 248.10433857632148 L 221.40625 248.2237658868574 L 221.9140625 248.65167105055386 L 222.548828125 249.63040029919637 L 223.18359375 251.13035864108815 L 223.9453125 253.685874155993 L 224.70703125 257.1835082640575 L 225.46875 261.8061620617426 L 225.92593540261112 265.5" stroke-linecap="round" stroke-linejoin="round" stroke-miterlimit="10" stroke-width="2.5" stroke-dasharray=""/></g><g><path fill="none" stroke="#2d70b3" class="dcg-svg-curve" paint-order="fill stroke markers" d=" M 238.0991046068885 -5.5 L 238.0991046068885 -5.5 L 238.41796875 7.388263024121514 L 239.1796875 28.808273453351234 L 240.068359375 46.66619354486373 L 240.95703125 59.647580231939926 L 241.97265625 70.604420127413 L 242.98828125 78.7675087541478 L 244.00390625 84.98701427093565 L 245.01953125 89.79936508614593 L 246.162109375 93.96887891641558 L 247.3046875 97.14623918579315 L 248.447265625 99.56543239913655 L 249.58984375 101.39191315645641 L 250.732421875 102.74606776511645 L 251.875 103.71766839901457 L 253.14453125 104.43119119000336 L 254.287109375 104.80132716767618 L 255.4296875 104.95644105832909 L 256.572265625 104.92937033870709 L 257.841796875 104.7179732846808 L 259.23828125 104.29924937117596 L 260.888671875 103.59532281796487 L 262.919921875 102.47707365205369 L 265.458984375 100.77579002234646 L 268.6328125 98.30345507189568 L 272.6953125 94.76964157926395 L 278.662109375 89.18426891571286 L 297.83203125 70.66901950666637 L 303.037109375 65.31949004964989 L 306.845703125 61.03714415125938 L 310.01953125 57.0769161979789 L 312.8125 53.17623898758008 L 315.3515625 49.18749932340707 L 317.763671875 44.907478074140926 L 320.048828125 40.313427646548604 L 322.20703125 35.39692218861265 L 324.365234375 29.816548738421176 L 326.396484375 23.855364701698548 L 328.427734375 17.096066524213043 L 330.458984375 9.416140415437184 L 332.490234375 0.6771510025070029 L 333.7559617604789 -5.5" stroke-linecap="round" stroke-linejoin="round" stroke-miterlimit="10" stroke-width="2.5" stroke-dasharray=""/></g></g></g><g id="labels-01d4558b"/></g></svg>